<svg xmlns="http://www.w3.org/2000/svg" xmlns:xlink="http://www.w3.org/1999/xlink" width="940" height="277.1"><rect width="940" height="277.1" rx="5" ry="5" class="a"/><svg y="0%" x="0%"><circle cx="20" cy="20" r="6" fill="#ff5f58"/><circle cx="40" cy="20" r="6" fill="#ffbd2e"/><circle cx="60" cy="20" r="6" fill="#18c132"/></svg><svg height="217.1" viewBox="0 0 90 21.71" width="900" x="15" xmlns="http://www.w3.org/2000/svg" xmlns:xlink="http://www.w3.org/1999/xlink" y="50"><style>@keyframes p{0%{transform:translateX(0)}1%{transform:translateX(-90px)}3.2%{transform:translateX(-180px)}4.3%{transform:translateX(-270px)}6.2%{transform:translateX(-360px)}7.5%{transform:translateX(-450px)}8.5%{transform:translateX(-540px)}9.9%{transform:translateX(-630px)}11%{transform:translateX(-720px)}15.7%{transform:translateX(-810px)}16.6%{transform:translateX(-900px)}18.1%{transform:translateX(-990px)}20%{transform:translateX(-1080px)}20.9%{transform:translateX(-1170px)}22.6%{transform:translateX(-1260px)}23.8%{transform:translateX(-1350px)}49.9%{transform:translateX(-1530px)}50.9%{transform:translateX(-1710px)}51.8%{transform:translateX(-1890px)}52.8%{transform:translateX(-2070px)}53.8%{transform:translateX(-2250px)}54.7%{transform:translateX(-2430px)}55.7%{transform:translateX(-2610px)}56.7%{transform:translateX(-2790px)}57.7%{transform:translateX(-2970px)}58.7%{transform:translateX(-3150px)}59.7%{transform:translateX(-3330px)}60.7%{transform:translateX(-3510px)}61.6%{transform:translateX(-3690px)}62.6%{transform:translateX(-3870px)}63.6%{transform:translateX(-4050px)}65.1%{transform:translateX(-4230px)}65.2%{transform:translateX(-4680px)}65.4%{transform:translateX(-4770px)}to{transform:translateX(-4950px)}}.a{fill:#fff}.f{fill:#000}.g{fill:#33bbc8}.h{fill:#000;font-weight:700}.j{fill:#25bc24}.k{fill:#adad27}.l,.m{fill:#492ee1;font-weight:700}.m{fill:#25bc24}</style><g font-size="1.67" font-family="Monaco,Consolas,Menlo,'Bitstream Vera Sans Mono','Powerline Symbols',monospace"><defs><symbol id="1"><text y="1.67" class="f">bash-3.2$</text><text x="10.02" y="1.67" class="f">api</text></symbol><symbol id="2"><text y="1.67" class="f">bash-3.2$</text><text x="10.02" y="1.67" class="f">api</text><text x="14.028" y="1.67" class="f">check</text></symbol><symbol id="3"><text y="1.67" class="f">bash-3.2$</text><text x="10.02" y="1.67" class="f">api</text><text x="14.028" y="1.67" class="f">check</text><text x="20.04" y="1.67" class="f">start</text></symbol><symbol id="4"><text y="1.67" class="g">[optic]</text><text x="8.016" y="1.67" class="h">Testing</text><text x="16.032" y="1.67" class="h">task</text><text x="21.042" y="1.67" class="h">&apos;start&apos;</text></symbol><symbol id="5"><text y="1.67" text-decoration="underline">Assertions</text></symbol><symbol id="6"><text x="2.004" y="1.67" class="j">✔</text><text x="4.008" y="1.67" class="f">Task</text><text x="9.018" y="1.67" class="f">&apos;start&apos;</text><text x="17.034" y="1.67" class="f">exists</text></symbol><symbol id="7"><text x="2.004" y="1.67" class="k">⠙</text><text x="4.008" y="1.67" class="f">Your</text><text x="9.018" y="1.67" class="f">command,</text><text x="18.036" y="1.67" class="l">npm</text><text x="22.044" y="1.67" class="l">run</text><text x="26.052" y="1.67" class="l">server-start</text><text x="38.076" y="1.67" class="f">,</text><text x="40.08" y="1.67" class="f">starts</text><text x="47.094" y="1.67" class="f">your</text><text x="52.104" y="1.67" class="f">API</text><text x="56.112" y="1.67" class="f">on</text><text x="59.118" y="1.67" class="f">the</text><text x="63.126" y="1.67" class="f">host</text><text x="68.136" y="1.67" class="f">and</text><text x="72.144" y="1.67" class="f">port</text><text x="77.154" y="1.67" class="f">Opt</text></symbol><symbol id="8"><text y="1.67" class="f">ic</text><text x="3.006" y="1.67" class="f">assigns</text><text x="11.022" y="1.67" class="f">it</text><text x="14.028" y="1.67" class="h">localhost:3300</text></symbol><symbol id="9"><text x="4.008" y="1.67" class="f">Optic</text><text x="10.02" y="1.67" class="f">can</text><text x="14.028" y="1.67" class="f">start</text></symbol><symbol id="10"><text x="2.004" y="1.67" class="k">⠹</text><text x="4.008" y="1.67" class="f">Your</text><text x="9.018" y="1.67" class="f">command,</text><text x="18.036" y="1.67" class="l">npm</text><text x="22.044" y="1.67" class="l">run</text><text x="26.052" y="1.67" class="l">server-start</text><text x="38.076" y="1.67" class="f">,</text><text x="40.08" y="1.67" class="f">starts</text><text x="47.094" y="1.67" class="f">your</text><text x="52.104" y="1.67" class="f">API</text><text x="56.112" y="1.67" class="f">on</text><text x="59.118" y="1.67" class="f">the</text><text x="63.126" y="1.67" class="f">host</text><text x="68.136" y="1.67" class="f">and</text><text x="72.144" y="1.67" class="f">port</text><text x="77.154" y="1.67" class="f">Opt</text></symbol><symbol id="11"><text x="2.004" y="1.67" class="k">⠸</text><text x="4.008" y="1.67" class="f">Your</text><text x="9.018" y="1.67" class="f">command,</text><text x="18.036" y="1.67" class="l">npm</text><text x="22.044" y="1.67" class="l">run</text><text x="26.052" y="1.67" class="l">server-start</text><text x="38.076" y="1.67" class="f">,</text><text x="40.08" y="1.67" class="f">starts</text><text x="47.094" y="1.67" class="f">your</text><text x="52.104" y="1.67" class="f">API</text><text x="56.112" y="1.67" class="f">on</text><text x="59.118" y="1.67" class="f">the</text><text x="63.126" y="1.67" class="f">host</text><text x="68.136" y="1.67" class="f">and</text><text x="72.144" y="1.67" class="f">port</text><text x="77.154" y="1.67" class="f">Opt</text></symbol><symbol id="12"><text x="2.004" y="1.67" class="k">⠼</text><text x="4.008" y="1.67" class="f">Your</text><text x="9.018" y="1.67" class="f">command,</text><text x="18.036" y="1.67" class="l">npm</text><text x="22.044" y="1.67" class="l">run</text><text x="26.052" y="1.67" class="l">server-start</text><text x="38.076" y="1.67" class="f">,</text><text x="40.08" y="1.67" class="f">starts</text><text x="47.094" y="1.67" class="f">your</text><text x="52.104" y="1.67" class="f">API</text><text x="56.112" y="1.67" class="f">on</text><text x="59.118" y="1.67" class="f">the</text><text x="63.126" y="1.67" class="f">host</text><text x="68.136" y="1.67" class="f">and</text><text x="72.144" y="1.67" class="f">port</text><text x="77.154" y="1.67" class="f">Opt</text></symbol><symbol id="13"><text x="2.004" y="1.67" class="k">⠴</text><text x="4.008" y="1.67" class="f">Your</text><text x="9.018" y="1.67" class="f">command,</text><text x="18.036" y="1.67" class="l">npm</text><text x="22.044" y="1.67" class="l">run</text><text x="26.052" y="1.67" class="l">server-start</text><text x="38.076" y="1.67" class="f">,</text><text x="40.08" y="1.67" class="f">starts</text><text x="47.094" y="1.67" class="f">your</text><text x="52.104" y="1.67" class="f">API</text><text x="56.112" y="1.67" class="f">on</text><text x="59.118" y="1.67" class="f">the</text><text x="63.126" y="1.67" class="f">host</text><text x="68.136" y="1.67" class="f">and</text><text x="72.144" y="1.67" class="f">port</text><text x="77.154" y="1.67" class="f">Opt</text></symbol><symbol id="14"><text x="2.004" y="1.67" class="k">⠦</text><text x="4.008" y="1.67" class="f">Your</text><text x="9.018" y="1.67" class="f">command,</text><text x="18.036" y="1.67" class="l">npm</text><text x="22.044" y="1.67" class="l">run</text><text x="26.052" y="1.67" class="l">server-start</text><text x="38.076" y="1.67" class="f">,</text><text x="40.08" y="1.67" class="f">starts</text><text x="47.094" y="1.67" class="f">your</text><text x="52.104" y="1.67" class="f">API</text><text x="56.112" y="1.67" class="f">on</text><text x="59.118" y="1.67" class="f">the</text><text x="63.126" y="1.67" class="f">host</text><text x="68.136" y="1.67" class="f">and</text><text x="72.144" y="1.67" class="f">port</text><text x="77.154" y="1.67" class="f">Opt</text></symbol><symbol id="15"><text x="2.004" y="1.67" class="k">⠧</text><text x="4.008" y="1.67" class="f">Your</text><text x="9.018" y="1.67" class="f">command,</text><text x="18.036" y="1.67" class="l">npm</text><text x="22.044" y="1.67" class="l">run</text><text x="26.052" y="1.67" class="l">server-start</text><text x="38.076" y="1.67" class="f">,</text><text x="40.08" y="1.67" class="f">starts</text><text x="47.094" y="1.67" class="f">your</text><text x="52.104" y="1.67" class="f">API</text><text x="56.112" y="1.67" class="f">on</text><text x="59.118" y="1.67" class="f">the</text><text x="63.126" y="1.67" class="f">host</text><text x="68.136" y="1.67" class="f">and</text><text x="72.144" y="1.67" class="f">port</text><text x="77.154" y="1.67" class="f">Opt</text></symbol><symbol id="16"><text x="2.004" y="1.67" class="k">⠇</text><text x="4.008" y="1.67" class="f">Your</text><text x="9.018" y="1.67" class="f">command,</text><text x="18.036" y="1.67" class="l">npm</text><text x="22.044" y="1.67" class="l">run</text><text x="26.052" y="1.67" class="l">server-start</text><text x="38.076" y="1.67" class="f">,</text><text x="40.08" y="1.67" class="f">starts</text><text x="47.094" y="1.67" class="f">your</text><text x="52.104" y="1.67" class="f">API</text><text x="56.112" y="1.67" class="f">on</text><text x="59.118" y="1.67" class="f">the</text><text x="63.126" y="1.67" class="f">host</text><text x="68.136" y="1.67" class="f">and</text><text x="72.144" y="1.67" class="f">port</text><text x="77.154" y="1.67" class="f">Opt</text></symbol><symbol id="17"><text x="2.004" y="1.67" class="k">⠏</text><text x="4.008" y="1.67" class="f">Your</text><text x="9.018" y="1.67" class="f">command,</text><text x="18.036" y="1.67" class="l">npm</text><text x="22.044" y="1.67" class="l">run</text><text x="26.052" y="1.67" class="l">server-start</text><text x="38.076" y="1.67" class="f">,</text><text x="40.08" y="1.67" class="f">starts</text><text x="47.094" y="1.67" class="f">your</text><text x="52.104" y="1.67" class="f">API</text><text x="56.112" y="1.67" class="f">on</text><text x="59.118" y="1.67" class="f">the</text><text x="63.126" y="1.67" class="f">host</text><text x="68.136" y="1.67" class="f">and</text><text x="72.144" y="1.67" class="f">port</text><text x="77.154" y="1.67" class="f">Opt</text></symbol><symbol id="18"><text x="2.004" y="1.67" class="k">⠋</text><text x="4.008" y="1.67" class="f">Your</text><text x="9.018" y="1.67" class="f">command,</text><text x="18.036" y="1.67" class="l">npm</text><text x="22.044" y="1.67" class="l">run</text><text x="26.052" y="1.67" class="l">server-start</text><text x="38.076" y="1.67" class="f">,</text><text x="40.08" y="1.67" class="f">starts</text><text x="47.094" y="1.67" class="f">your</text><text x="52.104" y="1.67" class="f">API</text><text x="56.112" y="1.67" class="f">on</text><text x="59.118" y="1.67" class="f">the</text><text x="63.126" y="1.67" class="f">host</text><text x="68.136" y="1.67" class="f">and</text><text x="72.144" y="1.67" class="f">port</text><text x="77.154" y="1.67" class="f">Opt</text></symbol><symbol id="19"><text x="2.004" y="1.67" class="j">✔</text><text x="4.008" y="1.67" class="f">Your</text><text x="9.018" y="1.67" class="f">command,</text><text x="18.036" y="1.67" class="l">npm</text><text x="22.044" y="1.67" class="l">run</text><text x="26.052" y="1.67" class="l">server-start</text><text x="38.076" y="1.67" class="f">,</text><text x="40.08" y="1.67" class="f">starts</text><text x="47.094" y="1.67" class="f">your</text><text x="52.104" y="1.67" class="f">API</text><text x="56.112" y="1.67" class="f">on</text><text x="59.118" y="1.67" class="f">the</text><text x="63.126" y="1.67" class="f">host</text><text x="68.136" y="1.67" class="f">and</text><text x="72.144" y="1.67" class="f">port</text><text x="77.154" y="1.67" class="f">Opt</text></symbol><symbol id="20"><text x="2.004" y="1.67" class="k">⠙</text><text x="4.008" y="1.67" class="f">Optic</text><text x="10.02" y="1.67" class="f">proxy</text><text x="16.032" y="1.67" class="f">can</text><text x="20.04" y="1.67" class="f">start</text><text x="26.052" y="1.67" class="f">on</text><text x="29.058" y="1.67" class="f">localhost:3005</text></symbol><symbol id="21"><text x="2.004" y="1.67" class="k">⠹</text><text x="4.008" y="1.67" class="f">Optic</text><text x="10.02" y="1.67" class="f">proxy</text><text x="16.032" y="1.67" class="f">can</text><text x="20.04" y="1.67" class="f">start</text><text x="26.052" y="1.67" class="f">on</text><text x="29.058" y="1.67" class="f">localhost:3005</text></symbol><symbol id="22"><text x="2.004" y="1.67" class="k">⠸</text><text x="4.008" y="1.67" class="f">Optic</text><text x="10.02" y="1.67" class="f">proxy</text><text x="16.032" y="1.67" class="f">can</text><text x="20.04" y="1.67" class="f">start</text><text x="26.052" y="1.67" class="f">on</text><text x="29.058" y="1.67" class="f">localhost:3005</text></symbol><symbol id="23"><text x="2.004" y="1.67" class="j">✔</text><text x="4.008" y="1.67" class="f">Optic</text><text x="10.02" y="1.67" class="f">proxy</text><text x="16.032" y="1.67" class="f">can</text><text x="20.04" y="1.67" class="f">start</text><text x="26.052" y="1.67" class="f">on</text><text x="29.058" y="1.67" class="f">localhost:3005</text></symbol><symbol id="24"><text y="1.67" class="g">[optic]</text><text x="8.016" y="1.67" class="j">Nice</text><text x="13.026" y="1.67" class="j">work!</text><text x="19.038" y="1.67" class="j">Optic</text><text x="25.05" y="1.67" class="j">is</text><text x="28.056" y="1.67" class="j">setup</text><text x="34.068" y="1.67" class="j">properly.</text><text x="44.088" y="1.67" class="j">Now</text><text x="48.096" y="1.67" class="j">run</text><text x="52.104" y="1.67" class="m">api</text><text x="56.112" y="1.67" class="m">run</text><text x="60.12" y="1.67" class="m">start</text></symbol><symbol id="25"><text y="1.67" class="f">bash-3.2$</text></symbol><symbol id="a"><path fill="transparent" d="M0 0h90v11H0z"/></symbol><symbol id="b"><path fill="#929292" d="M0 0h1.102v2.171H0z"/></symbol></defs><path class="a" d="M0 0h90v21.71H0z"/><g style="animation-duration:10.287439000000003s;animation-iteration-count:infinite;animation-name:p;animation-timing-function:steps(1,end)"><svg width="5040"><svg><use xlink:href="#a"/><use xlink:href="#b" x="10.996"/><text y="1.67" class="f">bash-3.2$</text><text x="10.02" y="1.67" class="f">a</text></svg><svg x="90"><use xlink:href="#a"/><use xlink:href="#b" x="11.996"/><text y="1.67" class="f">bash-3.2$</text><text x="10.02" y="1.67" class="f">ap</text></svg><svg x="180"><use xlink:href="#a"/><use xlink:href="#b" x="12.996"/><use xlink:href="#1"/></svg><svg x="270"><use xlink:href="#a"/><use xlink:href="#b" x="13.996"/><use xlink:href="#1"/></svg><svg x="360"><use xlink:href="#a"/><use xlink:href="#b" x="14.996"/><text y="1.67" class="f">bash-3.2$</text><text x="10.02" y="1.67" class="f">api</text><text x="14.028" y="1.67" class="f">c</text></svg><svg x="450"><use xlink:href="#a"/><use xlink:href="#b" x="15.996"/><text y="1.67" class="f">bash-3.2$</text><text x="10.02" y="1.67" class="f">api</text><text x="14.028" y="1.67" class="f">ch</text></svg><svg x="540"><use xlink:href="#a"/><use xlink:href="#b" x="16.996"/><text y="1.67" class="f">bash-3.2$</text><text x="10.02" y="1.67" class="f">api</text><text x="14.028" y="1.67" class="f">che</text></svg><svg x="630"><use xlink:href="#a"/><use xlink:href="#b" x="17.996"/><text y="1.67" class="f">bash-3.2$</text><text x="10.02" y="1.67" class="f">api</text><text x="14.028" y="1.67" class="f">chec</text></svg><svg x="720"><use xlink:href="#a"/><use xlink:href="#b" x="18.996"/><use xlink:href="#2"/></svg><svg x="810"><use xlink:href="#a"/><use xlink:href="#b" x="19.996"/><use xlink:href="#2"/></svg><svg x="900"><use xlink:href="#a"/><use xlink:href="#b" x="20.996"/><text y="1.67" class="f">bash-3.2$</text><text x="10.02" y="1.67" class="f">api</text><text x="14.028" y="1.67" class="f">check</text><text x="20.04" y="1.67" class="f">s</text></svg><svg x="990"><use xlink:href="#a"/><use xlink:href="#b" x="21.996"/><text y="1.67" class="f">bash-3.2$</text><text x="10.02" y="1.67" class="f">api</text><text x="14.028" y="1.67" class="f">check</text><text x="20.04" y="1.67" class="f">st</text></svg><svg x="1080"><use xlink:href="#a"/><use xlink:href="#b" x="22.996"/><text y="1.67" class="f">bash-3.2$</text><text x="10.02" y="1.67" class="f">api</text><text x="14.028" y="1.67" class="f">check</text><text x="20.04" y="1.67" class="f">sta</text></svg><svg x="1170"><use xlink:href="#a"/><use xlink:href="#b" x="23.996"/><text y="1.67" class="f">bash-3.2$</text><text x="10.02" y="1.67" class="f">api</text><text x="14.028" y="1.67" class="f">check</text><text x="20.04" y="1.67" class="f">star</text></svg><svg x="1260"><use xlink:href="#a"/><use xlink:href="#b" x="24.996"/><use xlink:href="#3"/></svg><svg x="1350"><use xlink:href="#a"/><use xlink:href="#b" x="-.004" y="2.146"/><use xlink:href="#3"/></svg><svg x="1440"><use xlink:href="#a"/><use xlink:href="#b" x="-.004" y="4.317"/><use xlink:href="#3"/><use xlink:href="#4" y="2.171"/></svg><svg x="1530"><use xlink:href="#a"/><use xlink:href="#b" x="-.004" y="8.659"/><use xlink:href="#3"/><use xlink:href="#4" y="2.171"/><use xlink:href="#5" y="6.513"/></svg><svg x="1620"><use xlink:href="#a"/><use xlink:href="#3"/><use xlink:href="#4" y="2.171"/><use xlink:href="#5" y="6.513"/></svg><svg x="1710"><use xlink:href="#a"/><use xlink:href="#3"/><use xlink:href="#4" y="2.171"/><use xlink:href="#5" y="6.513"/><use xlink:href="#6" y="8.684"/><use xlink:href="#7" y="10.855"/><use xlink:href="#8" y="13.026"/><use xlink:href="#9" y="15.197"/></svg><svg x="1800"><use xlink:href="#a"/><use xlink:href="#3"/><use xlink:href="#4" y="2.171"/><use xlink:href="#5" y="6.513"/><use xlink:href="#6" y="8.684"/><use xlink:href="#7" y="10.855"/><use xlink:href="#8" y="13.026"/><use xlink:href="#9" y="15.197"/></svg><svg x="1890"><use xlink:href="#a"/><use xlink:href="#3"/><use xlink:href="#4" y="2.171"/><use xlink:href="#5" y="6.513"/><use xlink:href="#6" y="8.684"/><use xlink:href="#10" y="10.855"/><use xlink:href="#8" y="13.026"/><use xlink:href="#9" y="15.197"/></svg><svg x="1980"><use xlink:href="#a"/><use xlink:href="#3"/><use xlink:href="#4" y="2.171"/><use xlink:href="#5" y="6.513"/><use xlink:href="#6" y="8.684"/><use xlink:href="#10" y="10.855"/><use xlink:href="#8" y="13.026"/><use xlink:href="#9" y="15.197"/></svg><svg x="2070"><use xlink:href="#a"/><use xlink:href="#3"/><use xlink:href="#4" y="2.171"/><use xlink:href="#5" y="6.513"/><use xlink:href="#6" y="8.684"/><use xlink:href="#11" y="10.855"/><use xlink:href="#8" y="13.026"/><use xlink:href="#9" y="15.197"/></svg><svg x="2160"><use xlink:href="#a"/><use xlink:href="#3"/><use xlink:href="#4" y="2.171"/><use xlink:href="#5" y="6.513"/><use xlink:href="#6" y="8.684"/><use xlink:href="#11" y="10.855"/><use xlink:href="#8" y="13.026"/><use xlink:href="#9" y="15.197"/></svg><svg x="2250"><use xlink:href="#a"/><use xlink:href="#3"/><use xlink:href="#4" y="2.171"/><use xlink:href="#5" y="6.513"/><use xlink:href="#6" y="8.684"/><use xlink:href="#12" y="10.855"/><use xlink:href="#8" y="13.026"/><use xlink:href="#9" y="15.197"/></svg><svg x="2340"><use xlink:href="#a"/><use xlink:href="#3"/><use xlink:href="#4" y="2.171"/><use xlink:href="#5" y="6.513"/><use xlink:href="#6" y="8.684"/><use xlink:href="#12" y="10.855"/><use xlink:href="#8" y="13.026"/><use xlink:href="#9" y="15.197"/></svg><svg x="2430"><use xlink:href="#a"/><use xlink:href="#3"/><use xlink:href="#4" y="2.171"/><use xlink:href="#5" y="6.513"/><use xlink:href="#6" y="8.684"/><use xlink:href="#13" y="10.855"/><use xlink:href="#8" y="13.026"/><use xlink:href="#9" y="15.197"/></svg><svg x="2520"><use xlink:href="#a"/><use xlink:href="#3"/><use xlink:href="#4" y="2.171"/><use xlink:href="#5" y="6.513"/><use xlink:href="#6" y="8.684"/><use xlink:href="#13" y="10.855"/><use xlink:href="#8" y="13.026"/><use xlink:href="#9" y="15.197"/></svg><svg x="2610"><use xlink:href="#a"/><use xlink:href="#3"/><use xlink:href="#4" y="2.171"/><use xlink:href="#5" y="6.513"/><use xlink:href="#6" y="8.684"/><use xlink:href="#14" y="10.855"/><use xlink:href="#8" y="13.026"/><use xlink:href="#9" y="15.197"/></svg><svg x="2700"><use xlink:href="#a"/><use xlink:href="#3"/><use xlink:href="#4" y="2.171"/><use xlink:href="#5" y="6.513"/><use xlink:href="#6" y="8.684"/><use xlink:href="#14" y="10.855"/><use xlink:href="#8" y="13.026"/><use xlink:href="#9" y="15.197"/></svg><svg x="2790"><use xlink:href="#a"/><use xlink:href="#3"/><use xlink:href="#4" y="2.171"/><use xlink:href="#5" y="6.513"/><use xlink:href="#6" y="8.684"/><use xlink:href="#15" y="10.855"/><use xlink:href="#8" y="13.026"/><use xlink:href="#9" y="15.197"/></svg><svg x="2880"><use xlink:href="#a"/><use xlink:href="#3"/><use xlink:href="#4" y="2.171"/><use xlink:href="#5" y="6.513"/><use xlink:href="#6" y="8.684"/><use xlink:href="#15" y="10.855"/><use xlink:href="#8" y="13.026"/><use xlink:href="#9" y="15.197"/></svg><svg x="2970"><use xlink:href="#a"/><use xlink:href="#3"/><use xlink:href="#4" y="2.171"/><use xlink:href="#5" y="6.513"/><use xlink:href="#6" y="8.684"/><use xlink:href="#16" y="10.855"/><use xlink:href="#8" y="13.026"/><use xlink:href="#9" y="15.197"/></svg><svg x="3060"><use xlink:href="#a"/><use xlink:href="#3"/><use xlink:href="#4" y="2.171"/><use xlink:href="#5" y="6.513"/><use xlink:href="#6" y="8.684"/><use xlink:href="#16" y="10.855"/><use xlink:href="#8" y="13.026"/><use xlink:href="#9" y="15.197"/></svg><svg x="3150"><use xlink:href="#a"/><use xlink:href="#3"/><use xlink:href="#4" y="2.171"/><use xlink:href="#5" y="6.513"/><use xlink:href="#6" y="8.684"/><use xlink:href="#17" y="10.855"/><use xlink:href="#8" y="13.026"/><use xlink:href="#9" y="15.197"/></svg><svg x="3240"><use xlink:href="#a"/><use xlink:href="#3"/><use xlink:href="#4" y="2.171"/><use xlink:href="#5" y="6.513"/><use xlink:href="#6" y="8.684"/><use xlink:href="#17" y="10.855"/><use xlink:href="#8" y="13.026"/><use xlink:href="#9" y="15.197"/></svg><svg x="3330"><use xlink:href="#a"/><use xlink:href="#3"/><use xlink:href="#4" y="2.171"/><use xlink:href="#5" y="6.513"/><use xlink:href="#6" y="8.684"/><use xlink:href="#18" y="10.855"/><use xlink:href="#8" y="13.026"/><use xlink:href="#9" y="15.197"/></svg><svg x="3420"><use xlink:href="#a"/><use xlink:href="#3"/><use xlink:href="#4" y="2.171"/><use xlink:href="#5" y="6.513"/><use xlink:href="#6" y="8.684"/><use xlink:href="#18" y="10.855"/><use xlink:href="#8" y="13.026"/><use xlink:href="#9" y="15.197"/></svg><svg x="3510"><use xlink:href="#a"/><use xlink:href="#3"/><use xlink:href="#4" y="2.171"/><use xlink:href="#5" y="6.513"/><use xlink:href="#6" y="8.684"/><use xlink:href="#7" y="10.855"/><use xlink:href="#8" y="13.026"/><use xlink:href="#9" y="15.197"/></svg><svg x="3600"><use xlink:href="#a"/><use xlink:href="#3"/><use xlink:href="#4" y="2.171"/><use xlink:href="#5" y="6.513"/><use xlink:href="#6" y="8.684"/><use xlink:href="#7" y="10.855"/><use xlink:href="#8" y="13.026"/><use xlink:href="#9" y="15.197"/></svg><svg x="3690"><use xlink:href="#a"/><use xlink:href="#3"/><use xlink:href="#4" y="2.171"/><use xlink:href="#5" y="6.513"/><use xlink:href="#6" y="8.684"/><use xlink:href="#10" y="10.855"/><use xlink:href="#8" y="13.026"/><use xlink:href="#9" y="15.197"/></svg><svg x="3780"><use xlink:href="#a"/><use xlink:href="#3"/><use xlink:href="#4" y="2.171"/><use xlink:href="#5" y="6.513"/><use xlink:href="#6" y="8.684"/><use xlink:href="#10" y="10.855"/><use xlink:href="#8" y="13.026"/><use xlink:href="#9" y="15.197"/></svg><svg x="3870"><use xlink:href="#a"/><use xlink:href="#3"/><use xlink:href="#4" y="2.171"/><use xlink:href="#5" y="6.513"/><use xlink:href="#6" y="8.684"/><use xlink:href="#19" y="10.855"/><use xlink:href="#8" y="13.026"/><use xlink:href="#20" y="15.197"/></svg><svg x="3960"><use xlink:href="#a"/><use xlink:href="#3"/><use xlink:href="#4" y="2.171"/><use xlink:href="#5" y="6.513"/><use xlink:href="#6" y="8.684"/><use xlink:href="#19" y="10.855"/><use xlink:href="#8" y="13.026"/><use xlink:href="#20" y="15.197"/></svg><svg x="4050"><use xlink:href="#a"/><use xlink:href="#3"/><use xlink:href="#4" y="2.171"/><use xlink:href="#5" y="6.513"/><use xlink:href="#6" y="8.684"/><use xlink:href="#19" y="10.855"/><use xlink:href="#8" y="13.026"/><use xlink:href="#21" y="15.197"/></svg><svg x="4140"><use xlink:href="#a"/><use xlink:href="#3"/><use xlink:href="#4" y="2.171"/><use xlink:href="#5" y="6.513"/><use xlink:href="#6" y="8.684"/><use xlink:href="#19" y="10.855"/><use xlink:href="#8" y="13.026"/><use xlink:href="#21" y="15.197"/></svg><svg x="4230"><use xlink:href="#a"/><use xlink:href="#3"/><use xlink:href="#4" y="2.171"/><use xlink:href="#5" y="6.513"/><use xlink:href="#6" y="8.684"/><use xlink:href="#19" y="10.855"/><use xlink:href="#8" y="13.026"/><use xlink:href="#22" y="15.197"/></svg><svg x="4320"><use xlink:href="#a"/><use xlink:href="#3"/><use xlink:href="#4" y="2.171"/><use xlink:href="#5" y="6.513"/><use xlink:href="#6" y="8.684"/><use xlink:href="#19" y="10.855"/><use xlink:href="#8" y="13.026"/><use xlink:href="#22" y="15.197"/></svg><svg x="4410"><use xlink:href="#a"/><use xlink:href="#3"/><use xlink:href="#4" y="2.171"/><use xlink:href="#5" y="6.513"/><use xlink:href="#6" y="8.684"/><use xlink:href="#19" y="10.855"/><use xlink:href="#8" y="13.026"/><use xlink:href="#23" y="15.197"/></svg><svg x="4500"><use xlink:href="#a"/><use xlink:href="#b" x="-.004" y="17.343"/><use xlink:href="#3"/><use xlink:href="#4" y="2.171"/><use xlink:href="#5" y="6.513"/><use xlink:href="#6" y="8.684"/><use xlink:href="#19" y="10.855"/><use xlink:href="#8" y="13.026"/><use xlink:href="#23" y="15.197"/></svg><svg x="4590"><use xlink:href="#a"/><use xlink:href="#b" x="-.004" y="21.685"/><use xlink:href="#4"/><use xlink:href="#5" y="4.342"/><use xlink:href="#6" y="6.513"/><use xlink:href="#19" y="8.684"/><use xlink:href="#8" y="10.855"/><use xlink:href="#23" y="13.026"/><use xlink:href="#24" y="19.539"/></svg><svg x="4680"><use xlink:href="#a"/><use xlink:href="#b" x="-.004" y="21.685"/><use xlink:href="#4"/><use xlink:href="#5" y="4.342"/><use xlink:href="#6" y="6.513"/><use xlink:href="#19" y="8.684"/><use xlink:href="#8" y="10.855"/><use xlink:href="#23" y="13.026"/><use xlink:href="#24" y="19.539"/></svg><svg x="4770"><use xlink:href="#a"/><use xlink:href="#b" x="9.996" y="21.685"/><use xlink:href="#4"/><use xlink:href="#5" y="4.342"/><use xlink:href="#6" y="6.513"/><use xlink:href="#19" y="8.684"/><use xlink:href="#8" y="10.855"/><use xlink:href="#23" y="13.026"/><use xlink:href="#24" y="19.539"/><use xlink:href="#25" y="21.71"/></svg><svg x="4860"><use xlink:href="#a"/><use xlink:href="#b" x="-.004" y="21.685"/><use xlink:href="#5" y="2.171"/><use xlink:href="#6" y="4.342"/><use xlink:href="#19" y="6.513"/><use xlink:href="#8" y="8.684"/><use xlink:href="#23" y="10.855"/><use xlink:href="#24" y="17.368"/><use xlink:href="#25" y="19.539"/></svg><svg x="4950"><use xlink:href="#a"/><use xlink:href="#b" x="9.996" y="21.685"/><use xlink:href="#5" y="2.171"/><use xlink:href="#6" y="4.342"/><use xlink:href="#19" y="6.513"/><use xlink:href="#8" y="8.684"/><use xlink:href="#23" y="10.855"/><use xlink:href="#24" y="17.368"/><use xlink:href="#25" y="19.539"/><use xlink:href="#25" y="21.71"/></svg></svg></g></g></svg></svg>