<?xml version="1.0" encoding="UTF-8"?>
<svg width="1920px" height="1080px" viewBox="0 0 1920 1080" version="1.1" xmlns="http://www.w3.org/2000/svg" xmlns:xlink="http://www.w3.org/1999/xlink">
    <title>Artboard</title>
    <defs>
        <linearGradient x1="50%" y1="-14.329275%" x2="50%" y2="100%" id="linearGradient-1">
            <stop stop-color="#FFFFFF" offset="0%"></stop>
            <stop stop-color="#F4F4F4" offset="100%"></stop>
        </linearGradient>
        <circle id="path-2" cx="157.5" cy="157.5" r="157.5"></circle>
        <filter x="-5.6%" y="-4.0%" width="111.1%" height="111.1%" filterUnits="objectBoundingBox" id="filter-3">
            <feOffset dx="0" dy="5" in="SourceAlpha" result="shadowOffsetOuter1"></feOffset>
            <feGaussianBlur stdDeviation="5" in="shadowOffsetOuter1" result="shadowBlurOuter1"></feGaussianBlur>
            <feColorMatrix values="0 0 0 0 0   0 0 0 0 0   0 0 0 0 0  0 0 0 0.5 0" type="matrix" in="shadowBlurOuter1"></feColorMatrix>
        </filter>
    </defs>
    <g id="Artboard" stroke="none" stroke-width="1" fill="none" fill-rule="evenodd">
        <rect fill="#F4F5FA" x="0" y="0" width="1920" height="1080"></rect>
        <g id="Optic_with_font" transform="translate(547.000000, 383.000000)">
            <g id="Group">
                <g id="Oval" fill-rule="nonzero">
                    <use fill="black" fill-opacity="1" filter="url(#filter-3)" xlink:href="#path-2"></use>
                    <use fill="url(#linearGradient-1)" xlink:href="#path-2"></use>
                </g>
                <path d="M216.070312,82.8394875 C199.8801,70.4025 179.561025,63 157.499212,63 C135.4374,63 115.118325,70.4025 98.9281125,82.8394875 M171.116662,252 C190.659262,249.239813 208.300837,240.62535 222.179737,228.004875 C241.272675,210.642075 253.242675,185.69565 253.242675,157.976438 C253.242675,136.784812 246.245737,117.213862 234.419062,101.412675 M143.88255,252 C124.33995,249.239813 106.698375,240.62535 92.819475,228.004875 C73.7265375,210.642075 61.756065,185.69565 61.756065,157.976438 C61.756065,136.784812 68.7526875,117.213862 80.58015,101.412675" id="Shape" stroke="#343BE5" stroke-width="11.84211" stroke-linecap="round"></path>
                <path d="M117.183938,208.58355 C128.32785,217.093275 142.313063,222.157688 157.499213,222.157688 C172.684575,222.157688 186.670575,217.093275 197.8137,208.58355 M148.126388,92.8423125 C134.6751,94.7307375 122.53185,100.625175 112.978688,109.260113 C99.8368875,121.140338 91.597275,138.207825 91.597275,157.173975 C91.597275,171.674213 96.413625,185.064863 104.554013,195.875663 M166.87125,92.8423125 C180.323325,94.7307375 192.466575,100.625175 202.01895,109.260113 C215.16075,121.140338 223.400363,138.207825 223.400363,157.173975 C223.400363,171.674213 218.584013,185.064863 210.443625,195.875663" id="Shape" stroke="#343BE5" stroke-width="11.84211" stroke-linecap="round"></path>
            </g>
            <path d="M490.770788,143.325 C490.770788,117.054 469.791788,96.075 443.520788,96.075 C417.249788,96.075 396.270788,117.054 396.270788,143.325 L396.270788,181.125 C396.270788,207.396 417.249788,228.375 443.520788,228.375 C469.791788,228.375 490.770788,207.396 490.770788,181.125 L490.770788,143.325 Z M475.650788,181.125 C475.650788,198.702 461.097788,213.255 443.520788,213.255 C425.943788,213.255 411.390788,198.702 411.390788,181.125 L411.390788,143.325 C411.390788,125.748 425.943788,111.195 443.520788,111.195 C461.097788,111.195 475.650788,125.748 475.650788,143.325 L475.650788,181.125 Z" id="Shape" fill="#21269E" fill-rule="nonzero"></path>
            <path d="M530.526938,215.712 C539.031938,223.839 549.993938,228.375 562.656938,228.375 C588.927937,228.375 609.906938,207.396 609.906938,181.125 C609.906938,154.854 588.927937,133.875 562.656938,133.875 C549.993938,133.875 539.031938,138.411 530.526938,146.538 L530.526938,141.435 C530.526938,137.088 527.313938,133.875 522.966938,133.875 C518.619937,133.875 515.406938,137.088 515.406938,141.435 L515.406938,181.125 L515.406938,268.065 C515.406938,272.412 518.619937,275.625 522.966938,275.625 C527.313938,275.625 530.526938,272.412 530.526938,268.065 L530.526938,215.712 Z M562.656938,213.255 C545.079938,213.255 530.526938,198.702 530.526938,181.125 C530.526938,163.548 545.079938,148.995 562.656938,148.995 C580.233938,148.995 594.786938,163.548 594.786938,181.125 C594.786938,198.702 580.233938,213.255 562.656938,213.255 Z" id="Shape" fill="#21269E" fill-rule="nonzero"></path>
            <path d="M649.663088,148.995 L670.453088,148.995 C674.800088,148.995 678.013088,145.782 678.013088,141.435 C678.013088,137.088 674.800088,133.875 670.453088,133.875 L649.663088,133.875 L649.663088,103.635 C649.663088,99.288 646.450088,96.075 642.103088,96.075 C637.756088,96.075 634.543088,99.288 634.543088,103.635 L634.543088,200.025 C634.543088,215.712 647.206088,228.375 662.893088,228.375 C670.642088,228.375 677.824088,225.162 682.927088,220.059 C685.951088,217.035 685.951088,212.31 682.927088,209.286 C679.903088,206.451 675.178088,206.451 672.343088,209.286 C669.697088,211.932 666.484088,213.255 662.893088,213.255 C655.522088,213.255 649.663088,207.396 649.663088,200.025 L649.663088,148.995 Z" id="Path" fill="#21269E" fill-rule="nonzero"></path>
            <path d="M723.070688,104.58 C723.070688,99.855 719.290687,96.075 714.565688,96.075 C709.840688,96.075 706.060688,99.855 706.060688,104.58 C706.060688,109.305 709.840688,113.085 714.565688,113.085 C719.290687,113.085 723.070688,109.305 723.070688,104.58 Z M707.005688,220.815 C707.005688,225.162 710.218687,228.375 714.565688,228.375 C718.912688,228.375 722.125688,225.162 722.125688,220.815 L722.125688,141.435 C722.125688,137.088 718.912688,133.875 714.565688,133.875 C710.218687,133.875 707.005688,137.088 707.005688,141.435 L707.005688,220.815 Z" id="Shape" fill="#21269E" fill-rule="nonzero"></path>
            <path d="M824.68575,214.578 C827.52075,211.554 827.52075,206.829 824.68575,203.805 C821.66175,200.97 816.93675,200.97 813.91275,203.805 C808.05375,209.664 800.11575,213.255 791.23275,213.255 C773.65575,213.255 759.1059,198.702 759.1059,181.125 C759.1059,163.548 773.65575,148.995 791.23275,148.995 C800.11575,148.995 808.05375,152.586 813.91275,158.445 C816.93675,161.28 821.66175,161.28 824.68575,158.445 C827.52075,155.421 827.52075,150.696 824.68575,147.672 C815.80275,139.167 804.27375,133.875 791.23275,133.875 C764.9649,133.875 743.9859,154.854 743.9859,181.125 C743.9859,207.396 764.9649,228.375 791.23275,228.375 C804.27375,228.375 815.80275,223.083 824.68575,214.578 Z" id="Path" fill="#21269E" fill-rule="nonzero"></path>
        </g>
    </g>
</svg>