<?xml version="1.0" encoding="utf-8"?>
<!-- Generator: Adobe Illustrator 25.3.1, SVG Export Plug-In . SVG Version: 6.00 Build 0)  -->
<svg version="1.1" id="Layer_1" xmlns="http://www.w3.org/2000/svg" xmlns:xlink="http://www.w3.org/1999/xlink" x="0px" y="0px"
	 viewBox="0 0 1467.4 580.4" style="enable-background:new 0 0 1467.4 580.4;" xml:space="preserve">
<style type="text/css">
	.st0{fill-rule:evenodd;clip-rule:evenodd;fill:#FFFFFF;stroke:#A6AEA8;}
	.st1{fill-rule:evenodd;clip-rule:evenodd;fill:#E4E8ED;}
	.st2{fill:#FBF9F9;stroke:#A6AEA8;stroke-width:0.5;}
	.st3{fill:none;stroke:#868686;stroke-width:5.8929;stroke-linecap:round;enable-background:new    ;}
	.st4{fill:none;stroke:#C6C6C5;stroke-width:5.8929;stroke-linecap:round;enable-background:new    ;}
	.st5{fill:#6C737C;}
	.st6{fill:#3C3C3B;}
	.st7{fill:#54A158;}
	.st8{fill:none;stroke:#FFFFFF;stroke-width:5;stroke-linecap:round;stroke-miterlimit:10;}
	.st9{fill:none;stroke:#296EF6;stroke-width:5.8929;stroke-linecap:round;enable-background:new    ;}
	.st10{fill:none;stroke:#54A158;stroke-width:3.3865;stroke-linecap:round;stroke-miterlimit:10;}
</style>
<path class="st0" d="M1458.6,579.9H99.4c-4.6,0-8.3-3.7-8.3-8.3V8.8c0-4.6,3.7-8.3,8.3-8.3h1359.3c4.6,0,8.3,3.7,8.3,8.3v562.8
	C1466.9,576.2,1463.2,579.9,1458.6,579.9z"/>
<rect x="91.5" y="147.3" class="st1" width="1374.9" height="73.4"/>
<path class="st1" d="M1458.3,579.5H99.8c-4.6,0-8.3-3.7-8.3-8.3V366.7h1375v204.5C1466.5,575.8,1462.8,579.5,1458.3,579.5z"/>
<line class="st2" x1="91" y1="147.2" x2="1466.9" y2="147.2"/>
<line class="st2" x1="91" y1="220.4" x2="1466.9" y2="220.4"/>
<line class="st2" x1="91" y1="366.8" x2="1466.9" y2="366.8"/>
<line class="st2" x1="91" y1="440" x2="1466.9" y2="440"/>
<line class="st2" x1="91.1" y1="513.2" x2="1467.1" y2="513.2"/>
<path class="st3" d="M240.5,183.9l232.9,0.1"/>
<path class="st3" d="M293.2,404.4l500.5,0.1"/>
<path class="st4" d="M825.1,404.4l232.9,0.1"/>
<path class="st3" d="M293.2,477.7l545.3,0.1"/>
<path class="st4" d="M879.3,477.7l232.9,0.1"/>
<path class="st3" d="M293.2,550.8l545.3,0.1"/>
<path class="st4" d="M879.3,550.8l232.9,0.1"/>
<path class="st5" d="M59.4,65H5.5C2.5,65,0,62.5,0,59.4V5.5C0,2.5,2.5,0,5.5,0h53.9C62.5,0,65,2.5,65,5.5v53.9
	C65,62.5,62.5,65,59.4,65z"/>
<path class="st6" d="M255.7,417.8h-16.9c-3.1,0-5.5-2.5-5.5-5.5v-16.9c0-3.1,2.5-5.5,5.5-5.5h16.9c3.1,0,5.5,2.5,5.5,5.5v16.9
	C261.2,415.4,258.8,417.8,255.7,417.8z"/>
<path class="st6" d="M255.7,490.4h-16.9c-3.1,0-5.5-2.5-5.5-5.5V468c0-3.1,2.5-5.5,5.5-5.5h16.9c3.1,0,5.5,2.5,5.5,5.5v16.9
	C261.2,487.9,258.8,490.4,255.7,490.4z"/>
<path class="st6" d="M255.7,561.8h-16.9c-3.1,0-5.5-2.5-5.5-5.5v-16.9c0-3.1,2.5-5.5,5.5-5.5h16.9c3.1,0,5.5,2.5,5.5,5.5v16.9
	C261.2,559.3,258.8,561.8,255.7,561.8z"/>
<g>
	<circle class="st7" cx="169.2" cy="74.2" r="37.3"/>
	<polyline class="st8" points="149.6,75.5 161.5,87.4 188.8,60.9 	"/>
</g>
<path class="st4" d="M240.5,87.5l642.8,0.1"/>
<path class="st3" d="M240.5,61.8l257.6,0.1"/>
<path class="st9" d="M915.1,87.3l154.4,0.1"/>
<path class="st9" d="M1260.4,33l172.8,0.1"/>
<path class="st9" d="M1260.4,249.9l172.8,0.1"/>
<path class="st9" d="M1342.9,404.4l90.3,0.1"/>
<path class="st9" d="M1342.9,479.8l90.3,0.1"/>
<path class="st9" d="M1342.9,550.5l90.3,0.1"/>
<g>
	<circle class="st7" cx="169.2" cy="296.3" r="37.3"/>
	<polyline class="st8" points="149.6,297.6 161.5,309.5 188.8,283 	"/>
</g>
<g>
	<path class="st4" d="M240.5,309.5l308.1,0.1"/>
	<path class="st3" d="M240.5,283.9l352.8,0.1"/>
</g>
<circle class="st5" cx="169.6" cy="184" r="16.3"/>
<polyline class="st10" points="152.6,405.7 160.7,413.7 179.2,395.8 "/>
<polyline class="st10" points="152.6,478.3 160.7,486.4 179.2,468.4 "/>
<polyline class="st10" points="152.6,550.4 160.7,558.5 179.2,540.6 "/>
</svg>
