<?xml version="1.0" encoding="UTF-8"?>
<svg width="839px" height="550px" viewBox="0 0 839 550" version="1.1" xmlns="http://www.w3.org/2000/svg" xmlns:xlink="http://www.w3.org/1999/xlink">
    <title>Adopt OpenAPI</title>
    <defs>
        <filter x="-8.3%" y="-8.3%" width="116.7%" height="116.7%" filterUnits="objectBoundingBox" id="filter-1">
            <feOffset dx="0" dy="2" in="SourceAlpha" result="shadowOffsetOuter1"></feOffset>
            <feGaussianBlur stdDeviation="2" in="shadowOffsetOuter1" result="shadowBlurOuter1"></feGaussianBlur>
            <feColorMatrix values="0 0 0 0 0   0 0 0 0 0   0 0 0 0 0  0 0 0 0.5 0" type="matrix" in="shadowBlurOuter1" result="shadowMatrixOuter1"></feColorMatrix>
            <feMerge>
                <feMergeNode in="shadowMatrixOuter1"></feMergeNode>
                <feMergeNode in="SourceGraphic"></feMergeNode>
            </feMerge>
        </filter>
        <filter x="-4.9%" y="-4.9%" width="109.8%" height="109.8%" filterUnits="objectBoundingBox" id="filter-2">
            <feOffset dx="0" dy="2" in="SourceAlpha" result="shadowOffsetOuter1"></feOffset>
            <feGaussianBlur stdDeviation="2" in="shadowOffsetOuter1" result="shadowBlurOuter1"></feGaussianBlur>
            <feColorMatrix values="0 0 0 0 0   0 0 0 0 0   0 0 0 0 0  0 0 0 0.5 0" type="matrix" in="shadowBlurOuter1" result="shadowMatrixOuter1"></feColorMatrix>
            <feMerge>
                <feMergeNode in="shadowMatrixOuter1"></feMergeNode>
                <feMergeNode in="SourceGraphic"></feMergeNode>
            </feMerge>
        </filter>
        <linearGradient x1="50%" y1="-14.329275%" x2="50%" y2="100%" id="linearGradient-3">
            <stop stop-color="#FFFFFF" offset="0%"></stop>
            <stop stop-color="#F4F4F4" offset="100%"></stop>
        </linearGradient>
    </defs>
    <g id="Adopt-OpenAPI" stroke="none" stroke-width="1" fill="none" fill-rule="evenodd">
        <g id="world" filter="url(#filter-1)" transform="translate(676.000000, 394.000000)" fill-rule="nonzero">
            <g id="Group" transform="translate(5.000000, 5.000000)" fill="#03AA6F">
                <path d="M119.087193,17.3620289 L111.619819,22.3449444 L99.1743854,19.8534867 L91.7070122,17.3620289 L81.7506085,19.8534867 L74.2832353,17.3620289 L79.2612961,7.39591556 L89.2176998,7.39591556 L98.9750487,2.51262444 C106.499939,6.23739333 113.307556,11.2651822 119.087193,17.3620289 Z" id="Path"></path>
                <path d="M61.8380832,7.39591556 L59.3490527,14.8705711 L51.8816795,17.3620289 L44.4143063,29.8196 L31.9688722,37.2942556 L14.5453773,39.7857133 L14.5453773,47.2603689 L19.5234381,52.2432844 L19.5234381,62.2093978 L12.0566288,57.2262 L4.58925558,52.2432844 L0.258263692,39.2128022 C7.71294929,21.4305444 21.9631278,7.37333778 39.8346369,0.170462222 L46.9036187,4.90445778 L61.8380832,7.39591556 Z" id="Path"></path>
                <polygon id="Path" points="66.816426 77.1581444 64.3273955 89.6157156 54.3709919 99.5818289 54.3709919 107.056484 44.4145882 114.530858 44.4145882 126.988429 36.947497 124.496971 31.9691542 112.0394 31.9691542 87.1242578 19.5237201 84.6328 14.5456592 74.6666867 14.5456592 67.1920311 19.5237201 62.2091156 26.9910933 54.73446 31.9691542 64.7005733 49.3926491 64.7005733 56.8600223 77.1581444"></polygon>
                <path d="M129.790193,31.8874422 C143.378077,56.1523444 141.829905,86.07298 125.807688,108.800336 L119.087193,102.073287 L119.087193,92.1071733 L114.109132,82.14106 L109.131071,72.1749467 L109.131071,62.2088333 L101.663698,57.2259178 L91.7072941,59.7173756 L74.2837992,52.24272 L71.7947688,34.8022333 L79.262142,27.3275778 L94.1966065,27.3275778 L99.1746673,34.8022333 L114.109132,37.2936911 L129.043596,32.3107756 L129.790193,31.8874422 Z" id="Path"></path>
            </g>
            <path d="M87.0128334,24.8354097 L96.9583733,22.3518814 L104.417599,24.8354097 L116.849453,27.3189381 L124.308678,22.3518814 C128.473283,26.7056517 132.06616,31.5708691 135,36.8310654 L134.254218,37.2533327 L119.336049,42.2203894 L104.41788,39.7368611 L99.4452511,32.2859947 L84.5270821,32.2859947 L77.0678568,39.7368611 L79.5541713,57.1218408 L96.9586549,64.5727071 L106.904195,62.0891788 L114.36342,67.0562355 L114.36342,76.9906302 L119.336049,86.9250248 L124.308678,96.8594195 L124.308678,106.793814 L131.02184,113.499453 C108.060325,145.999691 63.0692411,153.751011 30.5350771,130.814946 C2.90397729,111.33354 -7.46176892,75.2891826 5.60912584,44.13283 L9.93539204,57.1218408 L17.3946174,62.0888975 L24.8538427,67.0559541 L19.8809319,72.0232921 L19.8809319,79.4741585 L24.8535611,89.4085532 L37.2854155,91.8920815 L37.2854155,116.727928 L42.2580447,129.145851 L49.71727,131.629379 L49.71727,119.211456 L59.6628099,111.76059 L59.6628099,104.309723 L69.6083498,94.3753285 L72.0946643,81.9574055 L62.1491244,81.9574055 L54.6898991,69.5394825 L37.2854155,69.5394825 L32.3127864,59.6050878 L24.8535611,67.0559541 L24.8535611,57.1215595 L19.8809319,52.1547841 L19.8809319,44.7039178 L37.2854155,42.2203894 L49.71727,34.7695231 L57.1764953,22.3516001 L64.6357207,19.8680717 L67.1220352,12.4172054 L52.2038662,9.93367703 L45.1425976,5.21474813 C64.2628298,-2.47693157 85.7648882,-1.62761439 104.218761,7.54945607 L94.4720587,12.4172054 L84.5265188,12.4172054 L79.5538897,22.3516001 L87.0128334,24.8354097 Z" id="Path" fill="#86DAF1"></path>
        </g>
        <path d="M377.473907,153.3 C516.812035,207.131882 607.347257,255.691619 649.079574,298.979209 C727.014231,379.818323 729.616928,433.103438 729.616928,433.103438" id="Path-3" stroke="#F5A623" stroke-width="4" stroke-dasharray="10,5"></path>
        <g id="rocket" filter="url(#filter-2)" transform="translate(349.000000, 153.000000) scale(-1, 1) rotate(26.000000) translate(-349.000000, -153.000000) translate(226.000000, 30.000000)">
            <path d="M59.9448,201.1752 L44.5848,185.8152 C43.1112,184.34256 40.89264,183.90912 38.97312,184.71936 C2.97984,199.91568 0,219.8424 0,240.63984 C0,243.46752 2.29248,245.76 5.12016,245.76 C25.9176,245.76 45.8448,242.78016 61.03056,206.7864 C61.84368,204.86928 61.41408,202.65072 59.9448,201.1752 Z" id="Path" fill="#FFC107" fill-rule="nonzero"></path>
            <path d="M90.6648,190.93488 L54.82464,155.09472 C53.78496,154.0224 52.31904,153.47376 50.83104,153.59952 C49.35024,153.70944 47.9904,154.4568 47.10384,155.64768 L31.74384,176.12784 C30.70176,177.51792 30.43584,179.34144 31.03728,180.97152 C33.6744,187.40688 37.55808,193.25664 42.46512,198.1848 L47.58528,203.30496 C52.51344,208.212 58.36368,212.09568 64.79856,214.7328 C65.36304,214.93776 65.9592,215.04192 66.55968,215.040026 C67.66752,215.040026 68.7456,214.68048 69.63168,214.01616 L90.11184,198.65616 C92.3736,196.95936 92.83152,193.75008 91.13472,191.48784 C90.99072,191.29632 90.83376,191.11488 90.6648,190.94544 L90.6648,190.93488 Z" id="Path" fill="#1B2958" fill-rule="nonzero"></path>
            <g id="Group" transform="translate(10.080000, 92.160000)" fill="#1B2958" fill-rule="nonzero">
                <path d="M140.69376,67.10256 C138.96144,66.23712 136.8888,66.42336 135.3384,67.584 L94.37856,98.304 C93.08928,99.27072 92.3304,100.78848 92.3304,102.39984 L92.3304,138.24 C92.3304,141.06768 94.62288,143.36016 97.45056,143.36016 C98.5584,143.36016 99.63648,143.00064 100.52256,142.33632 L141.4824,111.61632 C142.77168,110.6496 143.53056,109.13184 143.53056,107.52048 L143.53056,71.68032 C143.52816,69.74016 142.42992,67.968 140.69376,67.10256 Z" id="Path"></path>
                <path d="M76.41744,2.82624 C75.5496,1.09392 73.77792,0 71.84016,0 L36,0 C34.38864,0 32.87088,0.75888 31.90416,2.04816 L1.18416,43.008 C-0.51264,45.27024 -0.05424,48.47952 2.208,50.17584 C3.09408,50.84064 4.17216,51.19968 5.28,51.19968 L41.12016,51.19968 C42.73152,51.19968 44.24928,50.4408 45.216,49.15152 L75.936,8.19168 C77.10048,6.63936 77.28672,4.56144 76.41744,2.82624 Z" id="Path"></path>
            </g>
            <path d="M240.63984,0 C188.8152,0 141.312,10.7112 41.98416,145.40784 C40.71216,147.13056 40.64688,149.46336 41.82048,151.25472 C48.08112,160.65792 55.15344,169.49472 62.95584,177.66384 L68.076,182.784 C76.24512,190.5864 85.08192,197.65872 94.48512,203.91936 C96.27696,205.1088 98.6208,205.0512 100.35264,203.77584 C235.0488,104.448 245.76,56.9448 245.76,5.12016 C245.76,2.29248 243.46752,0 240.63984,0 Z" id="Path" fill="#CFD8DC" fill-rule="nonzero"></path>
            <g id="Group-2" transform="translate(143.520000, 35.040000)">
                <circle id="Oval" fill="url(#linearGradient-3)" fill-rule="nonzero" cx="33.6" cy="33.6" r="33.6"></circle>
                <path d="M46.095,17.672424 C42.641088,15.0192 38.306352,13.44 33.599832,13.44 C28.893312,13.44 24.558576,15.0192 21.104664,17.672424 M36.504888,53.76 C40.673976,53.17116 44.437512,51.333408 47.398344,48.64104 C51.471504,44.936976 54.025104,39.615072 54.025104,33.70164 C54.025104,29.18076 52.532424,25.005624 50.0094,21.634704 M30.694944,53.76 C26.525856,53.17116 22.76232,51.333408 19.801488,48.64104 C15.728328,44.936976 13.1746272,39.615072 13.1746272,33.70164 C13.1746272,29.18076 14.66724,25.005624 17.190432,21.634704" id="Shape" stroke="#343BE5" stroke-width="2.5263168" stroke-linecap="round"></path>
                <path d="M24.99924,44.497824 C27.376608,46.313232 30.36012,47.39364 33.599832,47.39364 C36.839376,47.39364 39.823056,46.313232 42.200256,44.497824 M31.600296,19.80636 C28.730688,20.209224 26.140128,21.466704 24.10212,23.308824 C21.298536,25.843272 19.540752,29.484336 19.540752,33.530448 C19.540752,36.623832 20.56824,39.480504 22.304856,41.786808 M35.5992,19.80636 C38.468976,20.209224 41.059536,21.466704 43.097376,23.308824 C45.90096,25.843272 47.658744,29.484336 47.658744,33.530448 C47.658744,36.623832 46.631256,39.480504 44.89464,41.786808" id="Shape" stroke="#343BE5" stroke-width="2.5263168" stroke-linecap="round"></path>
            </g>
        </g>
    </g>
</svg>