<?xml version="1.0" encoding="utf-8"?>
<!-- Generator: Adobe Illustrator 25.3.1, SVG Export Plug-In . SVG Version: 6.00 Build 0)  -->
<svg version="1.1" id="Layer_1" xmlns="http://www.w3.org/2000/svg" xmlns:xlink="http://www.w3.org/1999/xlink" x="0px" y="0px"
	 viewBox="0 0 1007.4 327.6" style="enable-background:new 0 0 1007.4 327.6;" xml:space="preserve">
<style type="text/css">
	.st0{fill-rule:evenodd;clip-rule:evenodd;fill:#F6F8F9;stroke:#A6AEA8;stroke-width:0.5;}
	.st1{fill-rule:evenodd;clip-rule:evenodd;fill:#F6F8F9;stroke:#A6AEA8;stroke-width:0.3;}
	.st2{fill-rule:evenodd;clip-rule:evenodd;fill:#FFFFFF;stroke:#A6AEA8;stroke-width:0.3;}
	.st3{fill-rule:evenodd;clip-rule:evenodd;fill:#EDEFF5;stroke:#A6AEA8;stroke-width:0.3;}
	.st4{fill:#FBF9F9;stroke:#A6AEA8;stroke-width:0.5;}
	.st5{fill:none;stroke:#C6C6C5;stroke-width:10;stroke-linecap:round;enable-background:new    ;}
	.st6{fill:none;stroke:#868686;stroke-width:10;stroke-linecap:round;enable-background:new    ;}
	.st7{fill:none;stroke:#C6C6C5;stroke-width:6.5;stroke-linecap:round;enable-background:new    ;}
	.st8{fill:none;stroke:#868686;stroke-width:6.5;stroke-linecap:round;enable-background:new    ;}
	.st9{fill:none;stroke:#D9D9D9;stroke-width:6.5;stroke-linecap:round;enable-background:new    ;}
	.st10{fill:#F6F8F9;stroke:#A6AEA8;stroke-width:1.086;}
</style>
<path class="st0" d="M985.2,327.4H22.1c-12.1,0-21.9-9.8-21.9-21.9V22.1c0-12.1,9.8-21.9,21.9-21.9h963.1c12.1,0,21.9,9.8,21.9,21.9
	v283.3C1007.1,317.6,997.3,327.4,985.2,327.4z"/>
<path class="st1" d="M971.5,119H62.2c-5.4,0-9.7-4.4-9.7-9.7V55.9c0-5.4,4.4-9.7,9.7-9.7h909.2c5.4,0,9.7,4.4,9.7,9.7v53.3
	C981.2,114.6,976.8,119,971.5,119z"/>
<path class="st2" d="M971.5,212.2H62.2c-5.4,0-9.7-4.4-9.7-9.7v-53.3c0-5.4,4.4-9.7,9.7-9.7h909.2c5.4,0,9.7,4.4,9.7,9.7v53.3
	C981.2,207.8,976.8,212.2,971.5,212.2z"/>
<path class="st2" d="M956,102.2h-63.8c-3.2,0-5.8-2.6-5.8-5.8V66.6c0-3.2,2.6-5.8,5.8-5.8H956c3.2,0,5.8,2.6,5.8,5.8v29.8
	C961.8,99.6,959.2,102.2,956,102.2z"/>
<path class="st3" d="M956,197.4h-63.8c-3.2,0-5.8-2.6-5.8-5.8v-29.8c0-3.2,2.6-5.8,5.8-5.8H956c3.2,0,5.8,2.6,5.8,5.8v29.8
	C961.8,194.8,959.2,197.4,956,197.4z"/>
<path class="st2" d="M869.8,197.4h-63.8c-3.2,0-5.8-2.6-5.8-5.8v-29.8c0-3.2,2.6-5.8,5.8-5.8h63.8c3.2,0,5.8,2.6,5.8,5.8v29.8
	C875.7,194.8,873,197.4,869.8,197.4z"/>
<line class="st4" x1="28.5" y1="55.8" x2="28.5" y2="312.1"/>
<path class="st5" d="M76.1,94.9L239.7,95"/>
<path class="st6" d="M76.1,73.5l342.3,0.1"/>
<path class="st7" d="M76.1,185.7l129.8,0.1"/>
<path class="st8" d="M76.1,164.3l342.3,0.1"/>
<path class="st2" d="M971.5,301.9H62.2c-5.4,0-9.7-4.4-9.7-9.7v-53.3c0-5.4,4.4-9.7,9.7-9.7h909.2c5.4,0,9.7,4.4,9.7,9.7v53.3
	C981.2,297.5,976.8,301.9,971.5,301.9z"/>
<path class="st3" d="M956,287h-63.8c-3.2,0-5.8-2.6-5.8-5.8v-29.8c0-3.2,2.6-5.8,5.8-5.8H956c3.2,0,5.8,2.6,5.8,5.8v29.8
	C961.8,284.4,959.2,287,956,287z"/>
<path class="st2" d="M869.8,287h-63.8c-3.2,0-5.8-2.6-5.8-5.8v-29.8c0-3.2,2.6-5.8,5.8-5.8h63.8c3.2,0,5.8,2.6,5.8,5.8v29.8
	C875.7,284.4,873,287,869.8,287z"/>
<path class="st7" d="M76.1,275.4l129.8,0.1"/>
<path class="st8" d="M76.1,254l342.3,0.1"/>
<path class="st9" d="M902.5,81.9l43.1,0.1"/>
<path class="st9" d="M902.5,176.3l43.1,0.1"/>
<path class="st9" d="M816.5,176.3l43.1,0.1"/>
<path class="st9" d="M902.5,266.9l43.1,0.1"/>
<path class="st9" d="M816.5,266.9l43.1,0.1"/>
<circle class="st10" cx="28" cy="33.7" r="10"/>
<polyline class="st10" points="27.6,27 27.6,34.1 32.5,39 "/>
</svg>
