<?xml version="1.0" encoding="utf-8"?>
<!-- Generator: Adobe Illustrator 25.3.1, SVG Export Plug-In . SVG Version: 6.00 Build 0)  -->
<svg version="1.1" id="Layer_1" xmlns="http://www.w3.org/2000/svg" xmlns:xlink="http://www.w3.org/1999/xlink" x="0px" y="0px"
	 viewBox="0 0 1518.3 579.2" style="enable-background:new 0 0 1518.3 579.2;" xml:space="preserve">
<style type="text/css">
	.st0{fill-rule:evenodd;clip-rule:evenodd;fill:#F6F8F9;stroke:#A6AEA8;stroke-width:0.7525;}
	.st1{fill:none;stroke:#868686;stroke-width:6.5;stroke-linecap:round;enable-background:new    ;}
	.st2{fill-rule:evenodd;clip-rule:evenodd;fill:#F9BEC1;}
	.st3{fill:none;stroke:#C6C6C5;stroke-width:6.5;stroke-linecap:round;enable-background:new    ;}
	.st4{fill:#C86363;}
	.st5{fill-rule:evenodd;clip-rule:evenodd;fill:#C8EFD6;}
	.st6{fill:#1BC8A3;}
	.st7{fill-rule:evenodd;clip-rule:evenodd;fill:#FBE2B3;}
	.st8{fill:#C8B768;}
</style>
<path class="st0" d="M1496.1,578.9H22.3c-12.1,0-21.9-9.8-21.9-21.9V22.3c0-12.1,9.8-21.9,21.9-21.9h1473.8
	c12.1,0,21.9,9.8,21.9,21.9V557C1518,569.1,1508.2,578.9,1496.1,578.9z"/>
<path class="st1" d="M31.1,43.7l220.5,0.1"/>
<rect x="31" y="76.9" class="st2" width="1456.3" height="56.2"/>
<path class="st3" d="M59.4,105l380.2,0.1"/>
<path class="st1" d="M1283.9,105l163.9,0.1"/>
<rect x="28.3" y="76.9" class="st4" width="3.3" height="56.2"/>
<rect x="31" y="494.2" class="st5" width="1456.3" height="56.2"/>
<path class="st3" d="M59.4,522.2l351.7,0.1"/>
<path class="st1" d="M1283.9,522.2l163.9,0.1"/>
<rect x="28.3" y="494.2" class="st6" width="3.3" height="56.2"/>
<path class="st1" d="M31.1,176l96.3,0.1"/>
<path class="st1" d="M31.1,473.6l220.5,0.1"/>
<path class="st3" d="M59.4,237.2l144.2,0.1"/>
<path class="st1" d="M1283.9,237.2l163.9,0.1"/>
<path class="st3" d="M59.4,286.6l243.5,0.1"/>
<path class="st1" d="M1283.9,286.6l163.9,0.1"/>
<rect x="31" y="321" class="st7" width="1456.3" height="56.2"/>
<rect x="28.3" y="321" class="st8" width="3.3" height="56.2"/>
<rect x="31" y="376.6" class="st7" width="1456.3" height="56.2"/>
<rect x="28.3" y="376.7" class="st8" width="3.3" height="56.2"/>
<path class="st3" d="M59.4,350.9L209,351"/>
<path class="st1" d="M1283.9,350.9l163.9,0.1"/>
<path class="st3" d="M59.4,405.7l241.8,0.1"/>
<path class="st1" d="M1283.9,405.7l163.9,0.1"/>
</svg>
