<?xml version="1.0" encoding="utf-8"?>
<!-- Generator: Adobe Illustrator 25.3.1, SVG Export Plug-In . SVG Version: 6.00 Build 0)  -->
<svg version="1.1" id="Layer_1" xmlns="http://www.w3.org/2000/svg" xmlns:xlink="http://www.w3.org/1999/xlink" x="0px" y="0px"
	 viewBox="0 0 1518.4 630.9" style="enable-background:new 0 0 1518.4 630.9;" xml:space="preserve">
<style type="text/css">
	.st0{fill-rule:evenodd;clip-rule:evenodd;fill:#F6F8F9;stroke:#A6AEA8;stroke-width:0.7854;}
	.st1{fill-rule:evenodd;clip-rule:evenodd;fill:#FFFFFF;}
	.st2{fill:none;stroke:#C6C6C5;stroke-width:6.5;stroke-linecap:round;enable-background:new    ;}
	.st3{fill:none;stroke:#EA4A60;stroke-width:6.5;stroke-linecap:round;enable-background:new    ;}
	.st4{fill:none;stroke:#ECECEC;stroke-width:6.5;stroke-linecap:round;enable-background:new    ;}
	.st5{fill:none;stroke:#296EF6;stroke-width:6.5;stroke-linecap:round;enable-background:new    ;}
	.st6{fill:#FBF9F9;stroke:#A6AEA8;stroke-width:0.5;}
	.st7{fill:#FBF9F9;stroke:#3C3C3B;}
	.st8{fill:none;stroke:#1C6C5C;stroke-width:6.5;stroke-linecap:round;enable-background:new    ;}
	.st9{fill:#EA4A60;}
	.st10{fill:#31376F;}
	.st11{fill:none;stroke:#868686;stroke-width:6.5;stroke-linecap:round;enable-background:new    ;}
	.st12{fill:none;stroke:#F6F8F9;stroke-width:6.5;stroke-linecap:round;enable-background:new    ;}
	.st13{fill-rule:evenodd;clip-rule:evenodd;fill:#F6F8F9;stroke:#A6AEA8;stroke-width:0.5;}
	.st14{fill-rule:evenodd;clip-rule:evenodd;fill:#E4E8ED;}
	.st15{fill:none;stroke:#C6C6C5;stroke-width:3.502;stroke-linecap:round;enable-background:new    ;}
	.st16{fill:none;stroke:#868686;stroke-width:3.502;stroke-linecap:round;enable-background:new    ;}
	.st17{fill:none;stroke:#EA4A60;stroke-width:3.502;stroke-linecap:round;enable-background:new    ;}
	.st18{fill:none;stroke:#21269E;stroke-width:3.502;stroke-linecap:round;enable-background:new    ;}
	.st19{fill:none;stroke:#1C6C5C;stroke-width:3.502;stroke-linecap:round;enable-background:new    ;}
</style>
<path class="st0" d="M1496.1,630.5H22.3c-12.1,0-21.9-9.8-21.9-21.9V22.3c0-12.1,9.8-21.9,21.9-21.9h1473.8
	c12.1,0,21.9,9.8,21.9,21.9v586.3C1518,620.7,1508.2,630.5,1496.1,630.5z"/>
<path class="st1" d="M631.8,629.9H23.1c-12.4,0-22.4-10-22.4-22.4v-501h631.1V629.9z"/>
<path class="st2" d="M28.7,158.7l121.6,0.1"/>
<path class="st2" d="M65.3,259.9l121.6,0.1"/>
<path class="st2" d="M32.3,312.5l70.5,0"/>
<path class="st3" d="M343.3,312.5l121.6,0.1"/>
<path class="st4" d="M209.2,259.9l121.6,0.1"/>
<path class="st2" d="M28.7,27.8l74.9,0.1"/>
<path class="st5" d="M28.7,81.7l220.5,0.1"/>
<path class="st5" d="M29,133.4l137,0.1"/>
<line class="st6" x1="0.3" y1="54.4" x2="1518" y2="54.4"/>
<line class="st6" x1="0.3" y1="106.5" x2="631.5" y2="106.5"/>
<line class="st7" x1="26.9" y1="180.8" x2="597.6" y2="180.8"/>
<line class="st6" x1="631.7" y1="54.5" x2="631.7" y2="630.5"/>
<path class="st8" d="M28.7,225l256.9,0.1"/>
<path class="st9" d="M46.3,271.3H28.4c-1.1,0-2-0.9-2-2v-17.9c0-1.1,0.9-2,2-2h17.9c1.1,0,2,0.9,2,2v17.9
	C48.3,270.4,47.4,271.3,46.3,271.3z"/>
<path class="st10" d="M597.7,324.7H485.4c-1.1,0-2-0.9-2-2v-20.3c0-1.1,0.9-2,2-2h112.3c1.1,0,2,0.9,2,2v20.3
	C599.7,323.8,598.8,324.7,597.7,324.7z"/>
<path class="st11" d="M671,89.5l144.6,0.1"/>
<path class="st2" d="M139,27.8l74.9,0.1"/>
<path class="st2" d="M249.3,27.8l74.9,0.1"/>
<path class="st5" d="M951.9,27.8l398.7,0.1"/>
<path class="st5" d="M1401.6,27.8l74.9,0.1"/>
<path class="st12" d="M497.3,312.5l89.4,0.1"/>
<path class="st13" d="M1476,260.3H675c-4.6,0-8.3-3.7-8.3-8.3V131c0-4.6,3.7-8.3,8.3-8.3h801c4.6,0,8.3,3.7,8.3,8.3v121
	C1484.3,256.6,1480.6,260.3,1476,260.3z"/>
<rect x="667" y="162" class="st1" width="817.1" height="58.8"/>
<path class="st14" d="M675.1,122.9h800.6c4.6,0,8.3,3.7,8.3,8.3v30.5H666.9v-30.6C666.9,126.6,670.6,122.9,675.1,122.9z"/>
<path class="st15" d="M681.9,207.4l122.6,0"/>
<path class="st15" d="M681.9,142.9l40.3,0"/>
<path class="st16" d="M681.9,177.6l153.1,0"/>
<line class="st6" x1="666.6" y1="161.8" x2="1484.3" y2="161.8"/>
<line class="st6" x1="679.3" y1="191.6" x2="1469.7" y2="191.6"/>
<line class="st6" x1="666.6" y1="221.1" x2="1484.3" y2="221.1"/>
<path class="st16" d="M681.9,242.8l138.4,0"/>
<path class="st15" d="M842,242.8l138.4,0"/>
<path class="st15" d="M741.4,142.9l40.3,0"/>
<path class="st15" d="M800.8,142.9l40.3,0"/>
<path class="st11" d="M671,337l144.6,0.1"/>
<path class="st13" d="M1476,608.1H675c-4.6,0-8.3-3.7-8.3-8.3V375c0-4.6,3.7-8.3,8.3-8.3h801c4.6,0,8.3,3.7,8.3,8.3v224.8
	C1484.3,604.4,1480.6,608.1,1476,608.1z"/>
<path class="st14" d="M675.1,366.9h800.6c4.6,0,8.3,3.7,8.3,8.3v30.5H666.9v-30.6C666.9,370.6,670.6,366.9,675.1,366.9z"/>
<path class="st15" d="M694.8,441.5l8,0"/>
<path class="st15" d="M681.9,423.1l7,0"/>
<path class="st15" d="M713.8,460l76.3,0"/>
<path class="st15" d="M713.8,478.4l112.9,0"/>
<path class="st15" d="M713.8,496.9l48.4,0"/>
<path class="st15" d="M713.8,515.4l82.6,0"/>
<path class="st17" d="M811.8,515.4l82.6,0"/>
<path class="st15" d="M713.8,533.8l106.5,0"/>
<path class="st18" d="M836.3,533.8l87.7,0"/>
<path class="st15" d="M713.8,552.3l122.6,0"/>
<path class="st18" d="M854.6,552.3l106.6,0"/>
<path class="st15" d="M694.8,570.7l8,0"/>
<path class="st15" d="M681.9,589.2l7,0"/>
<path class="st15" d="M681.9,386.9l40.3,0"/>
<line class="st6" x1="666.6" y1="405.8" x2="1484.3" y2="405.8"/>
<path class="st15" d="M741.4,386.9l172.6,0"/>
<path class="st19" d="M805.9,460l76.3,0"/>
<path class="st19" d="M842.9,478.4l112.9,0"/>
<path class="st19" d="M776.8,496.9l79.9,0"/>
</svg>
