<svg xmlns="http://www.w3.org/2000/svg" xmlns:xlink="http://www.w3.org/1999/xlink" width="840" height="581.04"><rect width="840" height="581.04" rx="5" ry="5" class="a"/><svg y="0%" x="0%"><circle cx="20" cy="20" r="6" fill="#ff5f58"/><circle cx="40" cy="20" r="6" fill="#ffbd2e"/><circle cx="60" cy="20" r="6" fill="#18c132"/></svg><svg height="521.04" viewBox="0 0 80 52.104" width="800" x="15" xmlns="http://www.w3.org/2000/svg" xmlns:xlink="http://www.w3.org/1999/xlink" y="50"><style>@keyframes p{0%{transform:translateX(0)}.7%{transform:translateX(-80px)}2.6%{transform:translateX(-160px)}4.1%{transform:translateX(-240px)}4.9%{transform:translateX(-320px)}6%{transform:translateX(-400px)}7.1%{transform:translateX(-480px)}8%{transform:translateX(-560px)}8.8%{transform:translateX(-640px)}9.5%{transform:translateX(-720px)}10.3%{transform:translateX(-800px)}23.2%{transform:translateX(-1040px)}23.3%{transform:translateX(-1120px)}96.4%{transform:translateX(-1200px)}97.8%{transform:translateX(-1280px)}98.4%{transform:translateX(-1360px)}99.5%{transform:translateX(-1440px)}to{transform:translateX(-1600px)}}.a{fill:#fff}.f,.g{fill:#000;white-space:pre}.g{font-weight:700}.h,.i{fill:#818383;white-space:pre}.i,.j{font-weight:700}.j,.k{fill:#adad27;white-space:pre}.l{font-weight:700}.l,.m{fill:#25bc24;white-space:pre}</style><g font-family="Monaco,Consolas,Menlo,'Bitstream Vera Sans Mono','Powerline Symbols',monospace" font-size="1.67"><defs><symbol id="1"><text y="1.67" class="f">bash-3.2$</text><text x="10.02" y="1.67" class="f">api</text></symbol><symbol id="2"><text y="1.67" class="f">bash-3.2$</text><text x="10.02" y="1.67" class="f">api</text><text x="14.028" y="1.67" class="f">status</text></symbol><symbol id="3"><text x="3.006" y="1.67" class="g">Diffs</text><text x="9.018" y="1.67" class="g">observed</text><text x="18.036" y="1.67" class="g">for</text><text x="22.044" y="1.67" class="g">existing</text><text x="31.062" y="1.67" class="g">endpoints</text></symbol><symbol id="4"><text x="5.01" y="1.67" class="h">(use</text><text x="10.02" y="1.67" class="i">&quot;api</text><text x="15.03" y="1.67" class="i">status</text><text x="22.044" y="1.67" class="i">--review&quot;</text><text x="32.064" y="1.67" class="h">to</text><text x="35.07" y="1.67" class="h">review</text><text x="42.084" y="1.67" class="h">in</text><text x="45.09" y="1.67" class="h">the</text><text x="49.098" y="1.67" class="h">UI</text></symbol><symbol id="5"><text x="10.02" y="1.67" class="j">GET</text><text x="16.032" y="1.67" class="k">/locations/{city}/venues/top</text></symbol><symbol id="6"><text x="9.018" y="1.67" class="j">POST</text><text x="16.032" y="1.67" class="k">/search</text></symbol><symbol id="7"><text x="10.02" y="1.67" class="j">PUT</text><text x="16.032" y="1.67" class="k">/user/{userId}/favorites</text></symbol><symbol id="8"><text x="10.02" y="1.67" class="j">GET</text><text x="16.032" y="1.67" class="k">/user/{userId}/lists</text></symbol><symbol id="9"><text x="9.018" y="1.67" class="j">POST</text><text x="16.032" y="1.67" class="k">/user/login</text></symbol><symbol id="10"><text x="3.006" y="1.67" class="g">Undocumented</text><text x="16.032" y="1.67" class="g">URLs</text><text x="21.042" y="1.67" class="g">observed</text></symbol><symbol id="11"><text x="6.012" y="1.67" class="h">(use</text><text x="11.022" y="1.67" class="i">&quot;api</text><text x="16.032" y="1.67" class="i">status</text><text x="23.046" y="1.67" class="i">--review&quot;</text><text x="33.066" y="1.67" class="h">to</text><text x="36.072" y="1.67" class="h">start</text><text x="42.084" y="1.67" class="h">documenting</text><text x="54.108" y="1.67" class="h">them</text></symbol><symbol id="12"><text x="10.02" y="1.67" class="l">GET</text><text x="16.032" y="1.67" class="m">/venues/main-street-pizza/reviews</text></symbol><symbol id="13"><text x="10.02" y="1.67" class="l">GET</text><text x="16.032" y="1.67" class="m">/lists/popular</text></symbol><symbol id="14"><text x="10.02" y="1.67" class="l">GET</text><text x="16.032" y="1.67" class="m">/lists/newest</text></symbol><symbol id="15"><text y="1.67" class="f">bash-3.2$</text><text x="10.02" y="1.67" class="f">exit</text></symbol><symbol id="a"><path fill="transparent" d="M0 0h80v24H0z"/></symbol><symbol id="b"><path fill="#929292" d="M0 0h1.102v2.171H0z"/></symbol></defs><path class="a" d="M0 0h80v52.104H0z"/><g style="animation-duration:14.032684s;animation-iteration-count:infinite;animation-name:p;animation-timing-function:steps(1,end)"><svg width="1680"><svg><use xlink:href="#a"/><use xlink:href="#b" x="10.996"/><text y="1.67" class="f">bash-3.2$</text><text x="10.02" y="1.67" class="f">a</text></svg><svg x="80"><use xlink:href="#a"/><use xlink:href="#b" x="11.996"/><text y="1.67" class="f">bash-3.2$</text><text x="10.02" y="1.67" class="f">ap</text></svg><svg x="160"><use xlink:href="#a"/><use xlink:href="#b" x="12.996"/><use xlink:href="#1"/></svg><svg x="240"><use xlink:href="#a"/><use xlink:href="#b" x="13.996"/><use xlink:href="#1"/></svg><svg x="320"><use xlink:href="#a"/><use xlink:href="#b" x="14.996"/><text y="1.67" class="f">bash-3.2$</text><text x="10.02" y="1.67" class="f">api</text><text x="14.028" y="1.67" class="f">s</text></svg><svg x="400"><use xlink:href="#a"/><use xlink:href="#b" x="15.996"/><text y="1.67" class="f">bash-3.2$</text><text x="10.02" y="1.67" class="f">api</text><text x="14.028" y="1.67" class="f">st</text></svg><svg x="480"><use xlink:href="#a"/><use xlink:href="#b" x="16.996"/><text y="1.67" class="f">bash-3.2$</text><text x="10.02" y="1.67" class="f">api</text><text x="14.028" y="1.67" class="f">sta</text></svg><svg x="560"><use xlink:href="#a"/><use xlink:href="#b" x="17.996"/><text y="1.67" class="f">bash-3.2$</text><text x="10.02" y="1.67" class="f">api</text><text x="14.028" y="1.67" class="f">stat</text></svg><svg x="640"><use xlink:href="#a"/><use xlink:href="#b" x="18.996"/><text y="1.67" class="f">bash-3.2$</text><text x="10.02" y="1.67" class="f">api</text><text x="14.028" y="1.67" class="f">statu</text></svg><svg x="720"><use xlink:href="#a"/><use xlink:href="#b" x="19.996"/><use xlink:href="#2"/></svg><svg x="800"><use xlink:href="#a"/><use xlink:href="#b" x="-.004" y="2.146"/><use xlink:href="#2"/></svg><svg x="880"><use xlink:href="#a"/><use xlink:href="#b" x="-.004" y="4.317"/><use xlink:href="#2"/><use xlink:href="#3" y="2.171"/></svg><svg x="960"><use xlink:href="#a"/><use xlink:href="#b" x="-.004" y="17.343"/><use xlink:href="#2"/><use xlink:href="#3" y="2.171"/><use xlink:href="#4" y="4.342"/><use xlink:href="#5" y="6.513"/><use xlink:href="#6" y="8.684"/><use xlink:href="#7" y="10.855"/><use xlink:href="#8" y="13.026"/><use xlink:href="#9" y="15.197"/></svg><svg x="1040"><use xlink:href="#a"/><use xlink:href="#b" x="-.004" y="28.198"/><use xlink:href="#2"/><use xlink:href="#3" y="2.171"/><use xlink:href="#4" y="4.342"/><use xlink:href="#5" y="6.513"/><use xlink:href="#6" y="8.684"/><use xlink:href="#7" y="10.855"/><use xlink:href="#8" y="13.026"/><use xlink:href="#9" y="15.197"/><use xlink:href="#10" y="17.368"/><use xlink:href="#11" y="19.539"/><use xlink:href="#12" y="21.71"/><use xlink:href="#13" y="23.881"/><use xlink:href="#14" y="26.052"/></svg><svg x="1120"><use xlink:href="#a"/><use xlink:href="#b" x="9.996" y="28.198"/><use xlink:href="#2"/><use xlink:href="#3" y="2.171"/><use xlink:href="#4" y="4.342"/><use xlink:href="#5" y="6.513"/><use xlink:href="#6" y="8.684"/><use xlink:href="#7" y="10.855"/><use xlink:href="#8" y="13.026"/><use xlink:href="#9" y="15.197"/><use xlink:href="#10" y="17.368"/><use xlink:href="#11" y="19.539"/><use xlink:href="#12" y="21.71"/><use xlink:href="#13" y="23.881"/><use xlink:href="#14" y="26.052"/><text y="29.893" class="f">bash-3.2$</text></svg><svg x="1200"><use xlink:href="#a"/><use xlink:href="#b" x="10.996" y="28.198"/><use xlink:href="#2"/><use xlink:href="#3" y="2.171"/><use xlink:href="#4" y="4.342"/><use xlink:href="#5" y="6.513"/><use xlink:href="#6" y="8.684"/><use xlink:href="#7" y="10.855"/><use xlink:href="#8" y="13.026"/><use xlink:href="#9" y="15.197"/><use xlink:href="#10" y="17.368"/><use xlink:href="#11" y="19.539"/><use xlink:href="#12" y="21.71"/><use xlink:href="#13" y="23.881"/><use xlink:href="#14" y="26.052"/><text y="29.893" class="f">bash-3.2$</text><text x="10.02" y="29.893" class="f">e</text></svg><svg x="1280"><use xlink:href="#a"/><use xlink:href="#b" x="11.996" y="28.198"/><use xlink:href="#2"/><use xlink:href="#3" y="2.171"/><use xlink:href="#4" y="4.342"/><use xlink:href="#5" y="6.513"/><use xlink:href="#6" y="8.684"/><use xlink:href="#7" y="10.855"/><use xlink:href="#8" y="13.026"/><use xlink:href="#9" y="15.197"/><use xlink:href="#10" y="17.368"/><use xlink:href="#11" y="19.539"/><use xlink:href="#12" y="21.71"/><use xlink:href="#13" y="23.881"/><use xlink:href="#14" y="26.052"/><text y="29.893" class="f">bash-3.2$</text><text x="10.02" y="29.893" class="f">ex</text></svg><svg x="1360"><use xlink:href="#a"/><use xlink:href="#b" x="12.996" y="28.198"/><use xlink:href="#2"/><use xlink:href="#3" y="2.171"/><use xlink:href="#4" y="4.342"/><use xlink:href="#5" y="6.513"/><use xlink:href="#6" y="8.684"/><use xlink:href="#7" y="10.855"/><use xlink:href="#8" y="13.026"/><use xlink:href="#9" y="15.197"/><use xlink:href="#10" y="17.368"/><use xlink:href="#11" y="19.539"/><use xlink:href="#12" y="21.71"/><use xlink:href="#13" y="23.881"/><use xlink:href="#14" y="26.052"/><text y="29.893" class="f">bash-3.2$</text><text x="10.02" y="29.893" class="f">exi</text></svg><svg x="1440"><use xlink:href="#a"/><use xlink:href="#b" x="13.996" y="28.198"/><use xlink:href="#2"/><use xlink:href="#3" y="2.171"/><use xlink:href="#4" y="4.342"/><use xlink:href="#5" y="6.513"/><use xlink:href="#6" y="8.684"/><use xlink:href="#7" y="10.855"/><use xlink:href="#8" y="13.026"/><use xlink:href="#9" y="15.197"/><use xlink:href="#10" y="17.368"/><use xlink:href="#11" y="19.539"/><use xlink:href="#12" y="21.71"/><use xlink:href="#13" y="23.881"/><use xlink:href="#14" y="26.052"/><use xlink:href="#15" y="28.223"/></svg><svg x="1520"><use xlink:href="#a"/><use xlink:href="#b" x="-.004" y="30.369"/><use xlink:href="#2"/><use xlink:href="#3" y="2.171"/><use xlink:href="#4" y="4.342"/><use xlink:href="#5" y="6.513"/><use xlink:href="#6" y="8.684"/><use xlink:href="#7" y="10.855"/><use xlink:href="#8" y="13.026"/><use xlink:href="#9" y="15.197"/><use xlink:href="#10" y="17.368"/><use xlink:href="#11" y="19.539"/><use xlink:href="#12" y="21.71"/><use xlink:href="#13" y="23.881"/><use xlink:href="#14" y="26.052"/><use xlink:href="#15" y="28.223"/></svg><svg x="1600"><use xlink:href="#a"/><use xlink:href="#b" x="-.004" y="32.54"/><use xlink:href="#2"/><use xlink:href="#3" y="2.171"/><use xlink:href="#4" y="4.342"/><use xlink:href="#5" y="6.513"/><use xlink:href="#6" y="8.684"/><use xlink:href="#7" y="10.855"/><use xlink:href="#8" y="13.026"/><use xlink:href="#9" y="15.197"/><use xlink:href="#10" y="17.368"/><use xlink:href="#11" y="19.539"/><use xlink:href="#12" y="21.71"/><use xlink:href="#13" y="23.881"/><use xlink:href="#14" y="26.052"/><use xlink:href="#15" y="28.223"/><text y="32.064" class="f">exit</text></svg></svg></g></g></svg></svg>