<?xml version="1.0" encoding="UTF-8"?>
<svg width="900px" height="888px" viewBox="0 0 900 888" version="1.1" xmlns="http://www.w3.org/2000/svg" xmlns:xlink="http://www.w3.org/1999/xlink">
    <title>svg-bg</title>
    <g id="Page-1" stroke="none" stroke-width="1" fill="none" fill-rule="evenodd" opacity="0.05">
        <g id="svg-bg" fill="#030AC2">
            <g id="Group">
                <path d="M53.0009,446.106 C53.0009,560.947 102.559,664.316 181.778,736.356 C239.361,788.722 312.535,824.447 393.595,835.896 C407.911,837.918 417.877,851.163 415.855,865.479 C413.833,879.795 400.588,889.761 386.272,887.739 C294.519,874.78 211.692,834.331 146.551,775.093 C56.9368,693.598 0.642559,576.378 0.642559,446.106 C0.642559,346.544 33.5363,254.548 89.0907,180.3286 C97.7547,168.7537 114.162,166.3939 125.737,175.0579 C137.311,183.7219 139.671,200.1288 131.007,211.7037 C81.978,277.206 53.0009,358.271 53.0009,446.106 Z M170.414,129.84563 C161.606,118.37994 163.76,101.9448 175.226,93.1368 C251.236,34.7452 346.645,0 450.139,0 C553.632,0 649.041,34.7451 725.051,93.1367 C736.517,101.9448 738.671,118.37991 729.863,129.84561 C721.055,141.3113 704.62,143.4657 693.154,134.65768 C626,83.069 541.733,52.3584 450.139,52.3584 C358.544,52.3584 274.277,83.0691 207.123,134.65771 C195.657,143.4658 179.222,141.3113 170.414,129.84563 Z M484.422,865.479 C482.4,851.163 492.366,837.918 506.682,835.896 C587.742,824.447 660.916,788.722 718.499,736.356 C797.718,664.316 847.276,560.947 847.276,446.106 C847.276,358.271 818.299,277.206 769.27,211.7038 C760.606,200.1289 762.966,183.722 774.54,175.0579 C786.115,166.3939 802.522,168.7537 811.186,180.3286 C866.741,254.548 899.635,346.544 899.635,446.106 C899.635,576.378 843.34,693.598 753.726,775.093 C688.585,834.331 605.758,874.78 514.005,887.739 C499.689,889.761 486.444,879.795 484.422,865.479 Z" id="Shape"></path>
                <path d="M715.331,442.557 C715.331,366.473 682.315,297.948 629.42,250.133 C590.97,215.3748 542.097,191.6515 487.936,184.0472 C473.618,182.037 463.641,168.8004 465.651,154.4824 C467.662,140.1645 480.898,130.1872 495.216,132.19747 C560.004,141.2938 618.509,169.6892 664.531,211.2918 C727.846,268.526 767.689,350.93 767.689,442.557 C767.689,512.569 744.412,577.261 705.137,629.418 C696.44,640.968 680.026,643.281 668.476,634.584 C656.926,625.887 654.614,609.473 663.311,597.923 C696.022,554.482 715.331,500.763 715.331,442.557 Z M649.191,653.969 C657.966,665.46 655.764,681.889 644.273,690.664 C590.573,731.671 523.186,756.054 450.136,756.054 C377.086,756.054 309.7,731.671 256,690.664 C244.509,681.889 242.307,665.46 251.082,653.969 C259.857,642.478 276.286,640.276 287.777,649.051 C332.619,683.294 388.905,703.696 450.136,703.696 C511.368,703.696 567.654,683.294 612.496,649.051 C623.987,640.276 640.416,642.478 649.191,653.969 Z M434.621,154.4824 C436.632,168.8004 426.654,182.037 412.336,184.0472 C358.176,191.6515 309.303,215.3748 270.853,250.133 C217.958,297.948 184.942,366.473 184.942,442.557 C184.942,500.763 204.25,554.482 236.962,597.923 C245.659,609.473 243.346,625.887 231.796,634.584 C220.246,643.281 203.833,640.968 195.136,629.418 C155.861,577.261 132.583,512.569 132.583,442.557 C132.583,350.93 172.427,268.526 235.742,211.2918 C281.764,169.6892 340.268,141.2938 405.057,132.19746 C419.374,130.1872 432.611,140.1645 434.621,154.4824 Z" id="Shape"></path>
            </g>
        </g>
    </g>
</svg>