<?xml version="1.0" encoding="utf-8"?><svg version="1.1" id="Layer_1" xmlns="http://www.w3.org/2000/svg" xmlns:xlink="http://www.w3.org/1999/xlink" x="0px" y="0px" viewBox="0 0 100 100" style="enable-background:new 0 0 100 100;" xml:space="preserve"><style type="text/css">.st0{fill:#FCDC00;}.st1{fill:#173647;}.st2{fill:#FFFFFF;}.st3{fill:#2C282C;}.st4{fill:#F4CF14;}.st5{fill:#63DB2A;}.st6{fill:#50E4EA;}.st7{fill:#07CED6;}.st8{fill:#85EA2D;}.st9{fill:#04AADB;}.st10{fill:#FF730B;}.st11{fill:#17D1FC;}.st12{fill:#00AADB;}.st13{fill:none;}</style><g><g><g><g><g><path class="st8" d="M50,97.14C24.006,97.14,2.859,75.994,2.859,50S24.006,2.86,50,2.86S97.14,24.007,97.14,50S75.993,97.14,50,97.14z"/></g><g><g><path class="st8" d="M50,5.219c24.732,0,44.781,20.049,44.781,44.781c0,24.732-20.049,44.781-44.781,44.781C25.268,94.781,5.219,74.732,5.219,50C5.219,25.268,25.268,5.219,50,5.219 M50,0.5C22.706,0.5,0.5,22.706,0.5,50S22.706,99.5,50,99.5c27.295,0,49.5-22.206,49.5-49.5S77.294,0.5,50,0.5L50,0.5z"/></g></g></g></g></g><path class="st1" d="M31.669,33.997c-0.152,1.694,0.057,3.445-0.057,5.158c-0.134,1.713-0.343,3.407-0.686,5.102c-0.476,2.417-1.98,4.245-4.054,5.768c4.036,2.627,4.492,6.7,4.759,10.831c0.134,2.227,0.076,4.473,0.305,6.681c0.171,1.713,0.837,2.151,2.608,2.208c0.723,0.019,1.465,0,2.303,0v5.292c-5.235,0.895-9.555-0.59-10.621-5.025c-0.343-1.618-0.572-3.274-0.647-4.949c-0.115-1.77,0.075-3.541-0.058-5.311c-0.381-4.854-1.009-6.491-5.653-6.719v-6.034c0.342-0.076,0.665-0.133,1.008-0.171c2.55-0.133,3.635-0.914,4.187-3.427c0.267-1.408,0.419-2.836,0.476-4.283c0.191-2.759,0.114-5.577,0.59-8.318c0.666-3.94,3.103-5.844,7.158-6.072c1.142-0.057,2.303,0,3.616,0v5.406c-0.552,0.038-1.028,0.114-1.522,0.114C32.089,30.133,31.917,31.256,31.669,33.997z M38.008,46.522h-0.076c-1.903-0.095-3.54,1.389-3.636,3.293c-0.095,1.923,1.389,3.56,3.293,3.654h0.229c1.885,0.114,3.502-1.332,3.616-3.217v-0.191C41.472,48.14,39.93,46.56,38.008,46.522z M49.943,46.522c-1.847-0.057-3.389,1.389-3.445,3.217c0,0.114,0,0.21,0.02,0.323c0,2.075,1.408,3.407,3.54,3.407c2.094,0,3.407-1.37,3.407-3.521C53.445,47.873,52.055,46.503,49.943,46.522z M62.163,46.522c-1.942-0.038-3.56,1.504-3.616,3.445c0,1.942,1.561,3.502,3.502,3.502h0.038c1.751,0.305,3.522-1.389,3.636-3.426C65.817,48.159,64.104,46.522,62.163,46.522z M78.933,46.807c-2.208-0.095-3.312-0.837-3.864-2.931c-0.343-1.332-0.552-2.722-0.628-4.092c-0.152-2.55-0.134-5.12-0.305-7.671c-0.4-6.053-4.777-8.165-11.135-7.119v5.254c1.008,0,1.789,0,2.57,0.019c1.351,0.019,2.379,0.533,2.512,2.037c0.134,1.37,0.134,2.76,0.267,4.149c0.267,2.76,0.418,5.558,0.894,8.28c0.419,2.246,1.961,3.921,3.883,5.292c-3.368,2.265-4.359,5.501-4.53,9.137c-0.095,2.493-0.152,5.006-0.285,7.519c-0.114,2.284-0.914,3.026-3.217,3.083c-0.647,0.019-1.275,0.076-1.998,0.114v5.387c1.351,0,2.588,0.076,3.826,0c3.845-0.229,6.168-2.094,6.929-5.825c0.323-2.056,0.514-4.13,0.571-6.205c0.133-1.903,0.114-3.826,0.305-5.71c0.285-2.95,1.637-4.168,4.587-4.359c0.286-0.038,0.552-0.095,0.819-0.19v-6.034C79.637,46.883,79.294,46.827,78.933,46.807z"/></g></svg>