<?xml version="1.0" encoding="UTF-8"?>
<svg width="677px" height="321px" viewBox="0 0 677 321" version="1.1" xmlns="http://www.w3.org/2000/svg" xmlns:xlink="http://www.w3.org/1999/xlink">
    <!-- Generator: Sketch 52.6 (67491) - http://www.bohemiancoding.com/sketch -->
    <title>Artboard</title>
    <desc>Created with Sketch.</desc>
    <defs>
        <radialGradient cx="177.652908%" cy="71.8882431%" fx="177.652908%" fy="71.8882431%" r="394.67575%" gradientTransform="translate(1.776529,0.718882),scale(1.000000,0.317056),translate(-1.776529,-0.718882)" id="radialGradient-1">
            <stop stop-color="#18AFF5" offset="0%"></stop>
            <stop stop-color="#1C9EE8" offset="10.23%"></stop>
            <stop stop-color="#2572C8" offset="30.38%"></stop>
            <stop stop-color="#2670C6" offset="31.35%"></stop>
            <stop stop-color="#333399" offset="59.47%"></stop>
        </radialGradient>
        <radialGradient cx="50.8620561%" cy="88.1763075%" fx="50.8620561%" fy="88.1763075%" r="314.560262%" gradientTransform="translate(0.508621,0.881763),scale(1.000000,0.701676),translate(-0.508621,-0.881763)" id="radialGradient-2">
            <stop stop-color="#18AFF5" offset="0%"></stop>
            <stop stop-color="#1C9EE8" offset="10.23%"></stop>
            <stop stop-color="#2572C8" offset="30.38%"></stop>
            <stop stop-color="#2670C6" offset="31.35%"></stop>
            <stop stop-color="#333399" offset="59.47%"></stop>
        </radialGradient>
        <radialGradient cx="-76.0056285%" cy="71.9095655%" fx="-76.0056285%" fy="71.9095655%" r="394.67575%" gradientTransform="translate(-0.760056,0.719096),scale(1.000000,0.317150),translate(0.760056,-0.719096)" id="radialGradient-3">
            <stop stop-color="#18AFF5" offset="0%"></stop>
            <stop stop-color="#1C9EE8" offset="10.23%"></stop>
            <stop stop-color="#2572C8" offset="30.38%"></stop>
            <stop stop-color="#2670C6" offset="31.35%"></stop>
            <stop stop-color="#333399" offset="59.47%"></stop>
        </radialGradient>
    </defs>
    <g id="Artboard" stroke="none" stroke-width="1" fill="none" fill-rule="evenodd">
        <g id="Seamless-Logo_01-02" transform="translate(174.000000, 95.000000)">
            <g id="Group" fill="#000000">
                <path d="M0.0913907285,55.5413333 C4.00291391,55.5413333 6.85430464,54.3386667 8.68211921,51.9151111 C10.5099338,49.5097778 11.4238411,46.6488889 11.4238411,43.3506667 L11.4238411,24.6911111 C11.4238411,20.7186667 11.8076821,17.1835556 12.5753642,14.0857778 C13.3430464,11.0062222 14.6956291,8.41866667 16.6513907,6.34133333 C18.6071523,4.264 21.3123179,2.69688889 24.8034437,1.64 C28.2762914,0.583111111 32.7361589,0.0546666667 38.1647682,0.0546666667 L39.0603974,0.0546666667 L39.0603974,12.2453333 C36.5928477,12.2453333 34.5091391,12.4093333 32.8275497,12.7555556 C31.1276821,13.1017778 29.7750993,13.7031111 28.7515232,14.596 C27.727947,15.4888889 26.9968212,16.6733333 26.5215894,18.1493333 C26.0463576,19.6253333 25.8270199,21.5204444 25.8270199,23.7982222 L25.8270199,41.9475556 C25.8270199,47.0315556 25.1690066,51.0768889 23.8529801,54.0653333 C22.5369536,57.072 20.3070199,59.5502222 17.1631788,61.5 C20.3070199,63.4497778 22.5369536,65.9462222 23.8529801,68.9893333 C25.1690066,72.0324444 25.8270199,76.0595556 25.8270199,81.0524444 L25.8270199,99.3293333 C25.8270199,101.607111 26.0646358,103.484 26.5215894,104.923556 C26.978543,106.363111 27.727947,107.529333 28.7515232,108.422222 C29.7750993,109.315111 31.1276821,109.916444 32.8275497,110.262667 C34.5274172,110.608889 36.6111258,110.772889 39.0603974,110.772889 L39.0603974,122.963556 C33.375894,122.963556 28.7515232,122.453333 25.1872848,121.432889 C21.6230464,120.412444 18.8264901,118.863556 16.7793377,116.804444 C14.7504636,114.727111 13.3430464,112.176 12.5753642,109.132889 C11.8076821,106.089778 11.4238411,102.536444 11.4238411,98.4728889 L11.4238411,79.6493333 C11.4238411,76.4422222 10.5099338,73.6177778 8.68211921,71.2124444 C6.85430464,68.8071111 3.98463576,67.5862222 0.0913907285,67.5862222 L0.0913907285,55.5413333 Z" id="Path"></path>
                <path d="M66.1851656,83.968 C70.2611921,83.968 73.2222517,83.476 75.1049007,82.5102222 C76.9692715,81.5444444 77.901457,79.868 77.901457,77.4991111 C77.901457,75.2942222 76.8961589,73.472 74.9038411,72.0324444 C72.9115232,70.5928889 69.621457,69.0257778 65.0336424,67.3311111 C62.2370861,66.3106667 59.6598675,65.2355556 57.338543,64.0875556 C54.9989404,62.9395556 52.9883444,61.6093333 51.2884768,60.0968889 C49.5886093,58.5662222 48.2543046,56.7257778 47.2855629,54.5755556 C46.3168212,52.4253333 45.8233113,49.7648889 45.8233113,46.6488889 C45.8233113,40.5626667 48.0715232,35.752 52.567947,32.2351111 C57.0643709,28.7182222 63.1875497,26.9688889 70.9009272,26.9688889 C74.8124503,26.9688889 78.5411921,27.3333333 82.1054305,28.044 C85.6696689,28.7728889 88.3382781,29.4653333 90.1295364,30.1395556 L87.3329801,42.5853333 C85.6331126,41.82 83.4762914,41.1275556 80.8442384,40.4897778 C78.2121854,39.852 75.1597351,39.5422222 71.6686093,39.5422222 C68.5247682,39.5422222 65.984106,40.0706667 64.0283444,41.1275556 C62.0725828,42.1844444 61.1038411,43.8062222 61.1038411,46.0111111 C61.1038411,47.1044444 61.2866225,48.0884444 61.6704636,48.9266667 C62.0543046,49.7648889 62.7123179,50.5484444 63.6445033,51.2773333 C64.5766887,52.0062222 65.8013245,52.7168889 67.3366887,53.4275556 C68.872053,54.1564444 70.7364238,54.8853333 72.9480795,55.6506667 C76.6037086,56.9991111 79.6927152,58.3293333 82.2516556,59.6413333 C84.7923179,60.9533333 86.8943046,62.4293333 88.5576159,64.0875556 C90.2209272,65.7457778 91.4272848,67.6226667 92.1949669,69.7364444 C92.962649,71.8502222 93.3464901,74.3831111 93.3464901,77.3533333 C93.3464901,83.6946667 90.9886093,88.5053333 86.2728477,91.7671111 C81.5570861,95.0288889 74.8307285,96.6506667 66.0937748,96.6506667 C60.2447682,96.6506667 55.5290066,96.1586667 51.9647682,95.1928889 C48.4005298,94.2271111 45.8964238,93.4435556 44.4524503,92.8422222 L47.1210596,80.0137778 C49.4058278,80.9431111 52.1475497,81.836 55.327947,82.6742222 C58.4717881,83.5488889 62.1091391,83.968 66.1851656,83.968 Z" id="Path"></path>
                <path d="M137.908609,67.5862222 C133.997086,67.5862222 131.145695,68.7888889 129.317881,71.2124444 C127.490066,73.6177778 126.576159,76.4422222 126.576159,79.6493333 L126.576159,98.4364444 C126.576159,102.5 126.192318,106.053333 125.424636,109.096444 C124.656954,112.139556 123.267815,114.708889 121.220662,116.768 C119.191788,118.845333 116.376954,120.394222 112.812715,121.396444 C109.248477,122.416889 104.624106,122.927111 98.9396026,122.927111 L98.9396026,110.736444 C103.856424,110.736444 107.292715,109.952889 109.248477,108.385778 C111.204238,106.818667 112.17298,103.793778 112.17298,99.3111111 L112.17298,81.0524444 C112.17298,76.0595556 112.830993,72.0324444 114.14702,68.9893333 C115.463046,65.9462222 117.69298,63.4497778 120.836821,61.5 C117.69298,59.5502222 115.463046,57.072 114.14702,54.0653333 C112.830993,51.0586667 112.17298,47.0133333 112.17298,41.9475556 L112.17298,23.7982222 C112.17298,21.5204444 111.935364,19.6253333 111.478411,18.1493333 C111.003179,16.6733333 110.272053,15.4888889 109.248477,14.596 C108.224901,13.7031111 106.872318,13.1017778 105.17245,12.7555556 C103.472583,12.4275556 101.388874,12.2453333 98.9396026,12.2453333 L98.9396026,0.0546666667 L99.8352318,0.0546666667 C105.263841,0.0546666667 109.723709,0.583111111 113.196556,1.64 C116.669404,2.69688889 119.392848,4.264 121.348609,6.34133333 C123.304371,8.41866667 124.656954,10.988 125.424636,14.0857778 C126.192318,17.1835556 126.576159,20.7004444 126.576159,24.6911111 L126.576159,43.3506667 C126.576159,46.6488889 127.490066,49.5097778 129.317881,51.9151111 C131.145695,54.3204444 134.015364,55.5413333 137.908609,55.5413333 L137.908609,67.5862222 Z" id="Path"></path>
            </g>
            <g id="Group">
                <path d="M0.0913907285,55.5413333 C4.00291391,55.5413333 6.85430464,54.3386667 8.68211921,51.9151111 C10.5099338,49.5097778 11.4238411,46.6488889 11.4238411,43.3506667 L11.4238411,24.6911111 C11.4238411,20.7186667 11.8076821,17.1835556 12.5753642,14.0857778 C13.3430464,11.0062222 14.6956291,8.41866667 16.6513907,6.34133333 C18.6071523,4.264 21.3123179,2.69688889 24.8034437,1.64 C28.2762914,0.583111111 32.7361589,0.0546666667 38.1647682,0.0546666667 L39.0603974,0.0546666667 L39.0603974,12.2453333 C36.5928477,12.2453333 34.5091391,12.4093333 32.8275497,12.7555556 C31.1276821,13.1017778 29.7750993,13.7031111 28.7515232,14.596 C27.727947,15.4888889 26.9968212,16.6733333 26.5215894,18.1493333 C26.0463576,19.6253333 25.8270199,21.5204444 25.8270199,23.7982222 L25.8270199,41.9475556 C25.8270199,47.0315556 25.1690066,51.0768889 23.8529801,54.0653333 C22.5369536,57.072 20.3070199,59.5502222 17.1631788,61.5 C20.3070199,63.4497778 22.5369536,65.9462222 23.8529801,68.9893333 C25.1690066,72.0324444 25.8270199,76.0595556 25.8270199,81.0524444 L25.8270199,99.3293333 C25.8270199,101.607111 26.0646358,103.484 26.5215894,104.923556 C26.978543,106.363111 27.727947,107.529333 28.7515232,108.422222 C29.7750993,109.315111 31.1276821,109.916444 32.8275497,110.262667 C34.5274172,110.608889 36.6111258,110.772889 39.0603974,110.772889 L39.0603974,122.963556 C33.375894,122.963556 28.7515232,122.453333 25.1872848,121.432889 C21.6230464,120.412444 18.8264901,118.863556 16.7793377,116.804444 C14.7504636,114.727111 13.3430464,112.176 12.5753642,109.132889 C11.8076821,106.089778 11.4238411,102.536444 11.4238411,98.4728889 L11.4238411,79.6493333 C11.4238411,76.4422222 10.5099338,73.6177778 8.68211921,71.2124444 C6.85430464,68.8071111 3.98463576,67.5862222 0.0913907285,67.5862222 L0.0913907285,55.5413333 Z" id="Path" fill="url(#radialGradient-1)"></path>
                <path d="M66.1851656,83.968 C70.2611921,83.968 73.2222517,83.476 75.1049007,82.5102222 C76.9692715,81.5444444 77.901457,79.868 77.901457,77.4991111 C77.901457,75.2942222 76.8961589,73.472 74.9038411,72.0324444 C72.9115232,70.5928889 69.621457,69.0257778 65.0336424,67.3311111 C62.2370861,66.3106667 59.6598675,65.2355556 57.338543,64.0875556 C54.9989404,62.9395556 52.9883444,61.6093333 51.2884768,60.0968889 C49.5886093,58.5662222 48.2543046,56.7257778 47.2855629,54.5755556 C46.3168212,52.4253333 45.8233113,49.7648889 45.8233113,46.6488889 C45.8233113,40.5626667 48.0715232,35.752 52.567947,32.2351111 C57.0643709,28.7182222 63.1875497,26.9688889 70.9009272,26.9688889 C74.8124503,26.9688889 78.5411921,27.3333333 82.1054305,28.044 C85.6696689,28.7728889 88.3382781,29.4653333 90.1295364,30.1395556 L87.3329801,42.5853333 C85.6331126,41.82 83.4762914,41.1275556 80.8442384,40.4897778 C78.2121854,39.852 75.1597351,39.5422222 71.6686093,39.5422222 C68.5247682,39.5422222 65.984106,40.0706667 64.0283444,41.1275556 C62.0725828,42.1844444 61.1038411,43.8062222 61.1038411,46.0111111 C61.1038411,47.1044444 61.2866225,48.0884444 61.6704636,48.9266667 C62.0543046,49.7648889 62.7123179,50.5484444 63.6445033,51.2773333 C64.5766887,52.0062222 65.8013245,52.7168889 67.3366887,53.4275556 C68.872053,54.1564444 70.7364238,54.8853333 72.9480795,55.6506667 C76.6037086,56.9991111 79.6927152,58.3293333 82.2516556,59.6413333 C84.7923179,60.9533333 86.8943046,62.4293333 88.5576159,64.0875556 C90.2209272,65.7457778 91.4272848,67.6226667 92.1949669,69.7364444 C92.962649,71.8502222 93.3464901,74.3831111 93.3464901,77.3533333 C93.3464901,83.6946667 90.9886093,88.5053333 86.2728477,91.7671111 C81.5570861,95.0288889 74.8307285,96.6506667 66.0937748,96.6506667 C60.2447682,96.6506667 55.5290066,96.1586667 51.9647682,95.1928889 C48.4005298,94.2271111 45.8964238,93.4435556 44.4524503,92.8422222 L47.1210596,80.0137778 C49.4058278,80.9431111 52.1475497,81.836 55.327947,82.6742222 C58.4717881,83.5488889 62.1091391,83.968 66.1851656,83.968 Z" id="Path" fill="url(#radialGradient-2)"></path>
                <path d="M137.908609,67.5862222 C133.997086,67.5862222 131.145695,68.7888889 129.317881,71.2124444 C127.490066,73.6177778 126.576159,76.4422222 126.576159,79.6493333 L126.576159,98.4364444 C126.576159,102.5 126.192318,106.053333 125.424636,109.096444 C124.656954,112.139556 123.267815,114.708889 121.220662,116.768 C119.191788,118.845333 116.376954,120.394222 112.812715,121.396444 C109.248477,122.416889 104.624106,122.927111 98.9396026,122.927111 L98.9396026,110.736444 C103.856424,110.736444 107.292715,109.952889 109.248477,108.385778 C111.204238,106.818667 112.17298,103.793778 112.17298,99.3111111 L112.17298,81.0524444 C112.17298,76.0595556 112.830993,72.0324444 114.14702,68.9893333 C115.463046,65.9462222 117.69298,63.4497778 120.836821,61.5 C117.69298,59.5502222 115.463046,57.072 114.14702,54.0653333 C112.830993,51.0586667 112.17298,47.0133333 112.17298,41.9475556 L112.17298,23.7982222 C112.17298,21.5204444 111.935364,19.6253333 111.478411,18.1493333 C111.003179,16.6733333 110.272053,15.4888889 109.248477,14.596 C108.224901,13.7031111 106.872318,13.1017778 105.17245,12.7555556 C103.472583,12.4275556 101.388874,12.2453333 98.9396026,12.2453333 L98.9396026,0.0546666667 L99.8352318,0.0546666667 C105.263841,0.0546666667 109.723709,0.583111111 113.196556,1.64 C116.669404,2.69688889 119.392848,4.264 121.348609,6.34133333 C123.304371,8.41866667 124.656954,10.988 125.424636,14.0857778 C126.192318,17.1835556 126.576159,20.7004444 126.576159,24.6911111 L126.576159,43.3506667 C126.576159,46.6488889 127.490066,49.5097778 129.317881,51.9151111 C131.145695,54.3204444 134.015364,55.5413333 137.908609,55.5413333 L137.908609,67.5862222 Z" id="Path" fill="url(#radialGradient-3)"></path>
            </g>
        </g>
        <text id="pec" font-family="Ubuntu-Bold, Ubuntu" font-size="117" font-weight="bold" fill="#333399">
            <tspan x="323" y="204">pec</tspan>
        </text>
    </g>
</svg>