<?xml version="1.0" encoding="utf-8"?>
<!-- Generator: Adobe Illustrator 23.0.4, SVG Export Plug-In . SVG Version: 6.00 Build 0)  -->
<svg version="1.1" id="Layer_1" xmlns="http://www.w3.org/2000/svg" xmlns:xlink="http://www.w3.org/1999/xlink" x="0px" y="0px"
	 viewBox="0 0 1428 358" style="enable-background:new 0 0 1428 358;" xml:space="preserve">
<style type="text/css">
	.st0{fill:url(#SVGID_1_);}
	.st1{fill:url(#SVGID_2_);}
	.st2{fill:url(#SVGID_3_);}
	.st3{fill:url(#SVGID_4_);}
	.st4{fill:url(#SVGID_5_);}
	.st5{fill:url(#SVGID_6_);}
	.st6{fill:url(#SVGID_7_);}
	.st7{fill:url(#SVGID_8_);}
	.st8{fill:url(#SVGID_9_);}
	.st9{fill:url(#SVGID_10_);}
	.st10{fill:url(#SVGID_11_);}
	.st11{fill:url(#SVGID_12_);}
	.st12{fill:url(#SVGID_13_);}
</style>
<g>
	
		<radialGradient id="SVGID_1_" cx="2004.9154" cy="114.8807" r="768.3535" fx="1992.3687" fy="581.9507" gradientTransform="matrix(1.2677 0 0 0.5468 -1803.8385 22.4176)" gradientUnits="userSpaceOnUse">
		<stop  offset="0" style="stop-color:#18AFF5"/>
		<stop  offset="0.1798" style="stop-color:#1F8EDC"/>
		<stop  offset="0.3641" style="stop-color:#2670C6"/>
		<stop  offset="0.4173" style="stop-color:#2867BF"/>
		<stop  offset="0.6177" style="stop-color:#2E4BAA"/>
		<stop  offset="0.7921" style="stop-color:#32399E"/>
		<stop  offset="0.9201" style="stop-color:#333399"/>
	</radialGradient>
	<path class="st0" d="M99.8,51.1C92,53.4,86,56.9,81.7,61.5c-4.3,4.6-7.3,10.4-9,17.2c-1.7,6.9-2.5,14.7-2.5,23.6v41.5
		c0,7.3-2,13.7-6.1,19.1c-4.1,5.4-10.4,8-19.1,8v26.8c8.7,0,15,2.7,19.1,8c4,5.4,6.1,11.6,6.1,18.8v41.8c0,9,0.8,16.9,2.5,23.7
		c1.7,6.8,4.8,12.5,9.3,17.1c4.5,4.6,10.7,8,18.6,10.3c7.9,2.3,18.2,3.4,30.8,3.4v-27.1c-5.5,0-10.1-0.4-13.8-1.1
		c-3.8-0.8-6.8-2.1-9-4.1c-2.3-2-3.9-4.6-4.9-7.8c-1-3.2-1.6-7.3-1.6-12.4v-40.7c0-11.1-1.5-20.1-4.4-26.8
		c-2.9-6.8-7.9-12.3-14.8-16.7c7-4.3,11.9-9.8,14.8-16.5c2.9-6.7,4.4-15.7,4.4-27v-40.4c0-5.1,0.5-9.3,1.6-12.6
		c1-3.3,2.7-5.9,4.9-7.9c2.3-2,5.3-3.3,9-4.1c3.8-0.7,8.4-1.1,13.8-1.1V47.5h-2C117.4,47.5,107.5,48.7,99.8,51.1z"/>
	
		<radialGradient id="SVGID_2_" cx="2004.9154" cy="114.8807" r="768.3535" fx="1992.3687" fy="581.9507" gradientTransform="matrix(1.2677 0 0 0.5468 -1803.8385 22.4176)" gradientUnits="userSpaceOnUse">
		<stop  offset="0" style="stop-color:#18AFF5"/>
		<stop  offset="0.1798" style="stop-color:#1F8EDC"/>
		<stop  offset="0.3641" style="stop-color:#2670C6"/>
		<stop  offset="0.4173" style="stop-color:#2867BF"/>
		<stop  offset="0.6177" style="stop-color:#2E4BAA"/>
		<stop  offset="0.7921" style="stop-color:#32399E"/>
		<stop  offset="0.9201" style="stop-color:#333399"/>
	</radialGradient>
	<path class="st1" d="M241.1,187.5c-3.7-3.7-8.3-7-14-9.9c-5.6-2.9-12.5-5.9-20.6-8.9c-4.9-1.7-9-3.3-12.4-4.9
		c-3.4-1.6-6.1-3.2-8.2-4.8c-2.1-1.6-3.5-3.3-4.4-5.2c-0.8-1.9-1.3-4-1.3-6.5c0-4.9,2.2-8.5,6.5-10.9c4.3-2.4,10-3.5,16.9-3.5
		c7.7,0,14.5,0.7,20.3,2.1c5.8,1.4,10.6,3,14.4,4.7l6.2-27.7c-4-1.5-9.9-3.1-17.8-4.7c-7.9-1.6-16.2-2.4-24.9-2.4
		c-17.1,0-30.7,3.9-40.7,11.7c-10,7.8-15,18.5-15,32.1c0,7,1.1,12.9,3.2,17.7c2.2,4.8,5.1,8.9,8.9,12.3c3.8,3.4,8.2,6.4,13.4,8.9
		c5.2,2.5,10.9,4.9,17.1,7.2c10.2,3.8,17.5,7.2,21.9,10.5c4.4,3.2,6.6,7.2,6.6,12.1c0,5.3-2.1,9-6.2,11.2
		c-4.1,2.2-10.7,3.2-19.8,3.2s-17.1-0.9-24.1-2.8c-7.1-1.9-13.1-3.9-18.2-5.9l-5.9,28.5c3.2,1.3,8.8,3.1,16.7,5.2
		c7.9,2.2,18.4,3.3,31.4,3.3c19.4,0,34.3-3.6,44.8-10.9c10.5-7.2,15.7-17.9,15.7-32.1c0-6.6-0.8-12.2-2.5-16.9
		C247.5,195.3,244.8,191.1,241.1,187.5z"/>
	
		<radialGradient id="SVGID_3_" cx="2004.9154" cy="114.8807" r="768.3535" fx="1992.3687" fy="581.9507" gradientTransform="matrix(1.2677 0 0 0.5468 -1803.8385 22.4176)" gradientUnits="userSpaceOnUse">
		<stop  offset="0" style="stop-color:#18AFF5"/>
		<stop  offset="0.1798" style="stop-color:#1F8EDC"/>
		<stop  offset="0.3641" style="stop-color:#2670C6"/>
		<stop  offset="0.4173" style="stop-color:#2867BF"/>
		<stop  offset="0.6177" style="stop-color:#2E4BAA"/>
		<stop  offset="0.7921" style="stop-color:#32399E"/>
		<stop  offset="0.9201" style="stop-color:#333399"/>
	</radialGradient>
	<path class="st2" d="M339.6,104.8c-8.7,0-17.1,1.6-25.4,4.9c-8.3,3.3-15.6,8.2-22,14.7c-6.4,6.5-11.5,14.6-15.4,24.4
		c-3.9,9.8-5.8,21.2-5.8,34.2c0,11.1,1.5,21.3,4.5,30.7c3,9.3,7.6,17.4,13.8,24.3c6.2,6.9,14.1,12.2,23.7,16.1
		c9.6,3.9,20.9,5.8,33.9,5.8c5.1,0,10.1-0.3,15-0.8c4.9-0.6,9.5-1.3,13.7-2.1c4.2-0.8,8-1.8,11.3-2.8c3.3-1,5.9-2,7.8-3l-4.5-28
		c-4,1.7-9.4,3.3-16.2,4.8c-6.9,1.5-14.5,2.3-22.7,2.3c-14.1,0-24.9-3.2-32.3-9.7c-7.4-6.5-11.6-15.7-12.6-27.5h97.5
		c0.2-1.9,0.3-4,0.4-6.4c0.1-2.4,0.1-4.5,0.1-6.4c0-25-5.7-43.9-17.1-56.5C375.8,111.1,359.9,104.8,339.6,104.8z M306.5,167.8
		c0.6-4.3,1.6-8.6,3.1-12.7c1.5-4.1,3.6-7.8,6.4-11c2.7-3.2,6.1-5.8,10-7.8c4-2,8.6-3,13.8-3c5.1,0,9.5,0.9,13.1,2.7
		c3.7,1.8,6.8,4.2,9.3,7.3c2.5,3.1,4.5,6.8,5.8,11c1.3,4.2,2,8.7,2,13.4H306.5z"/>
	
		<radialGradient id="SVGID_4_" cx="2004.9154" cy="114.8807" r="768.3535" fx="1992.3687" fy="581.9507" gradientTransform="matrix(1.2677 0 0 0.5468 -1803.8385 22.4176)" gradientUnits="userSpaceOnUse">
		<stop  offset="0" style="stop-color:#18AFF5"/>
		<stop  offset="0.1798" style="stop-color:#1F8EDC"/>
		<stop  offset="0.3641" style="stop-color:#2670C6"/>
		<stop  offset="0.4173" style="stop-color:#2867BF"/>
		<stop  offset="0.6177" style="stop-color:#2E4BAA"/>
		<stop  offset="0.7921" style="stop-color:#32399E"/>
		<stop  offset="0.9201" style="stop-color:#333399"/>
	</radialGradient>
	<path class="st3" d="M531.2,120.9c-4.6-5.1-10.8-9-18.5-11.9c-7.7-2.8-17.2-4.2-28.5-4.2c-9.4,0-18.3,0.8-26.6,2.3
		c-8.3,1.5-14.6,3-18.9,4.5l4.2,27.7c4.1-1.5,9.5-2.8,16.1-4c6.6-1.1,13.8-1.7,21.7-1.7c5.8,0,10.7,0.8,14.5,2.3
		c3.9,1.5,7,3.6,9.3,6.4c2.4,2.7,4,5.9,4.9,9.5c0.9,3.6,1.4,7.3,1.4,11.3v5.7c-4.7-1.1-9.1-1.9-13.3-2.4c-4.1-0.5-8.1-0.7-11.9-0.7
		c-8.1,0-15.9,0.8-23.3,2.4c-7.4,1.6-14,4.2-19.6,7.9c-5.6,3.7-10.1,8.4-13.4,14.3c-3.3,5.8-4.9,13-4.9,21.5
		c0,8.9,1.5,16.3,4.4,22.3c2.9,6,7,10.9,12.1,14.7c5.2,3.8,11.4,6.5,18.8,8.2c7.3,1.7,15.4,2.5,24.3,2.5c13.4,0,25.4-0.8,36-2.4
		c10.6-1.6,18.6-3,23.9-4.1v-89.5c0-8.7-1-16.6-3-23.9C539.2,132.2,535.9,126,531.2,120.9z M511,230.5c-5.5,1.1-13.5,1.7-24,1.7
		c-8.7,0-15.5-1.6-20.6-4.7s-7.6-8.7-7.6-16.8c0-4.1,0.9-7.6,2.8-10.3c1.9-2.7,4.4-4.8,7.5-6.4c3.1-1.5,6.6-2.5,10.5-3.1
		c3.9-0.6,7.7-0.8,11.4-0.8c4.3,0,8.3,0.3,11.9,0.8c3.6,0.6,6.3,1.1,8.2,1.7V230.5z"/>
	
		<radialGradient id="SVGID_5_" cx="2004.9154" cy="114.8807" r="768.3535" fx="1992.3687" fy="581.9507" gradientTransform="matrix(1.2677 0 0 0.5468 -1803.8385 22.4176)" gradientUnits="userSpaceOnUse">
		<stop  offset="0" style="stop-color:#18AFF5"/>
		<stop  offset="0.1798" style="stop-color:#1F8EDC"/>
		<stop  offset="0.3641" style="stop-color:#2670C6"/>
		<stop  offset="0.4173" style="stop-color:#2867BF"/>
		<stop  offset="0.6177" style="stop-color:#2E4BAA"/>
		<stop  offset="0.7921" style="stop-color:#32399E"/>
		<stop  offset="0.9201" style="stop-color:#333399"/>
	</radialGradient>
	<path class="st4" d="M773,124.2c-4.2-5.9-10.1-10.5-17.5-13.8c-7.4-3.3-16.9-4.9-28.4-4.9c-4.5,0-9,0.5-13.4,1.4
		c-4.4,0.9-8.6,2.1-12.6,3.5c-4,1.4-7.5,3-10.7,4.7c-3.2,1.7-5.8,3.3-7.9,4.8c-4.3-4.3-9.7-7.8-16.2-10.5c-6.5-2.6-14.8-4-25-4
		c-11.9,0-23.1,0.8-33.8,2.5c-10.6,1.7-19.3,3.5-25.8,5.4v142.9h34.2V137c2.3-0.4,5.6-0.8,10.2-1.4c4.5-0.6,8.7-0.8,12.4-0.8
		c10.5,0,17.7,3.4,21.6,10.3c3.9,6.9,5.8,18,5.8,33.5v77.7H700v-81.6c0-6-0.3-11.7-0.8-16.9c-0.6-5.3-1.6-10.3-3.1-15
		c2.4-1.7,6.1-3.4,11-5.2c4.9-1.8,10.1-2.7,15.5-2.7c10.7,0,18,3.4,21.7,10.3c3.8,6.9,5.7,18,5.7,33.5v77.7h34.2v-83
		c0-10-0.8-19.2-2.4-27.5C780.2,137.3,777.3,130.1,773,124.2z"/>
	
		<radialGradient id="SVGID_6_" cx="2004.9154" cy="114.8807" r="768.3535" fx="1992.3687" fy="581.9507" gradientTransform="matrix(1.2677 0 0 0.5468 -1803.8385 22.4176)" gradientUnits="userSpaceOnUse">
		<stop  offset="0" style="stop-color:#18AFF5"/>
		<stop  offset="0.1798" style="stop-color:#1F8EDC"/>
		<stop  offset="0.3641" style="stop-color:#2670C6"/>
		<stop  offset="0.4173" style="stop-color:#2867BF"/>
		<stop  offset="0.6177" style="stop-color:#2E4BAA"/>
		<stop  offset="0.7921" style="stop-color:#32399E"/>
		<stop  offset="0.9201" style="stop-color:#333399"/>
	</radialGradient>
	<path class="st5" d="M856.5,223.9c-1.7-2-2.9-4.4-3.5-7.2c-0.7-2.8-1-6.3-1-10.5V37l-34.2,5.7v170c0,7.3,0.8,13.9,2.4,19.6
		c1.6,5.7,4.4,10.5,8.3,14.4c4,3.9,9.3,6.8,16,8.9c6.7,2.1,15.1,3.2,25.3,3.4l4.8-28.2c-4.5-0.6-8.2-1.4-11.2-2.4
		C860.5,227.4,858.2,225.9,856.5,223.9z"/>
	
		<radialGradient id="SVGID_7_" cx="2004.9154" cy="114.8807" r="768.3535" fx="1992.3687" fy="581.9507" gradientTransform="matrix(1.2677 0 0 0.5468 -1803.8385 22.4176)" gradientUnits="userSpaceOnUse">
		<stop  offset="0" style="stop-color:#18AFF5"/>
		<stop  offset="0.1798" style="stop-color:#1F8EDC"/>
		<stop  offset="0.3641" style="stop-color:#2670C6"/>
		<stop  offset="0.4173" style="stop-color:#2867BF"/>
		<stop  offset="0.6177" style="stop-color:#2E4BAA"/>
		<stop  offset="0.7921" style="stop-color:#32399E"/>
		<stop  offset="0.9201" style="stop-color:#333399"/>
	</radialGradient>
	<path class="st6" d="M960.7,104.8c-8.7,0-17.1,1.6-25.4,4.9c-8.3,3.3-15.6,8.2-22,14.7c-6.4,6.5-11.5,14.6-15.4,24.4
		c-3.9,9.8-5.8,21.2-5.8,34.2c0,11.1,1.5,21.3,4.5,30.7c3,9.3,7.6,17.4,13.8,24.3c6.2,6.9,14.1,12.2,23.7,16.1
		c9.6,3.9,20.9,5.8,33.9,5.8c5.1,0,10.1-0.3,15-0.8c4.9-0.6,9.5-1.3,13.7-2.1c4.2-0.8,8-1.8,11.3-2.8c3.3-1,5.9-2,7.8-3l-4.5-28
		c-4,1.7-9.4,3.3-16.2,4.8c-6.9,1.5-14.5,2.3-22.7,2.3c-14.1,0-24.9-3.2-32.3-9.7c-7.4-6.5-11.6-15.7-12.6-27.5h97.5
		c0.2-1.9,0.3-4,0.4-6.4c0.1-2.4,0.1-4.5,0.1-6.4c0-25-5.7-43.9-17.1-56.5C996.9,111.1,981.1,104.8,960.7,104.8z M927.7,167.8
		c0.6-4.3,1.6-8.6,3.1-12.7c1.5-4.1,3.6-7.8,6.4-11c2.7-3.2,6.1-5.8,10-7.8c4-2,8.6-3,13.8-3c5.1,0,9.5,0.9,13.1,2.7
		c3.7,1.8,6.8,4.2,9.3,7.3c2.5,3.1,4.5,6.8,5.8,11c1.3,4.2,2,8.7,2,13.4H927.7z"/>
	
		<radialGradient id="SVGID_8_" cx="2004.9154" cy="114.8807" r="768.3535" fx="1992.3687" fy="581.9507" gradientTransform="matrix(1.2677 0 0 0.5468 -1803.8385 22.4176)" gradientUnits="userSpaceOnUse">
		<stop  offset="0" style="stop-color:#18AFF5"/>
		<stop  offset="0.1798" style="stop-color:#1F8EDC"/>
		<stop  offset="0.3641" style="stop-color:#2670C6"/>
		<stop  offset="0.4173" style="stop-color:#2867BF"/>
		<stop  offset="0.6177" style="stop-color:#2E4BAA"/>
		<stop  offset="0.7921" style="stop-color:#32399E"/>
		<stop  offset="0.9201" style="stop-color:#333399"/>
	</radialGradient>
	<path class="st7" d="M1145.3,187.5c-3.7-3.7-8.3-7-14-9.9c-5.6-2.9-12.5-5.9-20.6-8.9c-4.9-1.7-9-3.3-12.4-4.9
		c-3.4-1.6-6.1-3.2-8.2-4.8c-2.1-1.6-3.5-3.3-4.4-5.2c-0.8-1.9-1.3-4-1.3-6.5c0-4.9,2.2-8.5,6.5-10.9c4.3-2.4,10-3.5,16.9-3.5
		c7.7,0,14.5,0.7,20.3,2.1c5.8,1.4,10.6,3,14.4,4.7l6.2-27.7c-4-1.5-9.9-3.1-17.8-4.7c-7.9-1.6-16.2-2.4-24.9-2.4
		c-17.1,0-30.7,3.9-40.7,11.7c-10,7.8-15,18.5-15,32.1c0,7,1.1,12.9,3.2,17.7c2.2,4.8,5.1,8.9,8.9,12.3c3.8,3.4,8.2,6.4,13.4,8.9
		c5.2,2.5,10.9,4.9,17.1,7.2c10.2,3.8,17.5,7.2,21.9,10.5c4.4,3.2,6.6,7.2,6.6,12.1c0,5.3-2.1,9-6.2,11.2
		c-4.1,2.2-10.7,3.2-19.8,3.2c-9,0-17.1-0.9-24.1-2.8c-7.1-1.9-13.1-3.9-18.2-5.9l-5.9,28.5c3.2,1.3,8.8,3.1,16.7,5.2
		c7.9,2.2,18.4,3.3,31.4,3.3c19.4,0,34.3-3.6,44.8-10.9c10.5-7.2,15.7-17.9,15.7-32.1c0-6.6-0.8-12.2-2.5-16.9
		C1151.7,195.3,1149,191.1,1145.3,187.5z"/>
	
		<radialGradient id="SVGID_9_" cx="2004.9154" cy="114.8807" r="768.3535" fx="1992.3687" fy="581.9507" gradientTransform="matrix(1.2677 0 0 0.5468 -1803.8385 22.4176)" gradientUnits="userSpaceOnUse">
		<stop  offset="0" style="stop-color:#18AFF5"/>
		<stop  offset="0.1798" style="stop-color:#1F8EDC"/>
		<stop  offset="0.3641" style="stop-color:#2670C6"/>
		<stop  offset="0.4173" style="stop-color:#2867BF"/>
		<stop  offset="0.6177" style="stop-color:#2E4BAA"/>
		<stop  offset="0.7921" style="stop-color:#32399E"/>
		<stop  offset="0.9201" style="stop-color:#333399"/>
	</radialGradient>
	<path class="st8" d="M1274.4,187.5c-3.7-3.7-8.3-7-14-9.9c-5.6-2.9-12.5-5.9-20.6-8.9c-4.9-1.7-9-3.3-12.4-4.9
		c-3.4-1.6-6.1-3.2-8.2-4.8c-2.1-1.6-3.5-3.3-4.4-5.2c-0.8-1.9-1.3-4-1.3-6.5c0-4.9,2.2-8.5,6.5-10.9c4.3-2.4,10-3.5,16.9-3.5
		c7.7,0,14.5,0.7,20.3,2.1c5.8,1.4,10.6,3,14.4,4.7l6.2-27.7c-4-1.5-9.9-3.1-17.8-4.7c-7.9-1.6-16.2-2.4-24.9-2.4
		c-17.1,0-30.7,3.9-40.7,11.7c-10,7.8-15,18.5-15,32.1c0,7,1.1,12.9,3.2,17.7c2.2,4.8,5.1,8.9,8.9,12.3c3.8,3.4,8.2,6.4,13.4,8.9
		c5.2,2.5,10.9,4.9,17.1,7.2c10.2,3.8,17.5,7.2,21.9,10.5c4.4,3.2,6.6,7.2,6.6,12.1c0,5.3-2.1,9-6.2,11.2
		c-4.1,2.2-10.7,3.2-19.8,3.2c-9,0-17.1-0.9-24.1-2.8c-7.1-1.9-13.1-3.9-18.2-5.9l-5.9,28.5c3.2,1.3,8.8,3.1,16.7,5.2
		c7.9,2.2,18.4,3.3,31.4,3.3c19.4,0,34.3-3.6,44.8-10.9c10.5-7.2,15.7-17.9,15.7-32.1c0-6.6-0.8-12.2-2.5-16.9
		C1280.8,195.3,1278.1,191.1,1274.4,187.5z"/>
	
		<radialGradient id="SVGID_10_" cx="2004.9154" cy="114.8807" r="768.3535" fx="1992.3687" fy="581.9507" gradientTransform="matrix(1.2677 0 0 0.5468 -1803.8385 22.4176)" gradientUnits="userSpaceOnUse">
		<stop  offset="0" style="stop-color:#18AFF5"/>
		<stop  offset="0.1798" style="stop-color:#1F8EDC"/>
		<stop  offset="0.3641" style="stop-color:#2670C6"/>
		<stop  offset="0.4173" style="stop-color:#2867BF"/>
		<stop  offset="0.6177" style="stop-color:#2E4BAA"/>
		<stop  offset="0.7921" style="stop-color:#32399E"/>
		<stop  offset="0.9201" style="stop-color:#333399"/>
	</radialGradient>
	<path class="st9" d="M1364,162.9c-4.1-5.4-6.1-11.7-6.1-19.1v-41.5c0-8.9-0.8-16.7-2.5-23.6c-1.7-6.9-4.7-12.6-9-17.2
		c-4.3-4.6-10.4-8.1-18.1-10.5c-7.7-2.4-17.6-3.5-29.7-3.5h-2v27.1c5.5,0,10.1,0.4,13.8,1.1c3.8,0.8,6.8,2.1,9,4.1
		c2.3,2,3.9,4.6,4.9,7.9c1,3.3,1.6,7.5,1.6,12.6v40.4c0,11.3,1.5,20.3,4.4,27c2.9,6.7,7.9,12.2,14.8,16.5c-7,4.3-11.9,9.9-14.8,16.7
		c-2.9,6.8-4.4,15.7-4.4,26.8v40.7c0,10-2.2,16.7-6.5,20.2c-4.3,3.5-12,5.2-22.9,5.2V321c12.6,0,22.9-1.1,30.8-3.4
		c7.9-2.3,14.1-5.7,18.6-10.3c4.5-4.6,7.6-10.3,9.3-17.1c1.7-6.8,2.5-14.7,2.5-23.7v-41.8c0-7.2,2-13.4,6.1-18.8
		c4-5.4,10.4-8,19.1-8V171C1374.4,171,1368,168.3,1364,162.9z"/>
</g>
</svg>
