<?xml version="1.0" encoding="UTF-8"?>
<svg width="490px" height="428px" viewBox="0 0 490 428" version="1.1" xmlns="http://www.w3.org/2000/svg" xmlns:xlink="http://www.w3.org/1999/xlink">
    <!-- Generator: Sketch 52.6 (67491) - http://www.bohemiancoding.com/sketch -->
    <title>chat (1)</title>
    <desc>Created with Sketch.</desc>
    <g id="Page-1" stroke="none" stroke-width="1" fill="none" fill-rule="evenodd">
        <g id="chat-(1)">
            <path d="M228.3,212.35 L350.8,212.35 L416.6,275.35 L416.6,212.35 L444.5,212.35 C464.1,212.35 480.1,196.35 480.1,176.75 L480.1,44.75 C480.1,25.15 464.1,9.15 444.5,9.15 L228.3,9.15 C208.7,9.15 192.7,25.15 192.7,44.75 L192.7,176.75 C192.7,196.35 208.7,212.35 228.3,212.35 Z" id="XMLID_61_" fill-opacity="0.105751812" fill="#D0021B"></path>
            <path d="M68.5,426.55 C69.6,427.05 70.9,427.25 72.1,427.25 C74.4,427.25 76.7,426.35 78.4,424.75 L141.1,364.75 L259,364.75 C283.5,364.75 303.4,344.85 303.4,320.35 L303.4,253.45 C303.4,248.45 299.3,244.35 294.3,244.35 C289.3,244.35 285.2,248.45 285.2,253.45 L285.2,320.35 C285.2,334.85 273.4,346.55 259,346.55 L137.4,346.55 C135.1,346.55 132.8,347.45 131.1,349.05 L81.1,396.85 L81.1,355.75 C81.1,350.75 77,346.65 72,346.65 L44.4,346.65 C29.9,346.65 18.2,334.85 18.2,320.45 L18.2,189.45 C18.2,174.95 30,163.15 44.4,163.15 L151.7,163.15 C156.7,163.15 160.8,159.05 160.8,154.05 C160.8,149.05 156.7,144.95 151.7,144.95 L44.4,144.95 C19.9,144.95 0,164.85 0,189.35 L0,320.35 C0,344.85 19.9,364.75 44.4,364.75 L63,364.75 L63,418.25 C63,421.85 65.2,425.15 68.5,426.55 Z" id="Path" fill="#FF6174"></path>
            <path d="M410.4,281.95 C412.1,283.55 414.4,284.45 416.7,284.45 C417.9,284.45 419.1,284.25 420.3,283.75 C423.6,282.35 425.8,279.05 425.8,275.45 L425.8,221.45 L444.6,221.45 C469.2,221.45 489.3,201.45 489.3,176.75 L489.3,44.75 C489.3,20.15 469.3,0.05 444.6,0.05 L228.3,0.05 C203.7,0.05 183.6,20.05 183.6,44.75 L183.6,176.75 C183.6,201.35 203.6,221.45 228.3,221.45 L347.2,221.45 L410.4,281.95 Z M201.8,176.75 L201.8,44.75 C201.8,30.15 213.7,18.25 228.3,18.25 L444.5,18.25 C459.1,18.25 471,30.15 471,44.75 L471,176.75 C471,191.35 459.1,203.25 444.5,203.25 L416.6,203.25 C411.6,203.25 407.5,207.35 407.5,212.35 L407.5,254.15 L357,205.85 C355.3,204.25 353.1,203.35 350.7,203.35 L228.3,203.35 C213.7,203.35 201.8,191.45 201.8,176.75 Z" id="Shape" fill="#FF6174" fill-rule="nonzero"></path>
        </g>
    </g>
</svg>