<?xml version="1.0" encoding="UTF-8"?>
<svg width="46px" height="48px" viewBox="0 0 46 48" version="1.1" xmlns="http://www.w3.org/2000/svg" xmlns:xlink="http://www.w3.org/1999/xlink">
    <!-- Generator: Sketch 52.6 (67491) - http://www.bohemiancoding.com/sketch -->
    <title>Artboard</title>
    <desc>Created with Sketch.</desc>
    <g id="Artboard" stroke="none" stroke-width="1" fill="none" fill-rule="evenodd">
        <g id="Group" transform="translate(2.000000, 4.000000)" fill="#FFFFFF">
            <g id="Path">
                <g>
                    <path d="M3.84026341,20.2011192 C3.84026341,12.235214 9.76876094,5.36266824 17.9069712,3.85279078 C18.7692981,3.69659656 19.3082524,2.91562545 19.1465661,2.13465435 C19.0926707,1.77020117 18.8231935,1.40574799 18.4998209,1.19748903 C18.1764484,0.989230064 17.7452849,0.885100584 17.3141214,0.989230064 C7.72073452,2.75943123 0.714328346,10.8815307 0.714328346,20.2531839 C0.714328346,23.1167447 1.36107353,25.9282406 2.60066847,28.4794129 C2.87014563,29.0000603 3.40909995,29.3124487 4.00194971,29.3124487 C4.21753143,29.3124487 4.43311316,29.260384 4.64869489,29.1562545 C5.40323094,28.7918013 5.78049897,27.9067008 5.40323094,27.1777944 C4.37921773,24.9910753 3.84026341,22.648162 3.84026341,20.2011192 Z"></path>
                    <path d="M4.05584514,29.9892904 C3.19351822,29.9892904 2.38508674,29.5207077 2.00781872,28.7397366 C0.714328346,26.0323701 0.0675831609,23.1688094 0.0675831609,20.2011192 C0.0675831609,10.5170775 7.28957106,2.13465435 17.260226,0.260323701 C17.8530758,0.156194221 18.4459255,0.260323701 18.9309844,0.572712143 C19.4160433,0.885100584 19.7933113,1.40574799 19.9011022,1.97846013 C20.008893,2.55117227 19.9011022,3.12388441 19.5777296,3.59246708 C19.254357,4.06104974 18.7154027,4.42550292 18.1225529,4.5296324 C10.3077153,5.98744513 4.59479946,12.5996671 4.59479946,20.2011192 C4.59479946,22.5440325 5.13375378,24.7828163 6.15776699,26.9174707 C6.42724415,27.4381181 6.42724415,28.0108302 6.21166242,28.5835424 C5.99608069,29.1562545 5.56491724,29.5727725 5.02596292,29.8330962 C4.70259032,29.9372256 4.37921773,29.9892904 4.05584514,29.9892904 Z"></path>
                </g>
                <g transform="translate(22.097127, 0.000000)">
                    <path d="M14.7810361,7.54938733 C11.6551011,4.06104974 7.28957106,1.71813643 2.54677304,0.937165324 C1.68444612,0.780971103 0.929910075,1.35368325 0.768223778,2.13465435 C0.606537482,2.91562545 1.19938724,3.69659656 2.06171415,3.85279078 C6.10387156,4.47756766 9.76876094,6.45602779 12.4635325,9.47578272 C15.1583042,12.4955377 16.6673763,16.3483284 16.6673763,20.3052487 C16.6673763,22.7002267 16.1284219,25.0431401 15.1044087,27.1777944 C14.9427224,27.5422476 14.9427224,27.9587655 15.0505133,28.3232187 C15.2121996,28.6876719 15.4816767,29.0000603 15.8589448,29.1562545 C16.0745265,29.260384 16.2901082,29.3124487 16.50569,29.3124487 C17.0985397,29.3124487 17.637494,28.9479956 17.9069712,28.4273482 C19.1465661,25.8761759 19.7394159,23.1688094 19.7394159,20.3052487 C19.6855205,15.6194221 17.9608666,11.0897897 14.7810361,7.54938733 Z"></path>
                    <path d="M16.4517945,29.9372256 C16.1284219,29.9372256 15.8050493,29.8851609 15.5355722,29.7289667 C14.9966179,29.468643 14.5654544,29.052125 14.3498727,28.5314776 C14.1342909,28.0108302 14.1342909,27.3860534 14.4037681,26.865406 C15.3738859,24.7828163 15.9128402,22.5440325 15.9128402,20.2531839 C15.9128402,16.4524579 14.511559,12.7558614 11.9245782,9.89230064 C9.39149292,7.02873993 5.8343944,5.10234454 1.95392329,4.5296324 C1.36107353,4.42550292 0.822119211,4.11311448 0.498746618,3.64453182 C0.175374025,3.17594915 0.0136877288,2.60323701 0.121478593,2.03052487 C0.337060322,0.833035844 1.4688644,0.0520647402 2.70845933,0.260323701 C7.61294366,1.0412948 12.0862645,3.4883376 15.3738859,7.08080467 C18.6615072,10.7253365 20.4939519,15.4632278 20.4939519,20.2531839 C20.4939519,23.1688094 19.8472067,25.9803054 18.6076118,28.6356071 C18.1225529,29.468643 17.3141214,29.9372256 16.4517945,29.9372256 Z"></path>
                </g>
                <g transform="translate(5.389543, 30.718197)">
                    <path d="M28.2548942,1.24955377 C24.9672728,4.42550292 20.5478474,6.19570409 15.8589448,6.19570409 C11.1161467,6.19570409 6.69672131,4.42550292 3.40909995,1.19748903 C3.13962279,0.937165324 2.70845933,0.780971103 2.33119131,0.728906363 C1.90002785,0.728906363 1.52275983,0.885100584 1.25328267,1.14542429 C0.660432914,1.71813643 0.606537482,2.65530175 1.25328267,3.22801389 C5.13375378,7.02873993 10.3616107,9.16339428 15.9128402,9.16339428 C21.4640697,9.16339428 26.6380312,7.08080467 30.5185023,3.33214337 C31.1113521,2.75943123 31.1113521,1.82226591 30.5185023,1.24955377 C29.8717571,0.676841623 28.9016393,0.676841623 28.2548942,1.24955377 Z"></path>
                    <path d="M15.8589448,9.89230064 C10.0921335,9.89230064 4.70259032,7.70558155 0.660432914,3.7486613 C0.229269457,3.33214337 0.0136877288,2.81149597 0.0136877288,2.18671909 C0.0136877288,1.61400695 0.283164889,1.0412948 0.714328346,0.676841623 C1.1454918,0.260323701 1.73834156,0.0520647402 2.33119131,0.0520647402 C2.92404106,0.0520647402 3.46299538,0.312388441 3.89415884,0.676841623 C7.07398934,3.80072604 11.3317285,5.51886246 15.8589448,5.51886246 C20.3861611,5.51886246 24.5900048,3.85279078 27.7698353,0.780971103 C28.6321622,-0.0520647402 30.0873389,-0.0520647402 30.9496658,0.780971103 C31.3808292,1.19748903 31.596411,1.71813643 31.6503064,2.29084857 C31.6503064,2.86356071 31.4347247,3.43627286 31.0035612,3.85279078 C26.9614038,7.70558155 21.5718606,9.89230064 15.8589448,9.89230064 Z"></path>
                </g>
            </g>
        </g>
    </g>
</svg>