<?xml version="1.0" encoding="UTF-8"?>
<svg width="200px" height="200px" viewBox="0 0 200 200" version="1.1" xmlns="http://www.w3.org/2000/svg" xmlns:xlink="http://www.w3.org/1999/xlink">
    <!-- Generator: Sketch 52.6 (67491) - http://www.bohemiancoding.com/sketch -->
    <title>Artboard</title>
    <desc>Created with Sketch.</desc>
    <defs>
        <linearGradient x1="50%" y1="0%" x2="50%" y2="100%" id="linearGradient-1">
            <stop stop-color="#346EE5" offset="0%"></stop>
            <stop stop-color="#2D4B89" offset="97.5388367%"></stop>
        </linearGradient>
    </defs>
    <g id="Artboard" stroke="none" stroke-width="1" fill="none" fill-rule="evenodd">
        <rect id="Rectangle" fill="url(#linearGradient-1)" fill-rule="nonzero" x="14" y="13" width="172" height="175" rx="28"></rect>
        <g id="Group" transform="translate(39.000000, 42.000000)">
            <g id="Path">
                <g>
                    <path d="M11.9471311,57.4714768 C11.9471311,34.8087553 28.582377,15.2566034 51.4180328,10.9610549 C53.8377049,10.5166878 55.35,8.29485232 54.8963115,6.07301688 C54.745082,5.03616034 53.9889344,3.9993038 53.0815574,3.40681435 C52.1741803,2.81432489 50.9643443,2.51808017 49.7545082,2.81432489 C22.8356557,7.85048523 3.17581967,30.9575738 3.17581967,57.6195992 C3.17581967,65.7663291 4.99057377,73.7649367 8.46885246,81.0229325 C9.225,82.5041561 10.7372951,83.3928903 12.4008197,83.3928903 C13.0057377,83.3928903 13.6106557,83.2447679 14.2155738,82.9485232 C16.3327869,81.9116667 17.3913934,79.3935865 16.3327869,77.3198734 C13.4594262,71.0987342 11.9471311,64.4332278 11.9471311,57.4714768 Z"></path>
                    <path d="M12.5520492,85.318481 C10.132377,85.318481 7.86393443,83.9853797 6.80532787,81.7635443 C3.17581967,74.0611814 1.36106557,65.9144515 1.36106557,57.4714768 C1.36106557,29.9207173 21.6258197,6.07301688 49.6032787,0.740611814 C51.2668033,0.444367089 52.9303279,0.740611814 54.2913934,1.62934599 C55.652459,2.51808017 56.7110656,3.9993038 57.0135246,5.62864979 C57.3159836,7.25799578 57.0135246,8.88734177 56.1061475,10.220443 C55.1987705,11.5535443 53.6864754,12.5904008 52.0229508,12.8866456 C30.0946721,17.0340717 14.0643443,35.8456118 14.0643443,57.4714768 C14.0643443,64.1369831 15.5766393,70.5062447 18.45,76.5792616 C19.2061475,78.0604852 19.2061475,79.6898312 18.6012295,81.3191772 C17.9963115,82.9485232 16.7864754,84.1335021 15.2741803,84.8741139 C14.3668033,85.1703586 13.4594262,85.318481 12.5520492,85.318481 Z" fill="#FFFFFF"></path>
                </g>
                <g transform="translate(62.004098, 0.000000)">
                    <path d="M42.6467213,21.4777426 C33.8754098,11.5535443 21.6258197,4.88803797 8.31762295,2.66620253 C5.89795082,2.22183544 3.7807377,3.85118143 3.32704918,6.07301688 C2.87336066,8.29485232 4.53688525,10.5166878 6.95655738,10.9610549 C18.2987705,12.7385232 28.582377,18.367173 36.1438525,26.95827 C43.7053279,35.5493671 47.9397541,46.5104219 47.9397541,57.7677215 C47.9397541,64.5813502 46.427459,71.2468565 43.5540984,77.3198734 C43.1004098,78.35673 43.1004098,79.5417089 43.4028689,80.5785654 C43.8565574,81.6154219 44.6127049,82.5041561 45.6713115,82.9485232 C46.2762295,83.2447679 46.8811475,83.3928903 47.4860656,83.3928903 C49.1495902,83.3928903 50.6618852,82.3560338 51.4180328,80.8748101 C54.8963115,73.6168143 56.5598361,65.9144515 56.5598361,57.7677215 C56.4086066,44.4367089 51.5692623,31.5500633 42.6467213,21.4777426 Z"></path>
                    <path d="M47.3348361,85.1703586 C46.427459,85.1703586 45.520082,85.0222363 44.7639344,84.5778692 C43.2516393,83.8372574 42.0418033,82.6522785 41.4368852,81.1710549 C40.8319672,79.6898312 40.8319672,77.9123629 41.5881148,76.4311392 C44.3102459,70.5062447 45.822541,64.1369831 45.822541,57.6195992 C45.822541,46.8066667 41.8905738,36.2899789 34.6315574,28.1432489 C27.5237705,19.996519 17.542623,14.5159916 6.65409836,12.8866456 C4.99057377,12.5904008 3.47827869,11.7016667 2.57090164,10.3685654 C1.66352459,9.03546414 1.20983607,7.40611814 1.51229508,5.77677215 C2.11721311,2.36995781 5.29303279,0.148122363 8.77131148,0.740611814 C22.5331967,2.96244726 35.0852459,9.92419831 44.3102459,20.1446414 C53.5352459,30.5132068 58.6770492,43.9923418 58.6770492,57.6195992 C58.6770492,65.9144515 56.8622951,73.9130591 53.3840164,81.4672996 C52.0229508,83.8372574 49.7545082,85.1703586 47.3348361,85.1703586 Z" fill="#FFFFFF"></path>
                </g>
                <g transform="translate(15.122951, 87.392194)">
                    <path d="M80.4540984,3.55493671 C71.2290984,12.5904008 58.8282787,17.6265612 45.6713115,17.6265612 C32.3631148,17.6265612 19.9622951,12.5904008 10.7372951,3.40681435 C9.98114754,2.66620253 8.77131148,2.22183544 7.71270492,2.07371308 C6.50286885,2.07371308 5.4442623,2.51808017 4.68811475,3.25869198 C3.02459016,4.88803797 2.87336066,7.55424051 4.68811475,9.1835865 C15.5766393,19.996519 30.2459016,26.0695359 45.822541,26.0695359 C61.3991803,26.0695359 75.9172131,20.1446414 86.8057377,9.47983122 C88.4692623,7.85048523 88.4692623,5.1842827 86.8057377,3.55493671 C84.9909836,1.92559072 82.2688525,1.92559072 80.4540984,3.55493671 Z"></path>
                    <path d="M45.6713115,28.1432489 C29.4897541,28.1432489 14.3668033,21.9221097 3.02459016,10.6648101 C1.8147541,9.47983122 1.20983607,7.99860759 1.20983607,6.22113924 C1.20983607,4.59179325 1.96598361,2.96244726 3.17581967,1.92559072 C4.38565574,0.740611814 6.04918033,0.148122363 7.71270492,0.148122363 C9.37622951,0.148122363 10.8885246,0.888734177 12.0983607,1.92559072 C21.0209016,10.8129325 32.9680328,15.7009705 45.6713115,15.7009705 C58.3745902,15.7009705 70.1704918,10.9610549 79.0930328,2.22183544 C81.5127049,-0.148122363 85.5959016,-0.148122363 88.0155738,2.22183544 C89.2254098,3.40681435 89.8303279,4.88803797 89.9815574,6.51738397 C89.9815574,8.14672996 89.3766393,9.77607595 88.1668033,10.9610549 C76.8245902,21.9221097 61.7016393,28.1432489 45.6713115,28.1432489 Z" fill="#FFFFFF"></path>
                </g>
            </g>
        </g>
    </g>
</svg>