<?xml version="1.0" encoding="UTF-8"?>
<svg width="50px" height="50px" viewBox="0 0 50 50" version="1.1" xmlns="http://www.w3.org/2000/svg" xmlns:xlink="http://www.w3.org/1999/xlink">
    <!-- Generator: Sketch 52.6 (67491) - http://www.bohemiancoding.com/sketch -->
    <title>Artboard</title>
    <desc>Created with Sketch.</desc>
    <defs>
        <linearGradient x1="50%" y1="-14.33%" x2="50%" y2="100%" id="linearGradient-1">
            <stop stop-color="#FFFFFF" offset="0%"></stop>
            <stop stop-color="#F4F4F4" offset="100%"></stop>
        </linearGradient>
    </defs>
    <g id="Artboard" stroke="none" stroke-width="1" fill="none" fill-rule="evenodd">
        <g id="Group" transform="translate(5.000000, 5.000000)">
            <circle id="Oval" fill="url(#linearGradient-1)" cx="20" cy="20" r="20"></circle>
            <path d="M27.438,10.519 C25.382,8.94 22.802,8 20,8 C17.198,8 14.618,8.94 12.562,10.519 M21.729,32 C24.211,31.649 26.451,30.556 28.213,28.953 C30.638,26.748 32.158,23.58 32.158,20.061 C32.158,17.369 31.269,14.884 29.768,12.878 M18.271,32 C15.789,31.649 13.549,30.556 11.787,28.953 C9.362,26.748 7.842,23.58 7.842,20.061 C7.842,17.369 8.731,14.884 10.232,12.878" id="Shape" stroke="#343BE5" stroke-width="1.50376" stroke-linecap="round"></path>
            <path d="M14.881,26.487 C16.296,27.567 18.072,28.211 20,28.211 C21.928,28.211 23.704,27.567 25.119,26.487 M18.81,11.789 C17.102,12.029 15.56,12.778 14.347,13.874 C12.678,15.383 11.632,17.55 11.632,19.959 C11.632,21.8 12.243,23.5 13.277,24.873 M21.19,11.789 C22.898,12.029 24.44,12.778 25.653,13.874 C27.322,15.383 28.368,17.55 28.368,19.959 C28.368,21.8 27.757,23.5 26.723,24.873" id="Shape" stroke="#343BE5" stroke-width="1.50376" stroke-linecap="round"></path>
        </g>
    </g>
</svg>