<svg width="1939" height="2500" viewBox="0 0 256 330" xmlns="http://www.w3.org/2000/svg" preserveAspectRatio="xMinYMin meet"><defs><linearGradient x1="35.204%" y1="65.079%" x2="101.159%" y2="50%" id="a"><stop stop-color="#FFF" offset="0%"/><stop stop-color="#C0815E" offset="100%"/></linearGradient><radialGradient fx="50%" fy="50%" r="50.521%" id="b"><stop stop-color="#FFF" offset="0%"/><stop stop-color="#A94436" offset="100%"/></radialGradient></defs><path d="M4.096 325.463s.497-77.984.497-157.26C4.593 14.654-8.346 3.217 60.55 3.217H252.32v221.483c0 72.91 13.629 101.472-62.994 101.472-76.622 0-185.229-.708-185.229-.708z" fill="#A62C39"/><path d="M1.887 29.917s12.288 2.458 22.938 20.48c10.65 18.023 67.176 158.11 67.176 158.11V94.634L39.57 9.437 54.317 27.46 82.17 4.52 46.125 2.064 1.887 29.917z" transform="translate(160.318 2.266)" fill="url(#a)"/><path d="M3.102.889s81.102 54.068 120.425 64.718c39.322 10.65 79.464 22.15 79.464 22.15l-92.572 229.35 40.142 1.638 52.43-128.604L201.352.07 3.102.89z" opacity=".668" fill="url(#b)" transform="translate(50.147 4.26)"/><path d="M128.617 246.817l82.419 79.22-155.33-1.394s-4.915-49.972-3.276-76.187c1.638-26.215 9.83-26.215 9.83-26.215l66.357 24.576z" fill-opacity=".44" fill="#FFF"/><path d="M206.443 326.282l-76.188-78.645-69.633-26.215L6.554 100.997 63.899 5.15H27.163L9.831 18.257 4.096 29.726v296.556h202.347z" fill-opacity=".362"/><path d="M253.138 200.942s-77.006 24.576-122.883 47.514c-45.876 22.939-70.452 78.645-70.452 78.645s98.306-4.915 135.17-3.277c36.865 1.639 54.069 1.639 57.346-49.972 3.277-51.61.819-72.91.819-72.91z" opacity=".5" fill="#83222D"/><g fill="#FFF"><path d="M27.833 249.867v48.385h12.34v-12.603l11.232 11.231H70.34l-15.018-15.018s10.805-.174 11.623-15.801c0-14.337-10.817-16.194-23.31-16.194H27.833zm12.928 13.125h10.644v8.619H40.76v-8.62zM94.173 250.063c-6.756-.038-16.128.589-16.128 13.32v33.628h12.668v-8.227h12.275v8.031h12.733v-35.26c0-11.06-12.287-11.492-18.87-11.492-.823 0-1.712.007-2.678 0zm-3.264 12.145h11.883v13.255H90.91v-13.255zM128.412 250.095h13.107v46.286h-13.107zM155.242 250.71v46.285h31.54v-12.288h-18.638v-34.203l-12.902.205zM228.561 250.3v12.493h-21.094v4.505h9.011c4.71 0 14.541-.204 14.541 14.542 0 14.745-6.758 15.565-20.48 15.565h-16.59V286.14h19.047c5.735 0 6.051-1.866 6.051-3.493 0-1.627-2.932-2.383-8.895-2.383-5.962 0-17.022-2.93-17.022-14.4 0-11.468 5.735-15.77 17.204-15.77 11.469 0 18.227.206 18.227.206z"/></g><g fill="#FFF"><path d="M39.322 236.168h108.956s-24.167-54.887-18.023-105.27c6.145-50.381 45.877-73.319 68.405-75.777 22.529-2.457 34.817 11.47 34.817 11.47l4.915-7.374s-32.359-32.768-73.32-29.082c-40.96 3.687-69.224 30.72-86.837 63.49-17.613 32.768-27.853 55.706-34.817 90.113-6.963 34.407-4.096 52.43-4.096 52.43zM17.613 181.28l21.3 1.64-3.687 21.299-20.07-2.458 2.457-20.48zM51.201 136.224l5.735-15.975-18.842-7.373-6.145 17.204 19.252 6.144zM77.826 81.336L88.885 68.23l-14.336-9.421-11.47 12.698 14.747 9.83zM106.908 30.545l9.83 11.878 13.517-7.782-9.83-11.06-13.517 6.964zM154.832 17.028l2.458 11.878 16.794-.41-1.639-10.649-17.613-.82z"/><path d="M211.768 29.726l-.41 7.373 11.469 6.144 2.458-3.687-13.517-9.83zM209.31 61.265v6.145l11.06 1.228v-4.915l-11.06-2.458zM174.084 66.59l5.324 9.831 7.783-6.144-1.638-6.554-11.47 2.867zM157.29 79.288l8.192 12.288-4.916 8.602-11.878-13.107 8.602-7.783zM140.905 113.286l-5.325 10.65 13.927 11.878 3.277-13.517-11.879-9.011zM135.17 150.56l-.818 14.336 17.203 7.373-.82-13.517-15.564-8.192zM140.086 201.351l4.096 14.746 21.71 1.23-7.783-15.976h-18.023z"/></g><path d="M7.23 325.483l.006-.896.016-2.611.056-9.92c.058-10.688.116-22.615.17-35.481.156-36.76.249-73.683.249-108.371 0-17.874-.154-33.483-.483-55.323-1.006-66.73-.522-79.44 5.048-91.433C17.888 9.4 28.392 6.35 60.55 6.35H252.32l-3.134-3.134v221.483c0 6.797.073 12.662.25 22.541.686 38.077-.157 48.904-6.303 58.938-7.188 11.737-22.663 16.859-53.807 16.859-17.583 0-38.269-.04-61.423-.116-18.624-.06-38.366-.141-58.68-.238a49757.97 49757.97 0 0 1-63.832-.346l-1.274-.008 3.114 3.154zm-6.288 3.094l3.134.02a10459.048 10459.048 0 0 0 4.952.03 49763.195 49763.195 0 0 0 60.163.324c20.318.097 40.063.178 58.691.239 23.16.075 43.852.115 61.443.115 33.108 0 50.524-5.764 59.153-19.853 7.07-11.543 7.938-22.703 7.225-62.324-.177-9.844-.25-15.679-.25-22.429V.082H60.55C26.07.082 13.626 3.694 6.607 18.807 3.098 26.362 1.403 36.821.788 52.98.314 65.432.363 72.295.977 112.976c.328 21.811.482 37.391.482 55.228 0 34.678-.094 71.592-.249 108.344a29153.399 29153.399 0 0 1-.227 45.39l-.015 2.61-.026 4.03z" fill="#5E000E"/></svg>