<?xml version="1.0" encoding="UTF-8"?>
<svg width="1338px" height="284px" viewBox="0 0 1338 284" version="1.1" xmlns="http://www.w3.org/2000/svg" xmlns:xlink="http://www.w3.org/1999/xlink">
    <!-- Generator: Sketch 52.6 (67491) - http://www.bohemiancoding.com/sketch -->
    <title>blue-logo</title>
    <desc>Created with Sketch.</desc>
    <defs>
        <radialGradient cx="801.843464%" cy="13.8069399%" fx="801.843464%" fy="13.8069399%" r="1127.36312%" gradientTransform="translate(8.018435,0.138069),scale(1.000000,0.316136),translate(-8.018435,-0.138069)" id="radialGradient-1">
            <stop stop-color="#18AFF5" offset="0%"></stop>
            <stop stop-color="#1F8EDC" offset="17.98%"></stop>
            <stop stop-color="#2670C6" offset="36.41%"></stop>
            <stop stop-color="#2867BF" offset="41.73%"></stop>
            <stop stop-color="#2E4BAA" offset="61.77%"></stop>
            <stop stop-color="#32399E" offset="79.21%"></stop>
            <stop stop-color="#333399" offset="92.01%"></stop>
        </radialGradient>
        <radialGradient cx="547.691301%" cy="-12.6711554%" fx="547.691301%" fy="-12.6711554%" r="896.907672%" gradientTransform="translate(5.476913,-0.126712),scale(1.000000,0.699742),translate(-5.476913,0.126712)" id="radialGradient-2">
            <stop stop-color="#18AFF5" offset="0%"></stop>
            <stop stop-color="#1F8EDC" offset="17.98%"></stop>
            <stop stop-color="#2670C6" offset="36.41%"></stop>
            <stop stop-color="#2867BF" offset="41.73%"></stop>
            <stop stop-color="#2E4BAA" offset="61.77%"></stop>
            <stop stop-color="#32399E" offset="79.21%"></stop>
            <stop stop-color="#333399" offset="92.01%"></stop>
        </radialGradient>
        <radialGradient cx="349.919605%" cy="-12.6148506%" fx="349.919605%" fy="-12.6148506%" r="730.166216%" gradientTransform="translate(3.499196,-0.126149),scale(1.000000,0.860090),translate(-3.499196,0.126149)" id="radialGradient-3">
            <stop stop-color="#18AFF5" offset="0%"></stop>
            <stop stop-color="#1F8EDC" offset="17.98%"></stop>
            <stop stop-color="#2670C6" offset="36.41%"></stop>
            <stop stop-color="#2867BF" offset="41.73%"></stop>
            <stop stop-color="#2E4BAA" offset="61.77%"></stop>
            <stop stop-color="#32399E" offset="79.21%"></stop>
            <stop stop-color="#333399" offset="92.01%"></stop>
        </radialGradient>
        <radialGradient cx="262.253349%" cy="-12.6474682%" fx="262.253349%" fy="-12.6474682%" r="815.097684%" gradientTransform="translate(2.622533,-0.126475),scale(1.000000,0.772463),translate(-2.622533,0.126475)" id="radialGradient-4">
            <stop stop-color="#18AFF5" offset="0%"></stop>
            <stop stop-color="#1F8EDC" offset="17.98%"></stop>
            <stop stop-color="#2670C6" offset="36.41%"></stop>
            <stop stop-color="#2867BF" offset="41.73%"></stop>
            <stop stop-color="#2E4BAA" offset="61.77%"></stop>
            <stop stop-color="#32399E" offset="79.21%"></stop>
            <stop stop-color="#333399" offset="92.01%"></stop>
        </radialGradient>
        <radialGradient cx="77.0828408%" cy="-13.354724%" fx="77.0828408%" fy="-13.354724%" r="645.06075%" gradientTransform="translate(0.770828,-0.133547),scale(0.745679,1.000000),translate(-0.770828,0.133547)" id="radialGradient-5">
            <stop stop-color="#18AFF5" offset="0%"></stop>
            <stop stop-color="#1F8EDC" offset="17.98%"></stop>
            <stop stop-color="#2670C6" offset="36.41%"></stop>
            <stop stop-color="#2867BF" offset="41.73%"></stop>
            <stop stop-color="#2E4BAA" offset="61.77%"></stop>
            <stop stop-color="#32399E" offset="79.21%"></stop>
            <stop stop-color="#333399" offset="92.01%"></stop>
        </radialGradient>
        <radialGradient cx="-140.85783%" cy="21.7271922%" fx="-140.85783%" fy="21.7271922%" r="1714.8622%" gradientTransform="translate(-1.408578,0.217272),scale(1.000000,0.255856),translate(1.408578,-0.217272)" id="radialGradient-6">
            <stop stop-color="#18AFF5" offset="0%"></stop>
            <stop stop-color="#1F8EDC" offset="17.98%"></stop>
            <stop stop-color="#2670C6" offset="36.41%"></stop>
            <stop stop-color="#2867BF" offset="41.73%"></stop>
            <stop stop-color="#2E4BAA" offset="61.77%"></stop>
            <stop stop-color="#32399E" offset="79.21%"></stop>
            <stop stop-color="#333399" offset="92.01%"></stop>
        </radialGradient>
        <radialGradient cx="-115.672599%" cy="-12.6148506%" fx="-115.672599%" fy="-12.6148506%" r="730.166216%" gradientTransform="translate(-1.156726,-0.126149),scale(1.000000,0.860090),translate(1.156726,0.126149)" id="radialGradient-7">
            <stop stop-color="#18AFF5" offset="0%"></stop>
            <stop stop-color="#1F8EDC" offset="17.98%"></stop>
            <stop stop-color="#2670C6" offset="36.41%"></stop>
            <stop stop-color="#2867BF" offset="41.73%"></stop>
            <stop stop-color="#2E4BAA" offset="61.77%"></stop>
            <stop stop-color="#32399E" offset="79.21%"></stop>
            <stop stop-color="#333399" offset="92.01%"></stop>
        </radialGradient>
        <radialGradient cx="-284.905384%" cy="-12.6711554%" fx="-284.905384%" fy="-12.6711554%" r="896.907672%" gradientTransform="translate(-2.849054,-0.126712),scale(1.000000,0.699742),translate(2.849054,0.126712)" id="radialGradient-8">
            <stop stop-color="#18AFF5" offset="0%"></stop>
            <stop stop-color="#1F8EDC" offset="17.98%"></stop>
            <stop stop-color="#2670C6" offset="36.41%"></stop>
            <stop stop-color="#2867BF" offset="41.73%"></stop>
            <stop stop-color="#2E4BAA" offset="61.77%"></stop>
            <stop stop-color="#32399E" offset="79.21%"></stop>
            <stop stop-color="#333399" offset="92.01%"></stop>
        </radialGradient>
        <radialGradient cx="-403.781996%" cy="-12.6711554%" fx="-403.781996%" fy="-12.6711554%" r="896.907672%" gradientTransform="translate(-4.037820,-0.126712),scale(1.000000,0.699742),translate(4.037820,0.126712)" id="radialGradient-9">
            <stop stop-color="#18AFF5" offset="0%"></stop>
            <stop stop-color="#1F8EDC" offset="17.98%"></stop>
            <stop stop-color="#2670C6" offset="36.41%"></stop>
            <stop stop-color="#2867BF" offset="41.73%"></stop>
            <stop stop-color="#2E4BAA" offset="61.77%"></stop>
            <stop stop-color="#32399E" offset="79.21%"></stop>
            <stop stop-color="#333399" offset="92.01%"></stop>
        </radialGradient>
        <radialGradient cx="-646.651907%" cy="13.7968434%" fx="-646.651907%" fy="13.7968434%" r="1127.36312%" gradientTransform="translate(-6.466519,0.137968),scale(1.000000,0.315905),translate(6.466519,-0.137968)" id="radialGradient-10">
            <stop stop-color="#18AFF5" offset="0%"></stop>
            <stop stop-color="#1F8EDC" offset="17.98%"></stop>
            <stop stop-color="#2670C6" offset="36.41%"></stop>
            <stop stop-color="#2867BF" offset="41.73%"></stop>
            <stop stop-color="#2E4BAA" offset="61.77%"></stop>
            <stop stop-color="#32399E" offset="79.21%"></stop>
            <stop stop-color="#333399" offset="92.01%"></stop>
        </radialGradient>
    </defs>
    <g id="Page-1" stroke="none" stroke-width="1" fill="none" fill-rule="evenodd">
        <g id="blue-logo">
            <path d="M54.8,14.1 C47,16.4 41,19.9 36.7,24.5 C32.4,29.1 29.4,34.9 27.7,41.7 C26,48.6 25.2,56.4 25.2,65.3 L25.2,106.8 C25.2,114.1 23.2,120.5 19.1,125.9 C15,131.3 8.7,133.9 7.10542736e-15,133.9 L7.10542736e-15,160.7 C8.7,160.7 15,163.4 19.1,168.7 C23.1,174.1 25.2,180.3 25.2,187.5 L25.2,229.3 C25.2,238.3 26,246.2 27.7,253 C29.4,259.8 32.5,265.5 37,270.1 C41.5,274.7 47.7,278.1 55.6,280.4 C63.5,282.7 73.8,283.8 86.4,283.8 L86.4,256.7 C80.9,256.7 76.3,256.3 72.6,255.6 C68.8,254.8 65.8,253.5 63.6,251.5 C61.3,249.5 59.7,246.9 58.7,243.7 C57.7,240.5 57.1,236.4 57.1,231.3 L57.1,190.6 C57.1,179.5 55.6,170.5 52.7,163.8 C49.8,157 44.8,151.5 37.9,147.1 C44.9,142.8 49.8,137.3 52.7,130.6 C55.6,123.9 57.1,114.9 57.1,103.6 L57.1,63.2 C57.1,58.1 57.6,53.9 58.7,50.6 C59.7,47.3 61.4,44.7 63.6,42.7 C65.9,40.7 68.9,39.4 72.6,38.6 C76.4,37.9 81,37.5 86.4,37.5 L86.4,10.5 L84.4,10.5 C72.4,10.5 62.5,11.7 54.8,14.1 Z" id="Path" fill="url(#radialGradient-1)"></path>
            <path d="M196.1,150.5 C192.4,146.8 187.8,143.5 182.1,140.6 C176.5,137.7 169.6,134.7 161.5,131.7 C156.6,130 152.5,128.4 149.1,126.8 C145.7,125.2 143,123.6 140.9,122 C138.8,120.4 137.4,118.7 136.5,116.8 C135.7,114.9 135.2,112.8 135.2,110.3 C135.2,105.4 137.4,101.8 141.7,99.4 C146,97 151.7,95.9 158.6,95.9 C166.3,95.9 173.1,96.6 178.9,98 C184.7,99.4 189.5,101 193.3,102.7 L199.5,75 C195.5,73.5 189.6,71.9 181.7,70.3 C173.8,68.7 165.5,67.9 156.8,67.9 C139.7,67.9 126.1,71.8 116.1,79.6 C106.1,87.4 101.1,98.1 101.1,111.7 C101.1,118.7 102.2,124.6 104.3,129.4 C106.5,134.2 109.4,138.3 113.2,141.7 C117,145.1 121.4,148.1 126.6,150.6 C131.8,153.1 137.5,155.5 143.7,157.8 C153.9,161.6 161.2,165 165.6,168.3 C170,171.5 172.2,175.5 172.2,180.4 C172.2,185.7 170.1,189.4 166,191.6 C161.9,193.8 155.3,194.8 146.2,194.8 C137.1,194.8 129.1,193.9 122.1,192 C115,190.1 109,188.1 103.9,186.1 L98,214.6 C101.2,215.9 106.8,217.7 114.7,219.8 C122.6,222 133.1,223.1 146.1,223.1 C165.5,223.1 180.4,219.5 190.9,212.2 C201.4,205 206.6,194.3 206.6,180.1 C206.6,173.5 205.8,167.9 204.1,163.2 C202.5,158.3 199.8,154.1 196.1,150.5 Z" id="Path" fill="url(#radialGradient-2)"></path>
            <path d="M294.6,67.8 C285.9,67.8 277.5,69.4 269.2,72.7 C260.9,76 253.6,80.9 247.2,87.4 C240.8,93.9 235.7,102 231.8,111.8 C227.9,121.6 226,133 226,146 C226,157.1 227.5,167.3 230.5,176.7 C233.5,186 238.1,194.1 244.3,201 C250.5,207.9 258.4,213.2 268,217.1 C277.6,221 288.9,222.9 301.9,222.9 C307,222.9 312,222.6 316.9,222.1 C321.8,221.5 326.4,220.8 330.6,220 C334.8,219.2 338.6,218.2 341.9,217.2 C345.2,216.2 347.8,215.2 349.7,214.2 L345.2,186.2 C341.2,187.9 335.8,189.5 329,191 C322.1,192.5 314.5,193.3 306.3,193.3 C292.2,193.3 281.4,190.1 274,183.6 C266.6,177.1 262.4,167.9 261.4,156.1 L358.9,156.1 C359.1,154.2 359.2,152.1 359.3,149.7 C359.4,147.3 359.4,145.2 359.4,143.3 C359.4,118.3 353.7,99.4 342.3,86.8 C330.8,74.1 314.9,67.8 294.6,67.8 Z M261.5,130.8 C262.1,126.5 263.1,122.2 264.6,118.1 C266.1,114 268.2,110.3 271,107.1 C273.7,103.9 277.1,101.3 281,99.3 C285,97.3 289.6,96.3 294.8,96.3 C299.9,96.3 304.3,97.2 307.9,99 C311.6,100.8 314.7,103.2 317.2,106.3 C319.7,109.4 321.7,113.1 323,117.3 C324.3,121.5 325,126 325,130.7 L261.5,130.7 L261.5,130.8 Z" id="Shape" fill="url(#radialGradient-3)" fill-rule="nonzero"></path>
            <path d="M486.2,83.9 C481.6,78.8 475.4,74.9 467.7,72 C460,69.2 450.5,67.8 439.2,67.8 C429.8,67.8 420.9,68.6 412.6,70.1 C404.3,71.6 398,73.1 393.7,74.6 L397.9,102.3 C402,100.8 407.4,99.5 414,98.3 C420.6,97.2 427.8,96.6 435.7,96.6 C441.5,96.6 446.4,97.4 450.2,98.9 C454.1,100.4 457.2,102.5 459.5,105.3 C461.9,108 463.5,111.2 464.4,114.8 C465.3,118.4 465.8,122.1 465.8,126.1 L465.8,131.8 C461.1,130.7 456.7,129.9 452.5,129.4 C448.4,128.9 444.4,128.7 440.6,128.7 C432.5,128.7 424.7,129.5 417.3,131.1 C409.9,132.7 403.3,135.3 397.7,139 C392.1,142.7 387.6,147.4 384.3,153.3 C381,159.1 379.4,166.3 379.4,174.8 C379.4,183.7 380.9,191.1 383.8,197.1 C386.7,203.1 390.8,208 395.9,211.8 C401.1,215.6 407.3,218.3 414.7,220 C422,221.7 430.1,222.5 439,222.5 C452.4,222.5 464.4,221.7 475,220.1 C485.6,218.5 493.6,217.1 498.9,216 L498.9,126.5 C498.9,117.8 497.9,109.9 495.9,102.6 C494.2,95.2 490.9,89 486.2,83.9 Z M466,193.5 C460.5,194.6 452.5,195.2 442,195.2 C433.3,195.2 426.5,193.6 421.4,190.5 C416.3,187.4 413.8,181.8 413.8,173.7 C413.8,169.6 414.7,166.1 416.6,163.4 C418.5,160.7 421,158.6 424.1,157 C427.2,155.5 430.7,154.5 434.6,153.9 C438.5,153.3 442.3,153.1 446,153.1 C450.3,153.1 454.3,153.4 457.9,153.9 C461.5,154.5 464.2,155 466.1,155.6 L466.1,193.5 L466,193.5 Z" id="Shape" fill="url(#radialGradient-4)" fill-rule="nonzero"></path>
            <path d="M728,87.2 C723.8,81.3 717.9,76.7 710.5,73.4 C703.1,70.1 693.6,68.5 682.1,68.5 C677.6,68.5 673.1,69 668.7,69.9 C664.3,70.8 660.1,72 656.1,73.4 C652.1,74.8 648.6,76.4 645.4,78.1 C642.2,79.8 639.6,81.4 637.5,82.9 C633.2,78.6 627.8,75.1 621.3,72.4 C614.8,69.8 606.5,68.4 596.3,68.4 C584.4,68.4 573.2,69.2 562.5,70.9 C551.9,72.6 543.2,74.4 536.7,76.3 L536.7,219.2 L570.9,219.2 L570.9,100 C573.2,99.6 576.5,99.2 581.1,98.6 C585.6,98 589.8,97.8 593.5,97.8 C604,97.8 611.2,101.2 615.1,108.1 C619,115 620.9,126.1 620.9,141.6 L620.9,219.3 L655,219.3 L655,137.7 C655,131.7 654.7,126 654.2,120.8 C653.6,115.5 652.6,110.5 651.1,105.8 C653.5,104.1 657.2,102.4 662.1,100.6 C667,98.8 672.2,97.9 677.6,97.9 C688.3,97.9 695.6,101.3 699.3,108.2 C703.1,115.1 705,126.2 705,141.7 L705,219.4 L739.2,219.4 L739.2,136.4 C739.2,126.4 738.4,117.2 736.8,108.9 C735.2,100.3 732.3,93.1 728,87.2 Z" id="Path" fill="url(#radialGradient-5)"></path>
            <path d="M811.5,186.9 C809.8,184.9 808.6,182.5 808,179.7 C807.3,176.9 807,173.4 807,169.2 L807,0 L772.8,5.7 L772.8,175.7 C772.8,183 773.6,189.6 775.2,195.3 C776.8,201 779.6,205.8 783.5,209.7 C787.5,213.6 792.8,216.5 799.5,218.6 C806.2,220.7 814.6,221.8 824.8,222 L829.6,193.8 C825.1,193.2 821.4,192.4 818.4,191.4 C815.5,190.4 813.2,188.9 811.5,186.9 Z" id="Path" fill="url(#radialGradient-6)"></path>
            <path d="M915.7,67.8 C907,67.8 898.6,69.4 890.3,72.7 C882,76 874.7,80.9 868.3,87.4 C861.9,93.9 856.8,102 852.9,111.8 C849,121.6 847.1,133 847.1,146 C847.1,157.1 848.6,167.3 851.6,176.7 C854.6,186 859.2,194.1 865.4,201 C871.6,207.9 879.5,213.2 889.1,217.1 C898.7,221 910,222.9 923,222.9 C928.1,222.9 933.1,222.6 938,222.1 C942.9,221.5 947.5,220.8 951.7,220 C955.9,219.2 959.7,218.2 963,217.2 C966.3,216.2 968.9,215.2 970.8,214.2 L966.3,186.2 C962.3,187.9 956.9,189.5 950.1,191 C943.2,192.5 935.6,193.3 927.4,193.3 C913.3,193.3 902.5,190.1 895.1,183.6 C887.7,177.1 883.5,167.9 882.5,156.1 L980,156.1 C980.2,154.2 980.3,152.1 980.4,149.7 C980.5,147.3 980.5,145.2 980.5,143.3 C980.5,118.3 974.8,99.4 963.4,86.8 C951.9,74.1 936.1,67.8 915.7,67.8 Z M882.7,130.8 C883.3,126.5 884.3,122.2 885.8,118.1 C887.3,114 889.4,110.3 892.2,107.1 C894.9,103.9 898.3,101.3 902.2,99.3 C906.2,97.3 910.8,96.3 916,96.3 C921.1,96.3 925.5,97.2 929.1,99 C932.8,100.8 935.9,103.2 938.4,106.3 C940.9,109.4 942.9,113.1 944.2,117.3 C945.5,121.5 946.2,126 946.2,130.7 L882.7,130.7 L882.7,130.8 Z" id="Shape" fill="url(#radialGradient-7)" fill-rule="nonzero"></path>
            <path d="M1100.3,150.5 C1096.6,146.8 1092,143.5 1086.3,140.6 C1080.7,137.7 1073.8,134.7 1065.7,131.7 C1060.8,130 1056.7,128.4 1053.3,126.8 C1049.9,125.2 1047.2,123.6 1045.1,122 C1043,120.4 1041.6,118.7 1040.7,116.8 C1039.9,114.9 1039.4,112.8 1039.4,110.3 C1039.4,105.4 1041.6,101.8 1045.9,99.4 C1050.2,97 1055.9,95.9 1062.8,95.9 C1070.5,95.9 1077.3,96.6 1083.1,98 C1088.9,99.4 1093.7,101 1097.5,102.7 L1103.7,75 C1099.7,73.5 1093.8,71.9 1085.9,70.3 C1078,68.7 1069.7,67.9 1061,67.9 C1043.9,67.9 1030.3,71.8 1020.3,79.6 C1010.3,87.4 1005.3,98.1 1005.3,111.7 C1005.3,118.7 1006.4,124.6 1008.5,129.4 C1010.7,134.2 1013.6,138.3 1017.4,141.7 C1021.2,145.1 1025.6,148.1 1030.8,150.6 C1036,153.1 1041.7,155.5 1047.9,157.8 C1058.1,161.6 1065.4,165 1069.8,168.3 C1074.2,171.5 1076.4,175.5 1076.4,180.4 C1076.4,185.7 1074.3,189.4 1070.2,191.6 C1066.1,193.8 1059.5,194.8 1050.4,194.8 C1041.4,194.8 1033.3,193.9 1026.3,192 C1019.2,190.1 1013.2,188.1 1008.1,186.1 L1002.2,214.6 C1005.4,215.9 1011,217.7 1018.9,219.8 C1026.8,222 1037.3,223.1 1050.3,223.1 C1069.7,223.1 1084.6,219.5 1095.1,212.2 C1105.6,205 1110.8,194.3 1110.8,180.1 C1110.8,173.5 1110,167.9 1108.3,163.2 C1106.7,158.3 1104,154.1 1100.3,150.5 Z" id="Path" fill="url(#radialGradient-8)"></path>
            <path d="M1229.4,150.5 C1225.7,146.8 1221.1,143.5 1215.4,140.6 C1209.8,137.7 1202.9,134.7 1194.8,131.7 C1189.9,130 1185.8,128.4 1182.4,126.8 C1179,125.2 1176.3,123.6 1174.2,122 C1172.1,120.4 1170.7,118.7 1169.8,116.8 C1169,114.9 1168.5,112.8 1168.5,110.3 C1168.5,105.4 1170.7,101.8 1175,99.4 C1179.3,97 1185,95.9 1191.9,95.9 C1199.6,95.9 1206.4,96.6 1212.2,98 C1218,99.4 1222.8,101 1226.6,102.7 L1232.8,75 C1228.8,73.5 1222.9,71.9 1215,70.3 C1207.1,68.7 1198.8,67.9 1190.1,67.9 C1173,67.9 1159.4,71.8 1149.4,79.6 C1139.4,87.4 1134.4,98.1 1134.4,111.7 C1134.4,118.7 1135.5,124.6 1137.6,129.4 C1139.8,134.2 1142.7,138.3 1146.5,141.7 C1150.3,145.1 1154.7,148.1 1159.9,150.6 C1165.1,153.1 1170.8,155.5 1177,157.8 C1187.2,161.6 1194.5,165 1198.9,168.3 C1203.3,171.5 1205.5,175.5 1205.5,180.4 C1205.5,185.7 1203.4,189.4 1199.3,191.6 C1195.2,193.8 1188.6,194.8 1179.5,194.8 C1170.5,194.8 1162.4,193.9 1155.4,192 C1148.3,190.1 1142.3,188.1 1137.2,186.1 L1131.3,214.6 C1134.5,215.9 1140.1,217.7 1148,219.8 C1155.9,222 1166.4,223.1 1179.4,223.1 C1198.8,223.1 1213.7,219.5 1224.2,212.2 C1234.7,205 1239.9,194.3 1239.9,180.1 C1239.9,173.5 1239.1,167.9 1237.4,163.2 C1235.8,158.3 1233.1,154.1 1229.4,150.5 Z" id="Path" fill="url(#radialGradient-9)"></path>
            <path d="M1319,125.9 C1314.9,120.5 1312.9,114.2 1312.9,106.8 L1312.9,65.3 C1312.9,56.4 1312.1,48.6 1310.4,41.7 C1308.7,34.8 1305.7,29.1 1301.4,24.5 C1297.1,19.9 1291,16.4 1283.3,14 C1275.6,11.6 1265.7,10.5 1253.6,10.5 L1251.6,10.5 L1251.6,37.6 C1257.1,37.6 1261.7,38 1265.4,38.7 C1269.2,39.5 1272.2,40.8 1274.4,42.8 C1276.7,44.8 1278.3,47.4 1279.3,50.7 C1280.3,54 1280.9,58.2 1280.9,63.3 L1280.9,103.7 C1280.9,115 1282.4,124 1285.3,130.7 C1288.2,137.4 1293.2,142.9 1300.1,147.2 C1293.1,151.5 1288.2,157.1 1285.3,163.9 C1282.4,170.7 1280.9,179.6 1280.9,190.7 L1280.9,231.4 C1280.9,241.4 1278.7,248.1 1274.4,251.6 C1270.1,255.1 1262.4,256.8 1251.5,256.8 L1251.5,284 C1264.1,284 1274.4,282.9 1282.3,280.6 C1290.2,278.3 1296.4,274.9 1300.9,270.3 C1305.4,265.7 1308.5,260 1310.2,253.2 C1311.9,246.4 1312.7,238.5 1312.7,229.5 L1312.7,187.7 C1312.7,180.5 1314.7,174.3 1318.8,168.9 C1322.8,163.5 1329.2,160.9 1337.9,160.9 L1337.9,134 C1329.4,134 1323,131.3 1319,125.9 Z" id="Path" fill="url(#radialGradient-10)"></path>
        </g>
    </g>
</svg>