<?xml version="1.0" encoding="UTF-8"?>
<svg width="839px" height="550px" viewBox="0 0 839 550" version="1.1" xmlns="http://www.w3.org/2000/svg" xmlns:xlink="http://www.w3.org/1999/xlink">
    <title>Documentation</title>
    <defs>
        <filter x="-1.5%" y="-2.4%" width="103.1%" height="104.9%" filterUnits="objectBoundingBox" id="filter-1">
            <feOffset dx="1" dy="2" in="SourceAlpha" result="shadowOffsetOuter1"></feOffset>
            <feGaussianBlur stdDeviation="2" in="shadowOffsetOuter1" result="shadowBlurOuter1"></feGaussianBlur>
            <feColorMatrix values="0 0 0 0 0   0 0 0 0 0   0 0 0 0 0  0 0 0 0.5 0" type="matrix" in="shadowBlurOuter1" result="shadowMatrixOuter1"></feColorMatrix>
            <feMerge>
                <feMergeNode in="shadowMatrixOuter1"></feMergeNode>
                <feMergeNode in="SourceGraphic"></feMergeNode>
            </feMerge>
        </filter>
        <linearGradient x1="50%" y1="-14.33%" x2="50%" y2="100%" id="linearGradient-2">
            <stop stop-color="#FFFFFF" offset="0%"></stop>
            <stop stop-color="#F4F4F4" offset="100%"></stop>
        </linearGradient>
    </defs>
    <g id="Documentation" stroke="none" stroke-width="1" fill="none" fill-rule="evenodd">
        <g id="Group-3" transform="translate(31.000000, 29.000000)">
            <g id="Group" filter="url(#filter-1)">
                <g>
                    <rect id="Rectangle" stroke="#E1E6F7" stroke-width="1.1" fill="#FFFFFF" fill-rule="nonzero" x="0.55" y="0.55" width="775.5" height="490.6" rx="10.45"></rect>
                    <path d="M0,11 C0,4.9247 4.92492,0 11,0 L171.6,0 L171.6,491.7 L11,491.7 C4.92492,491.7 0,486.7753 0,480.7 L0,11 Z" id="Path" fill="#1C2A55" fill-rule="nonzero"></path>
                    <circle id="Oval" fill="url(#linearGradient-2)" fill-rule="nonzero" cx="42.9" cy="45.1" r="22"></circle>
                    <path d="M92.4,42.9 C92.4,39.2304 89.4696,36.3 85.8,36.3 C82.1304,36.3 79.2,39.2304 79.2,42.9 L79.2,48.18 C79.2,51.8496 82.1304,54.78 85.8,54.78 C89.4696,54.78 92.4,51.8496 92.4,48.18 L92.4,42.9 Z M90.288,48.18 C90.288,50.6352 88.2552,52.668 85.8,52.668 C83.3448,52.668 81.312,50.6352 81.312,48.18 L81.312,42.9 C81.312,40.4448 83.3448,38.412 85.8,38.412 C88.2552,38.412 90.288,40.4448 90.288,42.9 L90.288,48.18 Z" id="Shape" fill="#FAFAFA" fill-rule="nonzero"></path>
                    <path d="M97.9528,53.0112 C99.1408,54.1464 100.672,54.78 102.4408,54.78 C106.1104,54.78 109.0408,51.8496 109.0408,48.18 C109.0408,44.5104 106.1104,41.58 102.4408,41.58 C100.672,41.58 99.1408,42.2136 97.9528,43.3488 L97.9528,42.636 C97.9528,42.0288 97.504,41.58 96.8968,41.58 C96.2896,41.58 95.8408,42.0288 95.8408,42.636 L95.8408,48.18 L95.8408,60.324 C95.8408,60.9312 96.2896,61.38 96.8968,61.38 C97.504,61.38 97.9528,60.9312 97.9528,60.324 L97.9528,53.0112 Z M102.4408,52.668 C99.9856,52.668 97.9528,50.6352 97.9528,48.18 C97.9528,45.7248 99.9856,43.692 102.4408,43.692 C104.896,43.692 106.9288,45.7248 106.9288,48.18 C106.9288,50.6352 104.896,52.668 102.4408,52.668 Z" id="Shape" fill="#FAFAFA" fill-rule="nonzero"></path>
                    <path d="M114.5947,43.692 L117.4987,43.692 C118.1059,43.692 118.5547,43.2432 118.5547,42.636 C118.5547,42.0288 118.1059,41.58 117.4987,41.58 L114.5947,41.58 L114.5947,37.356 C114.5947,36.7488 114.1459,36.3 113.5387,36.3 C112.9315,36.3 112.4827,36.7488 112.4827,37.356 L112.4827,50.82 C112.4827,53.0112 114.2515,54.78 116.4427,54.78 C117.5251,54.78 118.5283,54.3312 119.2411,53.6184 C119.6635,53.196 119.6635,52.536 119.2411,52.1136 C118.8187,51.7176 118.1587,51.7176 117.7627,52.1136 C117.3931,52.4832 116.9443,52.668 116.4427,52.668 C115.4131,52.668 114.5947,51.8496 114.5947,50.82 L114.5947,43.692 Z" id="Path" fill="#FAFAFA" fill-rule="nonzero"></path>
                    <path d="M124.8478,37.488 C124.8478,36.828 124.3198,36.3 123.6598,36.3 C122.9998,36.3 122.4718,36.828 122.4718,37.488 C122.4718,38.148 122.9998,38.676 123.6598,38.676 C124.3198,38.676 124.8478,38.148 124.8478,37.488 Z M122.6038,53.724 C122.6038,54.3312 123.0526,54.78 123.6598,54.78 C124.267,54.78 124.7158,54.3312 124.7158,53.724 L124.7158,42.636 C124.7158,42.0288 124.267,41.58 123.6598,41.58 C123.0526,41.58 122.6038,42.0288 122.6038,42.636 L122.6038,53.724 Z" id="Shape" fill="#FAFAFA" fill-rule="nonzero"></path>
                    <path d="M139.0422,52.8528 C139.4382,52.4304 139.4382,51.7704 139.0422,51.348 C138.6198,50.952 137.9598,50.952 137.5374,51.348 C136.719,52.1664 135.6102,52.668 134.3694,52.668 C131.9142,52.668 129.8814,50.6352 129.8814,48.18 C129.8814,45.7248 131.9142,43.692 134.3694,43.692 C135.6102,43.692 136.719,44.1936 137.5374,45.012 C137.9598,45.408 138.6198,45.408 139.0422,45.012 C139.4382,44.5896 139.4382,43.9296 139.0422,43.5072 C137.8014,42.3192 136.191,41.58 134.3694,41.58 C130.6998,41.58 127.7694,44.5104 127.7694,48.18 C127.7694,51.8496 130.6998,54.78 134.3694,54.78 C136.191,54.78 137.8014,54.0408 139.0422,52.8528 Z" id="Path" fill="#FAFAFA" fill-rule="nonzero"></path>
                    <path d="M51.08125,34.6709 C48.81976,32.934 45.98154,31.9 42.89989,31.9 C39.81824,31.9 36.98002,32.934 34.71853,34.6709 M44.80201,58.3 C47.53177,57.9139 49.99599,56.7116 51.93463,54.9483 C54.60158,52.5228 56.2738,49.038 56.2738,45.1671 C56.2738,42.2059 55.2959,39.4724 53.64425,37.2658 M40.99788,58.3 C38.26812,57.9139 35.8039,56.7116 33.86526,54.9483 C31.19831,52.5228 29.5262,49.038 29.5262,45.1671 C29.5262,42.2059 30.50355,39.4724 32.15564,37.2658" id="Shape" stroke="#343BE5" stroke-width="1.654136" stroke-linecap="round"></path>
                    <path d="M37.26855,52.2357 C38.82516,53.4237 40.77865,54.131 42.89989,54.131 C45.02102,54.131 46.97462,53.4237 48.53112,52.2357 M41.59067,36.0679 C39.71176,36.3319 38.01556,37.1558 36.68115,38.3614 C34.84547,40.0213 33.69454,42.405 33.69454,45.0549 C33.69454,47.08 34.3673,48.95 35.50437,50.4603 M44.209,36.0679 C46.08802,36.3319 47.78422,37.1558 49.11852,38.3614 C50.9542,40.0213 52.10513,42.405 52.10513,45.0549 C52.10513,47.08 51.43237,48.95 50.2953,50.4603" id="Shape" stroke="#343BE5" stroke-width="1.654136" stroke-linecap="round"></path>
                    <circle id="Oval" fill="#4F5F92" fill-rule="nonzero" cx="29.15" cy="142.45" r="8.25"></circle>
                    <circle id="Oval" fill="#4F5F92" fill-rule="nonzero" cx="29.15" cy="191.95" r="8.25"></circle>
                    <circle id="Oval" fill="#4F5F92" fill-rule="nonzero" cx="29.15" cy="285.45" r="8.25"></circle>
                    <circle id="Oval" fill="#4F5F92" fill-rule="nonzero" cx="29.15" cy="351.45" r="8.25"></circle>
                    <rect id="Rectangle" fill="#4F5F92" fill-rule="nonzero" x="51.7" y="139.7" width="83.6" height="5.5" rx="2.75"></rect>
                    <rect id="Rectangle" fill="#4F5F92" fill-rule="nonzero" x="51.7" y="189.2" width="83.6" height="5.5" rx="2.75"></rect>
                    <rect id="Rectangle" fill="#4F5F92" fill-rule="nonzero" x="51.7" y="282.7" width="83.6" height="5.5" rx="2.75"></rect>
                    <rect id="Rectangle" fill="#4F5F92" fill-rule="nonzero" x="51.7" y="348.7" width="83.6" height="5.5" rx="2.75"></rect>
                    <rect id="Rectangle" fill="#3B4976" fill-rule="nonzero" x="20.9" y="255.2" width="44" height="7.7" rx="3.85"></rect>
                    <rect id="Rectangle" fill="#3B4976" fill-rule="nonzero" x="20.9" y="321.2" width="44" height="7.7" rx="3.85"></rect>
                    <rect id="Rectangle" fill="#3B4976" fill-rule="nonzero" x="20.9" y="112.2" width="44" height="7.7" rx="3.85"></rect>
                </g>
            </g>
            <g id="Group" transform="translate(294.800000, 124.300000)" fill-rule="nonzero">
                <g id="Group-2">
                    <path d="M11.6990261,0 L343.42,0 C349.798889,6.04573966e-16 354.97,5.17111114 354.97,11.55 L354.97,117.15 C354.97,123.528889 349.798889,128.7 343.42,128.7 L13.0528722,128.7 C6.73173139,128.7 1.58485495,123.618686 1.50382134,117.298065 L0.149975189,11.6980648 C0.0682012829,5.31970006 5.17259665,0.0827230003 11.5509613,0.000949094048 C11.6003137,0.000316371182 11.6496697,9.06663081e-18 11.6990261,0 Z" id="Rectangle" fill="#16203F"></path>
                    <path d="M0,8.25 C0,3.6936515 5.1711121,0 11.55,0 L343.42,0 C349.79868,0 354.97,3.6936515 354.97,8.25 L354.97,23.1 L0,23.1 L0,8.25 Z" id="Path" fill="#1C2A55"></path>
                    <path d="M0,7.07142857 C0,3.165987 5.1711121,0 11.55,0 L343.42,0 C349.79868,0 354.97,3.165987 354.97,7.07142857 L354.97,19.8 L0,19.8 L0,7.07142857 Z" id="Path" fill="#1C2A55"></path>
                    <rect id="Rectangle" fill="#D6DCF0" x="12.1" y="7.7" width="111.1" height="8.8" rx="4.4"></rect>
                    <rect id="Rectangle" fill="#3D4868" x="12.1" y="46.2" width="80.3" height="5.5" rx="2.75"></rect>
                    <rect id="Rectangle" fill="#3D4868" x="12.1" y="75.9" width="143" height="5.5" rx="2.75"></rect>
                    <rect id="Rectangle" fill="#3D4868" x="12.1" y="61.6" width="144.1" height="5.5" rx="2.75"></rect>
                    <rect id="Rectangle" fill="#3D4868" x="12.1" y="106.7" width="176" height="5.5" rx="2.75"></rect>
                    <rect id="Rectangle" fill="#3D4868" x="12.1" y="91.3" width="220" height="5.5" rx="2.75"></rect>
                </g>
            </g>
            <g id="Group" transform="translate(294.800000, 295.900000)" fill-rule="nonzero">
                <g id="Group-2">
                    <path d="M11.55,0 L343.42,0 C349.798889,3.28217657e-14 354.97,5.17111114 354.97,11.55 L354.97,195.8 L354.97,195.8 L0,195.25 L0,11.55 C9.95168257e-16,5.17111114 5.17111114,1.36062807e-14 11.55,0 Z" id="Rectangle" fill="#16203F"></path>
                    <path d="M0,8.25 C0,3.6936515 5.1711121,0 11.55,0 L343.42,0 C349.79868,0 354.97,3.6936515 354.97,8.25 L354.97,23.1 L0,23.1 L0,8.25 Z" id="Path" fill="#1C2A55"></path>
                    <path d="M0,7.07142857 C0,3.165987 5.1711121,0 11.55,0 L343.42,0 C349.79868,0 354.97,3.165987 354.97,7.07142857 L354.97,19.8 L0,19.8 L0,7.07142857 Z" id="Path" fill="#1C2A55"></path>
                    <rect id="Rectangle" fill="#D6DCF0" x="12.1" y="7.7" width="111.1" height="8.8" rx="4.4"></rect>
                    <rect id="Rectangle" fill="#3D4868" x="12.1" y="46.2" width="80.3" height="5.5" rx="2.75"></rect>
                    <rect id="Rectangle" fill="#3D4868" x="15.4" y="133.1" width="80.3" height="5.5" rx="2.75"></rect>
                    <rect id="Rectangle" fill="#3D4868" x="15.4" y="147.4" width="187" height="5.5" rx="2.75"></rect>
                    <rect id="Rectangle" fill="#3D4868" x="15.4" y="161.7" width="80.3" height="5.5" rx="2.75"></rect>
                    <rect id="Rectangle" fill="#3D4868" x="15.4" y="176" width="22" height="5.5" rx="2.75"></rect>
                    <rect id="Rectangle" fill="#3D4868" x="12.1" y="75.9" width="143" height="5.5" rx="2.75"></rect>
                    <rect id="Rectangle" fill="#3D4868" x="12.1" y="61.6" width="144.1" height="5.5" rx="2.75"></rect>
                    <rect id="Rectangle" fill="#3D4868" x="27.5" y="90.2" width="77" height="5.5" rx="2.75"></rect>
                    <rect id="Rectangle" fill="#3D4868" x="27.5" y="104.5" width="77" height="5.5" rx="2.75"></rect>
                    <rect id="Rectangle" fill="#3D4868" x="27.5" y="118.8" width="99" height="5.5" rx="2.75"></rect>
                </g>
            </g>
            <rect id="Rectangle" fill="#EE7517" x="294.8" y="26.4" width="39.6" height="22" rx="4.4"></rect>
            <text id="PUT" font-family="Ubuntu-Bold, Ubuntu" font-size="11" font-weight="bold" letter-spacing="0.785714304" fill="#FFFFFF">
                <tspan x="302.5" y="41.7">PUT</tspan>
            </text>
            <text id="/todos/:todoId" font-family="Ubuntu-Light, Ubuntu" font-size="16.5" font-weight="300" letter-spacing="1.17857139" fill="#4C4C4C">
                <tspan x="344.3" y="42.5">/todos/:todoId</tspan>
            </text>
            <text id="todoId:-String" font-family="Ubuntu-Light, Ubuntu" font-size="11" font-weight="300" letter-spacing="0.785714304">
                <tspan x="302.5" y="72.7" fill="#4C4C4C">todoId: </tspan>
                <tspan x="346.614714" y="72.7" fill="#E29F84">String</tspan>
            </text>
            <rect id="Rectangle" fill="#E5E8F2" fill-rule="nonzero" x="302.5" y="80.3" width="97.9" height="5.5" rx="2.75"></rect>
            <rect id="Rectangle" fill="#E5E8F2" fill-rule="nonzero" x="302.5" y="90.2" width="174.9" height="5.5" rx="2.75"></rect>
        </g>
    </g>
</svg>