<?xml version="1.0" encoding="UTF-8"?>
<svg width="421px" height="177px" viewBox="0 0 421 177" version="1.1" xmlns="http://www.w3.org/2000/svg" xmlns:xlink="http://www.w3.org/1999/xlink">
    <title>Artboard</title>
    <defs>
        <filter x="-3.3%" y="-8.6%" width="106.5%" height="117.1%" filterUnits="objectBoundingBox" id="filter-1">
            <feOffset dx="0" dy="2" in="SourceAlpha" result="shadowOffsetOuter1"></feOffset>
            <feGaussianBlur stdDeviation="2" in="shadowOffsetOuter1" result="shadowBlurOuter1"></feGaussianBlur>
            <feColorMatrix values="0 0 0 0 0   0 0 0 0 0   0 0 0 0 0  0 0 0 0.5 0" type="matrix" in="shadowBlurOuter1" result="shadowMatrixOuter1"></feColorMatrix>
            <feMerge>
                <feMergeNode in="shadowMatrixOuter1"></feMergeNode>
                <feMergeNode in="SourceGraphic"></feMergeNode>
            </feMerge>
        </filter>
        <linearGradient x1="50%" y1="-14.329275%" x2="50%" y2="100%" id="linearGradient-2">
            <stop stop-color="#FFFFFF" offset="0%"></stop>
            <stop stop-color="#F4F4F4" offset="100%"></stop>
        </linearGradient>
    </defs>
    <g id="Artboard" stroke="none" stroke-width="1" fill="none" fill-rule="evenodd">
        <g id="Optic_with_font" filter="url(#filter-1)" transform="translate(27.000000, 19.000000)">
            <circle id="Oval" fill="url(#linearGradient-2)" fill-rule="nonzero" cx="70" cy="70" r="70"></circle>
            <path d="M218.12035,63.7 C218.12035,52.024 208.79635,42.7 197.12035,42.7 C185.44435,42.7 176.12035,52.024 176.12035,63.7 L176.12035,80.5 C176.12035,92.176 185.44435,101.5 197.12035,101.5 C208.79635,101.5 218.12035,92.176 218.12035,80.5 L218.12035,63.7 Z M211.40035,80.5 C211.40035,88.312 204.93235,94.78 197.12035,94.78 C189.30835,94.78 182.84035,88.312 182.84035,80.5 L182.84035,63.7 C182.84035,55.888 189.30835,49.42 197.12035,49.42 C204.93235,49.42 211.40035,55.888 211.40035,63.7 L211.40035,80.5 Z" id="Shape" fill="#FFFFFF" fill-rule="nonzero"></path>
            <path d="M235.78975,95.872 C239.56975,99.484 244.44175,101.5 250.06975,101.5 C261.74575,101.5 271.06975,92.176 271.06975,80.5 C271.06975,68.824 261.74575,59.5 250.06975,59.5 C244.44175,59.5 239.56975,61.516 235.78975,65.128 L235.78975,62.86 C235.78975,60.928 234.36175,59.5 232.42975,59.5 C230.49775,59.5 229.06975,60.928 229.06975,62.86 L229.06975,80.5 L229.06975,119.14 C229.06975,121.072 230.49775,122.5 232.42975,122.5 C234.36175,122.5 235.78975,121.072 235.78975,119.14 L235.78975,95.872 Z M250.06975,94.78 C242.25775,94.78 235.78975,88.312 235.78975,80.5 C235.78975,72.688 242.25775,66.22 250.06975,66.22 C257.88175,66.22 264.34975,72.688 264.34975,80.5 C264.34975,88.312 257.88175,94.78 250.06975,94.78 Z" id="Shape" fill="#FFFFFF" fill-rule="nonzero"></path>
            <path d="M288.73915,66.22 L297.97915,66.22 C299.91115,66.22 301.33915,64.792 301.33915,62.86 C301.33915,60.928 299.91115,59.5 297.97915,59.5 L288.73915,59.5 L288.73915,46.06 C288.73915,44.128 287.31115,42.7 285.37915,42.7 C283.44715,42.7 282.01915,44.128 282.01915,46.06 L282.01915,88.9 C282.01915,95.872 287.64715,101.5 294.61915,101.5 C298.06315,101.5 301.25515,100.072 303.52315,97.804 C304.86715,96.46 304.86715,94.36 303.52315,93.016 C302.17915,91.756 300.07915,91.756 298.81915,93.016 C297.64315,94.192 296.21515,94.78 294.61915,94.78 C291.34315,94.78 288.73915,92.176 288.73915,88.9 L288.73915,66.22 Z" id="Path" fill="#FFFFFF" fill-rule="nonzero"></path>
            <path d="M321.36475,46.48 C321.36475,44.38 319.68475,42.7 317.58475,42.7 C315.48475,42.7 313.80475,44.38 313.80475,46.48 C313.80475,48.58 315.48475,50.26 317.58475,50.26 C319.68475,50.26 321.36475,48.58 321.36475,46.48 Z M314.22475,98.14 C314.22475,100.072 315.65275,101.5 317.58475,101.5 C319.51675,101.5 320.94475,100.072 320.94475,98.14 L320.94475,62.86 C320.94475,60.928 319.51675,59.5 317.58475,59.5 C315.65275,59.5 314.22475,60.928 314.22475,62.86 L314.22475,98.14 Z" id="Shape" fill="#FFFFFF" fill-rule="nonzero"></path>
            <path d="M366.527,95.368 C367.787,94.024 367.787,91.924 366.527,90.58 C365.183,89.32 363.083,89.32 361.739,90.58 C359.135,93.184 355.607,94.78 351.659,94.78 C343.847,94.78 337.3804,88.312 337.3804,80.5 C337.3804,72.688 343.847,66.22 351.659,66.22 C355.607,66.22 359.135,67.816 361.739,70.42 C363.083,71.68 365.183,71.68 366.527,70.42 C367.787,69.076 367.787,66.976 366.527,65.632 C362.579,61.852 357.455,59.5 351.659,59.5 C339.9844,59.5 330.6604,68.824 330.6604,80.5 C330.6604,92.176 339.9844,101.5 351.659,101.5 C357.455,101.5 362.579,99.148 366.527,95.368 Z" id="Path" fill="#FFFFFF" fill-rule="nonzero"></path>
            <path d="M96.03125,36.81755 C88.8356,31.29 79.8049,28 69.99965,28 C60.1944,28 51.1637,31.29 43.96805,36.81755 M76.05185,112 C84.73745,110.77325 92.57815,106.9446 98.74655,101.3355 C107.2323,93.6187 112.5523,82.5314 112.5523,70.21175 C112.5523,60.79325 109.44255,52.09505 104.18625,45.0723 M63.9478,112 C55.2622,110.77325 47.4215,106.9446 41.2531,101.3355 C32.76735,93.6187 27.44714,82.5314 27.44714,70.21175 C27.44714,60.79325 30.55675,52.09505 35.8134,45.0723" id="Shape" stroke="#343BE5" stroke-width="5.26316" stroke-linecap="round"></path>
            <path d="M52.08175,92.7038 C57.0346,96.4859 63.25025,98.73675 69.99965,98.73675 C76.7487,98.73675 82.9647,96.4859 87.9172,92.7038 M65.83395,41.26325 C59.8556,42.10255 54.4586,44.7223 50.21275,48.56005 C44.37195,53.84015 40.7099,61.4257 40.7099,69.8551 C40.7099,76.29965 42.8505,82.25105 46.46845,87.05585 M74.165,41.26325 C80.1437,42.10255 85.5407,44.7223 89.7862,48.56005 C95.627,53.84015 99.28905,61.4257 99.28905,69.8551 C99.28905,76.29965 97.14845,82.25105 93.5305,87.05585" id="Shape" stroke="#343BE5" stroke-width="5.26316" stroke-linecap="round"></path>
        </g>
    </g>
</svg>