<?xml version="1.0" encoding="UTF-8"?>
<svg width="1137px" height="151px" viewBox="0 0 1137 151" version="1.1" xmlns="http://www.w3.org/2000/svg" xmlns:xlink="http://www.w3.org/1999/xlink">
    <title>docs</title>
    <defs>
        <filter x="-10.4%" y="-10.4%" width="120.9%" height="120.9%" filterUnits="objectBoundingBox" id="filter-1">
            <feOffset dx="0" dy="2" in="SourceAlpha" result="shadowOffsetOuter1"></feOffset>
            <feGaussianBlur stdDeviation="2" in="shadowOffsetOuter1" result="shadowBlurOuter1"></feGaussianBlur>
            <feColorMatrix values="0 0 0 0 0   0 0 0 0 0   0 0 0 0 0  0 0 0 0.5 0" type="matrix" in="shadowBlurOuter1" result="shadowMatrixOuter1"></feColorMatrix>
            <feMerge>
                <feMergeNode in="shadowMatrixOuter1"></feMergeNode>
                <feMergeNode in="SourceGraphic"></feMergeNode>
            </feMerge>
        </filter>
        <linearGradient x1="50%" y1="-14.329275%" x2="50%" y2="100%" id="linearGradient-2">
            <stop stop-color="#FFFFFF" offset="0%"></stop>
            <stop stop-color="#F4F4F4" offset="100%"></stop>
        </linearGradient>
        <linearGradient x1="50%" y1="0%" x2="50%" y2="100%" id="linearGradient-3">
            <stop stop-color="#346EE5" offset="0%"></stop>
            <stop stop-color="#3961B4" offset="100%"></stop>
        </linearGradient>
        <linearGradient x1="50%" y1="0%" x2="50%" y2="100%" id="linearGradient-4">
            <stop stop-color="#346EE5" offset="0%"></stop>
            <stop stop-color="#3961B4" offset="100%"></stop>
        </linearGradient>
    </defs>
    <g id="docs" stroke="none" stroke-width="1" fill="none" fill-rule="evenodd">
        <g id="Group" transform="translate(22.000000, 22.000000)" fill-rule="nonzero">
            <g>
                <g id="Group-2" filter="url(#filter-1)" fill="url(#linearGradient-2)">
                    <circle id="Oval" cx="57.12" cy="57.12" r="57.12"></circle>
                </g>
                <g id="trainglesvg" transform="translate(21.000000, 21.000000)" stroke-width="3">
                    <polygon id="Path" stroke="url(#linearGradient-3)" points="35.55 0 71.1 61.62 0 61.62"></polygon>
                    <polygon id="Path" stroke="url(#linearGradient-4)" points="36.5 21 54 51 19 51"></polygon>
                </g>
            </g>
        </g>
        <path d="M182.307143,112 L182.307143,57.9 C184.17381,60.0333333 186.207143,62.5 188.407143,65.3 C190.607143,68.1 192.87381,71.0833333 195.207143,74.25 C197.540476,77.4166667 199.890476,80.7 202.257143,84.1 C204.62381,87.5 206.907143,90.85 209.107143,94.15 C211.307143,97.45 213.357143,100.633333 215.257143,103.7 C217.157143,106.766667 218.840476,109.533333 220.307143,112 L220.307143,112 L228.407143,112 L228.407143,42.7 L218.907143,42.7 L218.907143,94 C216.77381,90.4666667 214.157143,86.4333333 211.057143,81.9 C207.957143,77.3666667 204.657143,72.75 201.157143,68.05 C197.657143,63.35 194.12381,58.7833333 190.557143,54.35 C186.990476,49.9166667 183.640476,46.0333333 180.507143,42.7 L180.507143,42.7 L172.807143,42.7 L172.807143,112 L182.307143,112 Z M273.65,113.3 C277.183333,113.3 280.45,112.65 283.45,111.35 C286.45,110.05 289.033333,108.2 291.2,105.8 C293.366667,103.4 295.05,100.533333 296.25,97.2 C297.45,93.8666667 298.05,90.1333333 298.05,86 C298.05,81.9333333 297.45,78.2166667 296.25,74.85 C295.05,71.4833333 293.366667,68.6 291.2,66.2 C289.033333,63.8 286.45,61.95 283.45,60.65 C280.45,59.35 277.183333,58.7 273.65,58.7 C270.116667,58.7 266.85,59.35 263.85,60.65 C260.85,61.95 258.266667,63.8 256.1,66.2 C253.933333,68.6 252.25,71.4833333 251.05,74.85 C249.85,78.2166667 249.25,81.9333333 249.25,86 C249.25,90.1333333 249.85,93.8666667 251.05,97.2 C252.25,100.533333 253.933333,103.4 256.1,105.8 C258.266667,108.2 260.85,110.05 263.85,111.35 C266.85,112.65 270.116667,113.3 273.65,113.3 Z M273.65,105.1 C269.116667,105.1 265.533333,103.383333 262.9,99.95 C260.266667,96.5166667 258.95,91.8666667 258.95,86 C258.95,80.1333333 260.266667,75.4833333 262.9,72.05 C265.533333,68.6166667 269.116667,66.9 273.65,66.9 C278.183333,66.9 281.766667,68.6166667 284.4,72.05 C287.033333,75.4833333 288.35,80.1333333 288.35,86 C288.35,91.8666667 287.033333,96.5166667 284.4,99.95 C281.766667,103.383333 278.183333,105.1 273.65,105.1 Z M367.535714,112.6 C373.202381,112.6 378.402381,111.883333 383.135714,110.45 C387.869048,109.016667 391.935714,106.85 395.335714,103.95 C398.735714,101.05 401.369048,97.3833333 403.235714,92.95 C405.102381,88.5166667 406.035714,83.3 406.035714,77.3 C406.035714,71.3 405.102381,66.0833333 403.235714,61.65 C401.369048,57.2166667 398.735714,53.55 395.335714,50.65 C391.935714,47.75 387.869048,45.5833333 383.135714,44.15 C378.402381,42.7166667 373.202381,42 367.535714,42 C364.735714,42 361.652381,42.1166667 358.285714,42.35 C354.919048,42.5833333 351.869048,43.0333333 349.135714,43.7 L349.135714,43.7 L349.135714,110.9 C351.869048,111.566667 354.919048,112.016667 358.285714,112.25 C361.652381,112.483333 364.735714,112.6 367.535714,112.6 Z M368.335714,104.1 C365.602381,104.1 363.485714,104.066667 361.985714,104 C360.485714,103.933333 359.435714,103.866667 358.835714,103.8 L358.835714,103.8 L358.835714,50.8 C359.435714,50.7333333 360.485714,50.6666667 361.985714,50.6 C363.485714,50.5333333 365.602381,50.5 368.335714,50.5 C377.535714,50.5 384.402381,52.85 388.935714,57.55 C393.469048,62.25 395.735714,68.8333333 395.735714,77.3 C395.735714,85.7666667 393.469048,92.35 388.935714,97.05 C384.402381,101.75 377.535714,104.1 368.335714,104.1 Z M431.578571,50.6 C433.245238,50.6 434.661905,50.05 435.828571,48.95 C436.995238,47.85 437.578571,46.3666667 437.578571,44.5 C437.578571,42.6333333 436.995238,41.15 435.828571,40.05 C434.661905,38.95 433.245238,38.4 431.578571,38.4 C429.911905,38.4 428.495238,38.95 427.328571,40.05 C426.161905,41.15 425.578571,42.6333333 425.578571,44.5 C425.578571,46.3666667 426.161905,47.85 427.328571,48.95 C428.495238,50.05 429.911905,50.6 431.578571,50.6 Z M436.278571,112 L436.278571,60 L426.978571,60 L426.978571,112 L436.278571,112 Z M468.721429,112 L468.721429,67.8 L488.721429,67.8 L488.721429,60 L468.721429,60 L468.721429,55.5 C468.721429,51.5 469.588095,48.3166667 471.321429,45.95 C473.054762,43.5833333 476.088095,42.4 480.421429,42.4 C482.554762,42.4 484.354762,42.5833333 485.821429,42.95 C487.288095,43.3166667 488.421429,43.7 489.221429,44.1 L489.221429,44.1 L490.921429,36.1 C490.121429,35.7666667 488.738095,35.4 486.771429,35 C484.804762,34.6 482.454762,34.4 479.721429,34.4 C472.721429,34.4 467.588095,36.2166667 464.321429,39.85 C461.054762,43.4833333 459.421429,48.6333333 459.421429,55.3 L459.421429,55.3 L459.421429,112 L468.721429,112 Z M507.721429,112 L507.721429,67.8 L527.721429,67.8 L527.721429,60 L507.721429,60 L507.721429,55.5 C507.721429,51.5 508.588095,48.3166667 510.321429,45.95 C512.054762,43.5833333 515.088095,42.4 519.421429,42.4 C521.554762,42.4 523.354762,42.5833333 524.821429,42.95 C526.288095,43.3166667 527.421429,43.7 528.221429,44.1 L528.221429,44.1 L529.921429,36.1 C529.121429,35.7666667 527.738095,35.4 525.771429,35 C523.804762,34.6 521.454762,34.4 518.721429,34.4 C511.721429,34.4 506.588095,36.2166667 503.321429,39.85 C500.054762,43.4833333 498.421429,48.6333333 498.421429,55.3 L498.421429,55.3 L498.421429,112 L507.721429,112 Z M556.264286,113.2 C562.864286,113.2 567.947619,111.966667 571.514286,109.5 C575.080952,107.033333 576.864286,103.4 576.864286,98.6 C576.864286,96.1333333 576.497619,94.05 575.764286,92.35 C575.030952,90.65 573.980952,89.2 572.614286,88 C571.247619,86.8 569.597619,85.75 567.664286,84.85 C565.730952,83.95 563.530952,83.0333333 561.064286,82.1 C559.197619,81.4333333 557.597619,80.8 556.264286,80.2 C554.930952,79.6 553.814286,78.95 552.914286,78.25 C552.014286,77.55 551.347619,76.7666667 550.914286,75.9 C550.480952,75.0333333 550.264286,74.0333333 550.264286,72.9 C550.264286,70.7 551.230952,69.0833333 553.164286,68.05 C555.097619,67.0166667 557.364286,66.5 559.964286,66.5 C562.964286,66.5 565.530952,66.7833333 567.664286,67.35 C569.797619,67.9166667 571.364286,68.4666667 572.364286,69 L572.364286,69 L574.064286,61 C573.530952,60.8 572.780952,60.5666667 571.814286,60.3 C570.847619,60.0333333 569.730952,59.7833333 568.464286,59.55 C567.197619,59.3166667 565.830952,59.1166667 564.364286,58.95 C562.897619,58.7833333 561.430952,58.7 559.964286,58.7 C554.097619,58.7 549.464286,60.05 546.064286,62.75 C542.664286,65.45 540.964286,69.1 540.964286,73.7 C540.964286,76.0333333 541.364286,78 542.164286,79.6 C542.964286,81.2 544.030952,82.5666667 545.364286,83.7 C546.697619,84.8333333 548.280952,85.8166667 550.114286,86.65 C551.947619,87.4833333 553.864286,88.3 555.864286,89.1 C559.997619,90.7666667 562.964286,92.2666667 564.764286,93.6 C566.564286,94.9333333 567.464286,96.7333333 567.464286,99 C567.464286,101.2 566.547619,102.8 564.714286,103.8 C562.880952,104.8 560.064286,105.3 556.264286,105.3 C552.397619,105.3 549.297619,104.9 546.964286,104.1 C544.630952,103.3 542.930952,102.7 541.864286,102.3 L541.864286,102.3 L540.164286,110.3 C541.097619,110.7 542.864286,111.283333 545.464286,112.05 C548.064286,112.816667 551.664286,113.2 556.264286,113.2 Z M657.25,113.5 C661.716667,113.5 665.933333,112.733333 669.9,111.2 C673.866667,109.666667 677.35,107.383333 680.35,104.35 C683.35,101.316667 685.733333,97.5333333 687.5,93 C689.266667,88.4666667 690.15,83.2333333 690.15,77.3 C690.15,71.3666667 689.266667,66.1333333 687.5,61.6 C685.733333,57.0666667 683.35,53.2833333 680.35,50.25 C677.35,47.2166667 673.866667,44.9333333 669.9,43.4 C665.933333,41.8666667 661.716667,41.1 657.25,41.1 C652.716667,41.1 648.433333,41.8666667 644.4,43.4 C640.366667,44.9333333 636.833333,47.2166667 633.8,50.25 C630.766667,53.2833333 628.366667,57.0666667 626.6,61.6 C624.833333,66.1333333 623.95,71.3666667 623.95,77.3 C623.95,83.2333333 624.833333,88.4666667 626.6,93 C628.366667,97.5333333 630.766667,101.316667 633.8,104.35 C636.833333,107.383333 640.366667,109.666667 644.4,111.2 C648.433333,112.733333 652.716667,113.5 657.25,113.5 Z M657.05,105 C653.516667,105 650.333333,104.35 647.5,103.05 C644.666667,101.75 642.266667,99.9 640.3,97.5 C638.333333,95.1 636.816667,92.1833333 635.75,88.75 C634.683333,85.3166667 634.15,81.5 634.15,77.3 C634.15,73.1 634.683333,69.2833333 635.75,65.85 C636.816667,62.4166667 638.333333,59.5 640.3,57.1 C642.266667,54.7 644.666667,52.85 647.5,51.55 C650.333333,50.25 653.516667,49.6 657.05,49.6 C660.583333,49.6 663.75,50.25 666.55,51.55 C669.35,52.85 671.733333,54.7 673.7,57.1 C675.666667,59.5 677.183333,62.4166667 678.25,65.85 C679.316667,69.2833333 679.85,73.1 679.85,77.3 C679.85,81.5 679.316667,85.3166667 678.25,88.75 C677.183333,92.1833333 675.666667,95.1 673.7,97.5 C671.733333,99.9 669.35,101.75 666.55,103.05 C663.75,104.35 660.583333,105 657.05,105 Z M730.792857,113.2 C734.792857,113.2 738.392857,112.566667 741.592857,111.3 C744.792857,110.033333 747.52619,108.233333 749.792857,105.9 C752.059524,103.566667 753.809524,100.716667 755.042857,97.35 C756.27619,93.9833333 756.892857,90.2 756.892857,86 C756.892857,82 756.37619,78.3333333 755.342857,75 C754.309524,71.6666667 752.792857,68.8 750.792857,66.4 C748.792857,64 746.342857,62.1333333 743.442857,60.8 C740.542857,59.4666667 737.22619,58.8 733.492857,58.8 C730.492857,58.8 727.842857,59.2 725.542857,60 C723.242857,60.8 721.52619,61.5666667 720.392857,62.3 L720.392857,62.3 L720.392857,34.4 L711.092857,36 L711.092857,110.5 C713.22619,111.1 715.959524,111.7 719.292857,112.3 C722.62619,112.9 726.459524,113.2 730.792857,113.2 Z M730.692857,105 C728.159524,105 726.042857,104.883333 724.342857,104.65 C722.642857,104.416667 721.32619,104.166667 720.392857,103.9 L720.392857,103.9 L720.392857,71 C721.52619,70.0666667 723.159524,69.1666667 725.292857,68.3 C727.42619,67.4333333 729.759524,67 732.292857,67 C734.959524,67 737.242857,67.4833333 739.142857,68.45 C741.042857,69.4166667 742.592857,70.75 743.792857,72.45 C744.992857,74.15 745.859524,76.1666667 746.392857,78.5 C746.92619,80.8333333 747.192857,83.3333333 747.192857,86 C747.192857,92.0666667 745.692857,96.75 742.692857,100.05 C739.692857,103.35 735.692857,105 730.692857,105 Z M789.235714,113.2 C795.835714,113.2 800.919048,111.966667 804.485714,109.5 C808.052381,107.033333 809.835714,103.4 809.835714,98.6 C809.835714,96.1333333 809.469048,94.05 808.735714,92.35 C808.002381,90.65 806.952381,89.2 805.585714,88 C804.219048,86.8 802.569048,85.75 800.635714,84.85 C798.702381,83.95 796.502381,83.0333333 794.035714,82.1 C792.169048,81.4333333 790.569048,80.8 789.235714,80.2 C787.902381,79.6 786.785714,78.95 785.885714,78.25 C784.985714,77.55 784.319048,76.7666667 783.885714,75.9 C783.452381,75.0333333 783.235714,74.0333333 783.235714,72.9 C783.235714,70.7 784.202381,69.0833333 786.135714,68.05 C788.069048,67.0166667 790.335714,66.5 792.935714,66.5 C795.935714,66.5 798.502381,66.7833333 800.635714,67.35 C802.769048,67.9166667 804.335714,68.4666667 805.335714,69 L805.335714,69 L807.035714,61 C806.502381,60.8 805.752381,60.5666667 804.785714,60.3 C803.819048,60.0333333 802.702381,59.7833333 801.435714,59.55 C800.169048,59.3166667 798.802381,59.1166667 797.335714,58.95 C795.869048,58.7833333 794.402381,58.7 792.935714,58.7 C787.069048,58.7 782.435714,60.05 779.035714,62.75 C775.635714,65.45 773.935714,69.1 773.935714,73.7 C773.935714,76.0333333 774.335714,78 775.135714,79.6 C775.935714,81.2 777.002381,82.5666667 778.335714,83.7 C779.669048,84.8333333 781.252381,85.8166667 783.085714,86.65 C784.919048,87.4833333 786.835714,88.3 788.835714,89.1 C792.969048,90.7666667 795.935714,92.2666667 797.735714,93.6 C799.535714,94.9333333 800.435714,96.7333333 800.435714,99 C800.435714,101.2 799.519048,102.8 797.685714,103.8 C795.852381,104.8 793.035714,105.3 789.235714,105.3 C785.369048,105.3 782.269048,104.9 779.935714,104.1 C777.602381,103.3 775.902381,102.7 774.835714,102.3 L774.835714,102.3 L773.135714,110.3 C774.069048,110.7 775.835714,111.283333 778.435714,112.05 C781.035714,112.816667 784.635714,113.2 789.235714,113.2 Z M852.178571,113.2 C855.778571,113.2 858.995238,112.866667 861.828571,112.2 C864.661905,111.533333 866.645238,110.9 867.778571,110.3 L867.778571,110.3 L866.478571,102.5 C865.345238,103.033333 863.661905,103.583333 861.428571,104.15 C859.195238,104.716667 856.445238,105 853.178571,105 C847.378571,105 843.111905,103.6 840.378571,100.8 C837.645238,98 836.078571,93.9 835.678571,88.5 L835.678571,88.5 L871.278571,88.5 C871.345238,87.9666667 871.378571,87.3833333 871.378571,86.75 L871.378571,86.75 L871.378571,85.2 C871.378571,76.2666667 869.511905,69.6166667 865.778571,65.25 C862.045238,60.8833333 856.678571,58.7 849.678571,58.7 C846.678571,58.7 843.745238,59.2666667 840.878571,60.4 C838.011905,61.5333333 835.478571,63.2333333 833.278571,65.5 C831.078571,67.7666667 829.311905,70.6166667 827.978571,74.05 C826.645238,77.4833333 825.978571,81.5 825.978571,86.1 C825.978571,90.0333333 826.495238,93.65 827.528571,96.95 C828.561905,100.25 830.145238,103.1 832.278571,105.5 C834.411905,107.9 837.128571,109.783333 840.428571,111.15 C843.728571,112.516667 847.645238,113.2 852.178571,113.2 Z M861.678571,81 L835.878571,81 C836.078571,79.2 836.495238,77.4333333 837.128571,75.7 C837.761905,73.9666667 838.645238,72.4333333 839.778571,71.1 C840.911905,69.7666667 842.295238,68.6833333 843.928571,67.85 C845.561905,67.0166667 847.445238,66.6 849.578571,66.6 C853.378571,66.6 856.361905,67.95 858.528571,70.65 C860.695238,73.35 861.745238,76.8 861.678571,81 L861.678571,81 Z M901.221429,112 L901.221429,68.3 C901.754762,68.1666667 902.871429,67.9166667 904.571429,67.55 C906.271429,67.1833333 907.988095,67 909.721429,67 C912.388095,67 914.571429,67.1833333 916.271429,67.55 C917.971429,67.9166667 919.188095,68.2333333 919.921429,68.5 L919.921429,68.5 L921.521429,60.4 C921.121429,60.2666667 920.504762,60.1166667 919.671429,59.95 C918.838095,59.7833333 917.921429,59.6166667 916.921429,59.45 C915.921429,59.2833333 914.904762,59.15 913.871429,59.05 C912.838095,58.95 911.921429,58.9 911.121429,58.9 C907.054762,58.9 903.388095,59.25 900.121429,59.95 C896.854762,60.65 894.121429,61.4 891.921429,62.2 L891.921429,62.2 L891.921429,112 L901.221429,112 Z M961.064286,112 C964.330952,104.933333 967.714286,96.9333333 971.214286,88 C974.714286,79.0666667 977.764286,69.7333333 980.364286,60 L980.364286,60 L970.764286,60 C969.964286,63.2666667 969.014286,66.75 967.914286,70.45 C966.814286,74.15 965.647619,77.8166667 964.414286,81.45 C963.180952,85.0833333 961.930952,88.6 960.664286,92 C959.397619,95.4 958.197619,98.4333333 957.064286,101.1 C955.930952,98.4333333 954.730952,95.4 953.464286,92 C952.197619,88.6 950.947619,85.0833333 949.714286,81.45 C948.480952,77.8166667 947.314286,74.15 946.214286,70.45 C945.114286,66.75 944.164286,63.2666667 943.364286,60 L943.364286,60 L933.364286,60 C935.964286,69.7333333 939.014286,79.0666667 942.514286,88 C946.014286,96.9333333 949.397619,104.933333 952.664286,112 L952.664286,112 L961.064286,112 Z M1019.00714,113.2 C1022.60714,113.2 1025.82381,112.866667 1028.65714,112.2 C1031.49048,111.533333 1033.47381,110.9 1034.60714,110.3 L1034.60714,110.3 L1033.30714,102.5 C1032.17381,103.033333 1030.49048,103.583333 1028.25714,104.15 C1026.02381,104.716667 1023.27381,105 1020.00714,105 C1014.20714,105 1009.94048,103.6 1007.20714,100.8 C1004.47381,98 1002.90714,93.9 1002.50714,88.5 L1002.50714,88.5 L1038.10714,88.5 C1038.17381,87.9666667 1038.20714,87.3833333 1038.20714,86.75 L1038.20714,86.75 L1038.20714,85.2 C1038.20714,76.2666667 1036.34048,69.6166667 1032.60714,65.25 C1028.87381,60.8833333 1023.50714,58.7 1016.50714,58.7 C1013.50714,58.7 1010.57381,59.2666667 1007.70714,60.4 C1004.84048,61.5333333 1002.30714,63.2333333 1000.10714,65.5 C997.907143,67.7666667 996.140476,70.6166667 994.807143,74.05 C993.47381,77.4833333 992.807143,81.5 992.807143,86.1 C992.807143,90.0333333 993.32381,93.65 994.357143,96.95 C995.390476,100.25 996.97381,103.1 999.107143,105.5 C1001.24048,107.9 1003.95714,109.783333 1007.25714,111.15 C1010.55714,112.516667 1014.47381,113.2 1019.00714,113.2 Z M1028.50714,81 L1002.70714,81 C1002.90714,79.2 1003.32381,77.4333333 1003.95714,75.7 C1004.59048,73.9666667 1005.47381,72.4333333 1006.60714,71.1 C1007.74048,69.7666667 1009.12381,68.6833333 1010.75714,67.85 C1012.39048,67.0166667 1014.27381,66.6 1016.40714,66.6 C1020.20714,66.6 1023.19048,67.95 1025.35714,70.65 C1027.52381,73.35 1028.57381,76.8 1028.50714,81 L1028.50714,81 Z M1081.95,113.2 C1086.28333,113.2 1090.11667,112.9 1093.45,112.3 C1096.78333,111.7 1099.51667,111.1 1101.65,110.5 L1101.65,110.5 L1101.65,34.4 L1092.35,36 L1092.35,62.3 C1091.21667,61.5666667 1089.5,60.8 1087.2,60 C1084.9,59.2 1082.25,58.8 1079.25,58.8 C1075.51667,58.8 1072.2,59.4666667 1069.3,60.8 C1066.4,62.1333333 1063.95,64 1061.95,66.4 C1059.95,68.8 1058.43333,71.6666667 1057.4,75 C1056.36667,78.3333333 1055.85,82 1055.85,86 C1055.85,90.2 1056.46667,93.9833333 1057.7,97.35 C1058.93333,100.716667 1060.68333,103.566667 1062.95,105.9 C1065.21667,108.233333 1067.95,110.033333 1071.15,111.3 C1074.35,112.566667 1077.95,113.2 1081.95,113.2 Z M1082.05,105 C1077.05,105 1073.05,103.35 1070.05,100.05 C1067.05,96.75 1065.55,92.0666667 1065.55,86 C1065.55,83.3333333 1065.81667,80.8333333 1066.35,78.5 C1066.88333,76.1666667 1067.75,74.15 1068.95,72.45 C1070.15,70.75 1071.7,69.4166667 1073.6,68.45 C1075.5,67.4833333 1077.78333,67 1080.45,67 C1082.98333,67 1085.31667,67.4333333 1087.45,68.3 C1089.58333,69.1666667 1091.21667,70.0666667 1092.35,71 L1092.35,71 L1092.35,103.9 C1091.41667,104.166667 1090.1,104.416667 1088.4,104.65 C1086.7,104.883333 1084.58333,105 1082.05,105 Z" id="NoDiffsObserved" fill="#9E9E9E" fill-rule="nonzero"></path>
    </g>
</svg>